SplineFontDB: 3.0
FontName: Crimson-Bold
FullName: Crimson Bold
FamilyName: Crimson
Weight: Bold
Copyright: Copyright (c) 2010, Sebastian Kosch (sebastian@aldusleaf.org),\nwith Reserved Font Name "Crimson".\nThis Font Software is licensed under the SIL Open Font License, Version 1.1.\nThis license is available with a FAQ at: http://scripts.sil.org/OFL
UComments: "2010-5-14: Created." 
Version: 0.12
ItalicAngle: 0
UnderlinePosition: -102
UnderlineWidth: 51
Ascent: 717
Descent: 307
LayerCount: 2
Layer: 0 0 "Back"  1
Layer: 1 0 "Fore"  0
NeedsXUIDChange: 1
XUID: [1021 85 519305545 5082149]
FSType: 0
OS2Version: 0
OS2_WeightWidthSlopeOnly: 0
OS2_UseTypoMetrics: 1
CreationTime: 1273891947
ModificationTime: 1313559538
PfmFamily: 17
TTFWeight: 700
TTFWidth: 5
LineGap: 0
VLineGap: 0
OS2TypoAscent: 1106
OS2TypoAOffset: 0
OS2TypoDescent: -740
OS2TypoDOffset: 0
OS2TypoLinegap: 0
OS2WinAscent: 1106
OS2WinAOffset: 0
OS2WinDescent: 740
OS2WinDOffset: 0
HheadAscent: 1106
HheadAOffset: 0
HheadDescent: -740
HheadDOffset: 0
OS2Vendor: 'PfEd'
Lookup: 1 0 0 "'onum' Oldstyle Figures in Latin lookup 3"  {"'onum' Oldstyle Figures in Latin lookup 3-1" ("oldstyle" ) } ['onum' ('DFLT' <'dflt' > 'latn' <'dflt' > ) ]
Lookup: 1 0 0 "'smcp' Lowercase to Small Capitals in Latin lookup 0"  {"'smcp' Lowercase to Small Capitals in Latin lookup 0 subtable" ("sc" ) } ['smcp' ('DFLT' <'dflt' > 'latn' <'dflt' > ) ]
Lookup: 1 0 0 "'c2sc' Capitals to Small Capitals in Latin lookup 0"  {"'c2sc' Capitals to Small Capitals in Latin lookup 0 subtable"  } ['c2sc' ('DFLT' <'dflt' > 'latn' <'dflt' > ) ]
Lookup: 258 0 0 "'kern' Horizontal Kerning in Latin lookup 0"  {"'kern' Horizontal Kerning in Latin lookup 0 per glyph data 0"  "'kern' Horizontal Kerning in Latin lookup 0 kerning class 1"  } ['kern' ('latn' <'dflt' > ) ]
MarkAttachClasses: 1
DEI: 91125
KernClass2: 72+ 60 "'kern' Horizontal Kerning in Latin lookup 0 kerning class 1" 
 20 quotedbl quotesingle
 8 asterisk
 20 hyphen endash emdash

StartChar: exclam
Encoding: 33 33 1
Width: 267
Flags: W
HStem: -11 150<80.25 184.969> 622 20G<119 152.5>
VStem: 58 150<12.2802 116> 71 128<370.997 626.241>
LayerCount: 2
Fore
SplineSet
208 63 m 4xe0
 208 23 175 -11 134 -11 c 31
 92 -11 58 23 58 66 c 4
 58 106 92 139 133 139 c 31
 175 139 208 103 208 63 c 4xe0
137 642 m 4
 168 642 199 617 199 574 c 4
 199 546 170 309 157 221 c 5
 153 208 149 199 137 195 c 5
 132 195 120 202 114 212 c 5
 103 279 71 524 71 575 c 4xd0
 71 617 101 642 137 642 c 4
EndSplineSet
Substitution2: "'smcp' Lowercase to Small Capitals in Latin lookup 0 subtable" exclam.sc
EndChar

StartChar: quotedbl
Encoding: 34 34 2
Width: 337
Flags: W
HStem: 434 264<69.0527 106.945 232.42 267.945>
VStem: 35 103<522.226 678.189> 199 102<522.226 679.379>
LayerCount: 2
Back
SplineSet
112 698 m 2
 126 698 l 2
 142 698 156 692 156 633 c 0
 156 577 131 516 125 449 c 0
 124 439 116 434 109 434 c 0
 101 434 92 439 91 447 c 0
 82 537 57 594 57 635 c 0
 57 653 86 698 112 698 c 2
275 698 m 2
 290 698 l 2
 306 698 319 692 319 633 c 0
 319 577 292 516 286 449 c 0
 285 439 277 434 270 434 c 0
 263 434 256 439 255 447 c 0
 246 537 221 594 221 635 c 0
 221 653 249 698 275 698 c 2
EndSplineSet
Fore
SplineSet
90 698 m 2
 108 698 l 2
 124 698 138 692 138 633 c 0
 138 577 113 516 107 449 c 0
 106 439 94 434 87 434 c 0
 79 434 70 439 69 447 c 0
 60 537 35 594 35 635 c 0
 35 653 64 698 90 698 c 2
253 698 m 6
 272 698 l 6
 288 698 301 692 301 633 c 4
 301 577 274 516 268 449 c 4
 267 439 255 434 248 434 c 4
 241 434 234 439 233 447 c 4
 224 537 199 594 199 635 c 4
 199 653 227 698 253 698 c 6
EndSplineSet
Substitution2: "'smcp' Lowercase to Small Capitals in Latin lookup 0 subtable" quotedbl.sc
EndChar

StartChar: numbersign
Encoding: 35 35 3
Width: 472
Flags: W
HStem: 148 67<60.1884 385.122> 339 67<87.2669 413.056>
LayerCount: 2
Fore
SplineSet
407 339 m 1
 248 339 248 339 78 339 c 1
 66 339 81 402 94 406 c 9
 420 406 l 17
 434 406 420 345 407 339 c 1
379 148 m 1
 220 148 220 148 50 148 c 1
 38 148 54 211 67 215 c 9
 393 215 l 17
 407 215 392 154 379 148 c 1
378 528 m 1
 299 36 l 2
 298 32 283 23 268 23 c 0
 258 23 257 27 257 27 c 1
 336 518 l 1
 339 527 346 531 365 531 c 0
 374 531 375 530 378 528 c 1
217 528 m 1
 137 36 l 2
 136 32 122 23 107 23 c 0
 97 23 96 27 96 27 c 1
 175 518 l 1
 178 527 185 531 204 531 c 0
 213 531 214 530 217 528 c 1
EndSplineSet
Substitution2: "'smcp' Lowercase to Small Capitals in Latin lookup 0 subtable" numbersign.sc
EndChar

StartChar: dollar
Encoding: 36 36 4
Width: 516
Flags: W
HStem: -10 40<222.611 309.248> 450 21G<424.5 428> 601 40<213.095 279.092> 648 20G<284.738 292>
VStem: 54 40<131.239 189.022> 61 127<462.101 543.456> 174 39<-35.9908 4.01403> 288 39<624.049 664.779> 342 126<88.2504 184.301> 397 39<450.001 513.559>
LayerCount: 2
Fore
SplineSet
249 30 m 0xf980
 285 30 342 47 342 124 c 0xf980
 342 199 249 249 201 282 c 0
 131 329 61 368 61 468 c 0
 61 567 166 641 265 641 c 0
 321 641 368 626 426 614 c 1
 431 563 433 513 436 455 c 1
 433 451 430 450 426 450 c 0
 423 450 399 448 397 456 c 0
 389 510 344 601 270 601 c 0
 233 601 188 582 188 518 c 0xf540
 188 459 264 401 327 361 c 0
 391 320 468 294 468 167 c 0
 468 62 364 -10 259 -10 c 0
 203 -10 134 2 77 15 c 1
 67 57 56 151 54 178 c 1
 58 184 77 191 82 191 c 0
 89 191 93 189 94 183 c 0
 103 131 163 30 249 30 c 0xf980
288 668 m 17
 296 668 327 667 327 660 c 9
 213 -40 l 17
 204 -40 174 -38 174 -31 c 9xf3
 288 668 l 17
EndSplineSet
Substitution2: "'smcp' Lowercase to Small Capitals in Latin lookup 0 subtable" dollar.sc
EndChar

StartChar: percent
Encoding: 37 37 5
Width: 684
Flags: W
HStem: 0 31<466.28 531.815> 274 30<450.791 516.192> 337 31<169.28 234.815> 611 30<153.791 219.192>
VStem: 38 95<408.108 565.734> 256 95<412.743 570.7> 335 95<71.1076 228.734> 553 95<75.7433 233.7>
LayerCount: 2
Fore
SplineSet
622 635 m 5xf9
 106 -5 l 6
 102 -11 82 -20 65 -20 c 4
 50 -20 50 -8 50 -8 c 5
 566 632 l 5
 574 639 589 645 606 645 c 4
 615 645 622 640 622 635 c 5xf9
483 274 m 7
 434 274 430 211 430 163 c 28xfb
 430 105 450 31 499 31 c 7
 548 31 553 93 553 140 c 28
 553 199 532 274 483 274 c 7
491 304 m 4
 583 304 648 240 648 155 c 4
 648 71 580 0 492 0 c 4
 399 0 335 66 335 150 c 4
 335 234 403 304 491 304 c 4
186 611 m 7
 137 611 133 548 133 500 c 28
 133 442 153 368 202 368 c 7
 251 368 256 430 256 477 c 28xfd
 256 536 235 611 186 611 c 7
194 641 m 4
 286 641 351 577 351 492 c 4
 351 408 283 337 195 337 c 4
 102 337 38 403 38 487 c 4
 38 571 106 641 194 641 c 4
EndSplineSet
Substitution2: "'smcp' Lowercase to Small Capitals in Latin lookup 0 subtable" percent.sc
EndChar

StartChar: ampersand
Encoding: 38 38 6
Width: 675
Flags: W
HStem: -4 76<187.5 338.851> -3 83<484 565.669> 280 32<472.172 522.879 600.817 671.93> 606 39<265.652 338.641>
VStem: 48 130<137.885 247.308> 131 116<445.149 566.514> 361 103<452.463 587.477>
LayerCount: 2
Fore
SplineSet
374 95 m 1xba
 346 133 251 264 216 313 c 1
 194 294 178 266 178 220 c 0
 178 154 219 72 310 72 c 0
 344 72 361 84 374 95 c 1xba
304 606 m 0
 261 606 247 561 247 513 c 0x36
 247 469 279 430 296 407 c 1
 340 430 361 459 361 513 c 0
 361 545 349 606 304 606 c 0
305 645 m 0
 406 645 464 599 464 529 c 0
 464 439 392 397 322 366 c 1
 350 329 431 222 462 181 c 1
 486 209 523 250 523 262 c 0
 523 285 481 278 474 280 c 1
 470 286 470 310 475 312 c 1
 543 311 l 2
 578 310 626 312 671 314 c 1
 675 312 675 287 669 281 c 1
 662 280 617 280 600 266 c 0
 586 255 517 173 490 145 c 1
 497 137 542 80 564 80 c 0
 592 80 617 119 628 133 c 1
 637 133 648 125 653 115 c 1
 649 103 573 -3 511 -3 c 3x76
 457 -3 429 28 401 60 c 1
 356 17 296 -4 229 -4 c 3
 146 -4 48 55 48 156 c 0xba
 48 273 134 320 188 354 c 1
 167 385 131 423 131 490 c 0
 131 580 211 645 305 645 c 0
EndSplineSet
Substitution2: "'smcp' Lowercase to Small Capitals in Latin lookup 0 subtable" ampersand.sc
EndChar

StartChar: quotesingle
Encoding: 39 39 7
Width: 180
Flags: W
HStem: 451 260<83.1421 120.807>
VStem: 33 111<531.556 686.937>
LayerCount: 2
Fore
SplineSet
106 711 m 0
 122 711 137 704 144 689 c 1
 139 626 133 539 121 470 c 1
 117 464 106 455 95 451 c 1
 91 451 86 453 83 457 c 1
 61 515 33 580 33 627 c 0
 33 671 64 711 106 711 c 0
EndSplineSet
Substitution2: "'smcp' Lowercase to Small Capitals in Latin lookup 0 subtable" quotesingle.sc
EndChar

StartChar: parenleft
Encoding: 40 40 8
Width: 286
Flags: W
VStem: 31 111<147.177 462.823>
LayerCount: 2
Fore
SplineSet
31 305 m 0
 31 574 195 713 270 747 c 1
 275 744 280 723 279 720 c 1
 240 686 142 536 142 305 c 0
 142 74 240 -76 279 -110 c 1
 280 -113 275 -134 270 -137 c 1
 195 -103 31 36 31 305 c 0
EndSplineSet
Substitution2: "'smcp' Lowercase to Small Capitals in Latin lookup 0 subtable" parenleft.sc
EndChar

StartChar: parenright
Encoding: 41 41 9
Width: 286
Flags: W
VStem: 144 111<147.177 462.823>
LayerCount: 2
Fore
SplineSet
255 305 m 0
 255 36 91 -103 16 -137 c 1
 11 -134 6 -113 7 -110 c 1
 46 -76 144 74 144 305 c 0
 144 536 46 686 7 720 c 1
 6 723 11 744 16 747 c 1
 91 713 255 574 255 305 c 0
EndSplineSet
Substitution2: "'smcp' Lowercase to Small Capitals in Latin lookup 0 subtable" parenright.sc
EndChar

StartChar: asterisk
Encoding: 42 42 10
Width: 440
Flags: W
HStem: 424 89<42.75 144.237>
VStem: 155 91<309.181 407.934>
LayerCount: 2
Fore
SplineSet
120 593 m 0
 104 620 116 651 134 661 c 0
 154 671 183 666 199 639 c 0
 224 597 201 566 218 531 c 1
 218 531 223 521 228 520 c 0
 230 520 233 520 237 524 c 0
 263 552 256 582 288 618 c 0
 309 642 342 640 357 626 c 0
 373 610 377 581 356 557 c 0
 324 521 287 533 259 506 c 1
 259 506 252 498 252 493 c 0
 252 489 255 487 260 485 c 0
 295 469 322 485 366 466 c 0
 395 454 404 421 395 402 c 0
 385 382 358 370 329 382 c 0
 285 401 284 440 250 458 c 1
 250 458 240 464 236 461 c 0
 234 460 233 459 232 453 c 0
 228 415 251 395 246 347 c 0
 243 316 215 298 195 300 c 0
 173 304 152 325 155 356 c 0
 160 404 196 417 203 455 c 1
 203 455 204 465 201 469 c 0
 200 471 198 471 192 470 c 0
 155 462 142 435 95 424 c 0
 64 417 39 438 35 458 c 0
 32 480 45 506 76 513 c 0
 123 524 146 493 185 498 c 1
 185 498 197 499 198 504 c 0
 199 507 197 510 194 515 c 0
 175 548 145 551 120 593 c 0
EndSplineSet
Substitution2: "'smcp' Lowercase to Small Capitals in Latin lookup 0 subtable" asterisk.sc
EndChar

StartChar: plus
Encoding: 43 43 11
Width: 544
Flags: W
HStem: 214 64<35.4231 239 303 508.937>
VStem: 239 64<11.3945 214 278 482.029>
LayerCount: 2
Fore
SplineSet
303 19 m 5
 291 11 260 8 250 8 c 4
 244 8 239 12 239 16 c 6
 239 214 l 5
 38 214 l 6
 33 214 32 220 32 230 c 4
 32 234 35 266 43 278 c 5
 239 278 l 5
 239 474 l 5
 250 483 283 485 287 485 c 4
 297 485 303 483 303 476 c 6
 303 278 l 5
 504 278 l 6
 510 278 513 270 513 264 c 4
 513 243 506 224 498 214 c 5
 303 214 l 5
 303 19 l 5
EndSplineSet
Substitution2: "'smcp' Lowercase to Small Capitals in Latin lookup 0 subtable" plus.sc
EndChar

StartChar: comma
Encoding: 44 44 12
Width: 221
Flags: W
HStem: -157 296
VStem: 89 87<-35.4663 70>
LayerCount: 2
Fore
SplineSet
118 139 m 4
 135 139 151 131 162 123 c 5
 170 108 176 82 176 58 c 4
 176 -37 109 -122 39 -157 c 5
 28 -154 18 -139 18 -133 c 5
 37 -121 89 -76 89 -27 c 4
 89 6 41 3 41 68 c 4
 41 84 56 139 118 139 c 4
EndSplineSet
Substitution2: "'smcp' Lowercase to Small Capitals in Latin lookup 0 subtable" comma.sc
EndChar

StartChar: hyphen
Encoding: 45 45 13
Width: 373
Flags: W
HStem: 210 69<72.344 311.262>
VStem: 55 263
LayerCount: 2
Fore
SplineSet
70 267 m 1
 70 267 278 278 311 279 c 0
 315 279 318 278 318 270 c 0
 318 253 311 227 303 210 c 1
 256 207 153 203 62 199 c 0
 57 199 55 201 55 210 c 0
 55 229 63 252 70 267 c 1
EndSplineSet
Substitution2: "'smcp' Lowercase to Small Capitals in Latin lookup 0 subtable" hyphen.sc
EndChar

StartChar: period
Encoding: 46 46 14
Width: 232
Flags: W
HStem: -11 150<64.25 168.969>
VStem: 42 150<12.2802 116>
LayerCount: 2
Fore
SplineSet
192 63 m 4
 192 23 159 -11 118 -11 c 31
 76 -11 42 23 42 66 c 4
 42 106 76 139 117 139 c 31
 159 139 192 103 192 63 c 4
EndSplineSet
Substitution2: "'smcp' Lowercase to Small Capitals in Latin lookup 0 subtable" period.sc
EndChar

StartChar: slash
Encoding: 47 47 15
Width: 422
Flags: W
LayerCount: 2
Fore
SplineSet
393 753 m 5
 97 -14 l 6
 95 -21 82 -35 47 -35 c 4
 32 -35 29 -28 29 -28 c 5
 325 739 l 5
 332 754 344 761 374 761 c 4
 388 761 389 755 393 753 c 5
EndSplineSet
Substitution2: "'smcp' Lowercase to Small Capitals in Latin lookup 0 subtable" slash.sc
EndChar

StartChar: zero
Encoding: 48 48 16
Width: 542
Flags: W
HStem: -3 42<239.783 313.187> 583 42<235.243 313.139>
VStem: 51 130<168.111 441.573> 362 130<174 457.716>
LayerCount: 2
Fore
SplineSet
181 302 m 0
 181 145 224 39 275 39 c 0
 340 39 362 171 362 328 c 0
 362 485 330 583 275 583 c 0
 210 583 181 459 181 302 c 0
51 311 m 0
 51 485 154 625 274 625 c 0
 394 625 492 511 492 311 c 0
 492 137 394 -3 274 -3 c 0
 154 -3 51 111 51 311 c 0
EndSplineSet
Substitution2: "'smcp' Lowercase to Small Capitals in Latin lookup 0 subtable" zero.sc
Substitution2: "'c2sc' Capitals to Small Capitals in Latin lookup 0 subtable" zero.sc
Substitution2: "'onum' Oldstyle Figures in Latin lookup 3-1" zero.onum
EndChar

StartChar: one
Encoding: 49 49 17
Width: 368
Flags: W
HStem: -4 37<57.7205 123.998 270.001 336.279> 623 20G<255.5 262>
VStem: 132 130<41.2661 533.021>
LayerCount: 2
Fore
SplineSet
132 145 m 6
 132 482 l 6
 132 526 127 535 111 535 c 4
 102 535 60 524 39 512 c 5
 31 516 26 525 26 531 c 4
 26 533 25 542 28 543 c 4
 143 592 254 643 257 643 c 6
 259 643 l 6
 265 643 270 629 271 624 c 5
 271 624 262 595 262 530 c 6
 262 145 l 6
 262 102 262 71 270 51 c 4
 275 38 321 34 334 33 c 5
 339 26 338 2 334 -4 c 5
 295 0 239 3 197 3 c 4
 155 3 99 0 60 -4 c 5
 56 2 55 26 60 33 c 5
 73 34 119 38 124 51 c 4
 132 71 132 102 132 145 c 6
EndSplineSet
Substitution2: "'smcp' Lowercase to Small Capitals in Latin lookup 0 subtable" one.sc
Substitution2: "'c2sc' Capitals to Small Capitals in Latin lookup 0 subtable" one.sc
Substitution2: "'onum' Oldstyle Figures in Latin lookup 3-1" one.onum
EndChar

StartChar: two
Encoding: 50 50 18
Width: 495
Flags: W
HStem: 0 102<157 384.012> 564 78<153.499 295>
VStem: 290 131<381.569 516.668> 423 34<155.14 197.879>
LayerCount: 2
Fore
SplineSet
457 192 m 1
 446 145 403 19 397 0 c 9
 33 0 l 1
 28 5 25 13 24 18 c 1
 101 103 162 161 232 271 c 0
 278 344 290 404 290 449 c 4
 290 515 237 564 183 564 c 4
 113 564 76 501 68 493 c 5
 63 493 47 502 47 517 c 5
 64 555 135 642 247 642 c 4
 343 642 421 582 421 474 c 4
 421 413 391 354 345 300 c 0
 290 236 226 165 157 102 c 1
 173 102 329 102 329 102 c 2
 389 102 407 155 423 191 c 0
 425 196 431 198 437 198 c 0
 444 198 452 196 457 192 c 1
EndSplineSet
Substitution2: "'smcp' Lowercase to Small Capitals in Latin lookup 0 subtable" two.sc
Substitution2: "'c2sc' Capitals to Small Capitals in Latin lookup 0 subtable" two.sc
Substitution2: "'onum' Oldstyle Figures in Latin lookup 3-1" two.onum
EndChar

StartChar: three
Encoding: 51 51 19
Width: 487
Flags: W
HStem: -6 42<168.235 270.423> 313 33<137.165 196.352> 568 74<159.612 275>
VStem: 284 117<442.547 531.989> 309 133<129.219 265.223>
LayerCount: 2
Fore
SplineSet
251 642 m 4xf0
 299 642 401 614 401 514 c 4xf0
 401 430 318 382 293 372 c 5
 325 370 442 340 442 220 c 4
 442 79 303 -6 175 -6 c 4
 110 -6 60 15 40 31 c 5
 33 40 28 64 28 74 c 4
 28 98 46 127 80 127 c 4
 107 127 128 99 144 80 c 4
 162 59 189 36 215 36 c 4
 277 36 309 88 309 178 c 4xe8
 309 253 267 322 200 322 c 4
 194 322 171 320 145 313 c 5
 141 318 136 329 136 337 c 4
 136 341 136 343 137 346 c 5
 194 356 284 387 284 458 c 4
 284 519 250 568 190 568 c 4
 136 568 88 524 81 516 c 5
 74 518 69 535 69 544 c 5
 106 593 171 642 251 642 c 4xf0
EndSplineSet
Substitution2: "'smcp' Lowercase to Small Capitals in Latin lookup 0 subtable" three.sc
Substitution2: "'c2sc' Capitals to Small Capitals in Latin lookup 0 subtable" three.sc
Substitution2: "'onum' Oldstyle Figures in Latin lookup 3-1" three.onum
EndChar

StartChar: four
Encoding: 52 52 20
Width: 498
Flags: W
HStem: -5 21G<312 350> 174 68<91.7757 271 397 453.913> 624 20G<366 373>
VStem: 271 126<-1.13095 174 242 466>
LayerCount: 2
Fore
SplineSet
370 644 m 4
 376 644 397 628 397 616 c 14
 397 242 l 29
 442 242 l 6
 449 242 456 224 456 195 c 4
 456 180 447 174 447 174 c 13
 397 174 l 29
 397 4 l 21
 397 4 371 -5 329 -5 c 4
 295 -5 271 -1 271 8 c 6
 271 174 l 29
 17 174 l 21
 9 178 6 186 6 199 c 5
 126 348 244 498 350 630 c 4
 357 638 362 644 370 644 c 4
271 242 m 5
 271 315 271 466 271 466 c 21
 236 421 111 262 92 242 c 5
 85 242 221 242 271 242 c 5
EndSplineSet
Substitution2: "'smcp' Lowercase to Small Capitals in Latin lookup 0 subtable" four.sc
Substitution2: "'c2sc' Capitals to Small Capitals in Latin lookup 0 subtable" four.sc
Substitution2: "'onum' Oldstyle Figures in Latin lookup 3-1" four.onum
EndChar

StartChar: five
Encoding: 53 53 21
Width: 479
Flags: W
HStem: -6 42<170.235 272.032> 328 95<133.819 288> 527 108<156 368.727> 626 20G<390 399.5>
VStem: 311 128<137.052 255.276>
LayerCount: 2
Fore
SplineSet
71 334 m 1xe8
 72 337 119 585 127 635 c 1
 170 635 241 635 305 635 c 0xe8
 347 635 383 643 397 646 c 1xd8
 402 644 410 643 410 632 c 0
 410 615 380 549 373 536 c 1
 282 528 180 527 156 527 c 1
 154 517 133 410 133 410 c 1
 158 416 202 423 239 423 c 0
 337 423 439 335 439 230 c 0
 439 89 305 -6 177 -6 c 0
 112 -6 62 15 42 31 c 1
 35 40 30 64 30 74 c 0
 30 98 48 127 82 127 c 0
 109 127 130 99 146 80 c 0
 164 59 191 36 217 36 c 0
 279 36 311 88 311 178 c 0
 311 269 230 328 173 328 c 0
 110 328 91 318 81 314 c 1
 75 314 71 328 71 334 c 1xe8
EndSplineSet
Substitution2: "'smcp' Lowercase to Small Capitals in Latin lookup 0 subtable" five.sc
Substitution2: "'c2sc' Capitals to Small Capitals in Latin lookup 0 subtable" five.sc
Substitution2: "'onum' Oldstyle Figures in Latin lookup 3-1" five.onum
EndChar

StartChar: six
Encoding: 54 54 22
Width: 501
Flags: W
HStem: -6 42<217.975 295.478> 346 59<200.01 286.393> 619 26<397.02 422.755>
VStem: 45 131<132.653 330.882> 329 131<118.753 295.085>
LayerCount: 2
Fore
SplineSet
176 221 m 4
 176 137 196 36 260 36 c 4
 299 36 329 92 329 182 c 4
 329 267 304 346 233 346 c 4
 221 346 197 341 183 327 c 5
 176 292 176 269 176 221 c 4
424 619 m 5
 298 567 227 481 195 380 c 5
 221 395 252 405 277 405 c 4
 374 405 460 352 460 207 c 4
 460 90 355 -6 249 -6 c 4
 137 -6 45 112 45 242 c 7
 45 353 102 449 161 511 c 4
 247 602 349 636 417 645 c 5
 425 639 426 629 424 619 c 5
EndSplineSet
Substitution2: "'smcp' Lowercase to Small Capitals in Latin lookup 0 subtable" six.sc
Substitution2: "'c2sc' Capitals to Small Capitals in Latin lookup 0 subtable" six.sc
Substitution2: "'onum' Oldstyle Figures in Latin lookup 3-1" six.onum
EndChar

StartChar: seven
Encoding: 55 55 23
Width: 451
Flags: W
HStem: -11 21G<132.5 137> 536 100<89.3025 369>
VStem: 23 36<446.097 495.277>
LayerCount: 2
Fore
SplineSet
355 637 m 2
 390 637 439 641 445 641 c 0
 451 641 452 631 452 626 c 0
 452 617 441 598 425 565 c 2
 153 -8 l 1
 149 -11 138 -11 136 -11 c 0
 129 -11 92 -6 92 13 c 1
 134 73 278 344 369 536 c 1
 308 536 138 536 138 536 c 2
 88 536 72 490 59 452 c 0
 58 449 57 447 47 446 c 0
 37 445 27 450 23 454 c 1
 36 503 60 605 67 636 c 1
 83 636 355 637 355 637 c 2
EndSplineSet
Substitution2: "'smcp' Lowercase to Small Capitals in Latin lookup 0 subtable" seven.sc
Substitution2: "'c2sc' Capitals to Small Capitals in Latin lookup 0 subtable" seven.sc
Substitution2: "'onum' Oldstyle Figures in Latin lookup 3-1" seven.onum
EndChar

StartChar: eight
Encoding: 56 56 24
Width: 521
Flags: W
HStem: -6 42<218.792 317.823> 592 41<216.384 295.608>
VStem: 53 131<70.2294 227.187> 68 129<443.366 553.051> 322 125<420.964 558.947> 341 131<89.4662 186.982>
LayerCount: 2
Fore
SplineSet
266 36 m 3xe4
 315 36 341 73 341 118 c 3
 341 195 260 250 230 272 c 0
 225 276 223 277 221 277 c 0
 219 277 217 278 216 276 c 0
 194 249 184 204 184 156 c 27
 184 99 207 36 266 36 c 3xe4
258 592 m 3
 221 592 197 556 197 512 c 3
 197 443 258 396 283 383 c 0
 286 381 291 378 295 378 c 0
 298 378 300 380 301 381 c 0
 319 408 322 446 322 486 c 3xd8
 322 531 303 592 258 592 c 3
260 633 m 27
 352 633 447 584 447 489 c 3xd8
 447 426 393 375 336 351 c 0
 334 350 334 347 336 346 c 0
 373 324 472 257 472 167 c 3
 472 60 365 -6 258 -6 c 27
 157 -6 53 33 53 153 c 3xe4
 53 236 121 285 181 303 c 0
 183 304 183 305 179 308 c 0
 144 338 68 392 68 486 c 3
 68 574 166 633 260 633 c 27
EndSplineSet
Substitution2: "'smcp' Lowercase to Small Capitals in Latin lookup 0 subtable" eight.sc
Substitution2: "'c2sc' Capitals to Small Capitals in Latin lookup 0 subtable" eight.sc
Substitution2: "'onum' Oldstyle Figures in Latin lookup 3-1" eight.onum
EndChar

StartChar: nine
Encoding: 57 57 25
Width: 501
Flags: W
HStem: -6 26<79.2447 104.98> 234 59<215.607 301.99> 603 42<206.522 284.025>
VStem: 42 131<343.915 520.247> 326 131<308.118 506.347>
LayerCount: 2
Fore
SplineSet
326 418 m 0
 326 502 306 603 242 603 c 0
 203 603 173 547 173 457 c 0
 173 372 198 293 269 293 c 0
 281 293 305 298 319 312 c 1
 326 347 326 370 326 418 c 0
78 20 m 1
 204 72 275 158 307 259 c 1
 281 244 250 234 225 234 c 0
 128 234 42 287 42 432 c 0
 42 549 147 645 253 645 c 0
 365 645 457 527 457 397 c 3
 457 286 400 190 341 128 c 0
 255 37 153 3 85 -6 c 1
 77 0 76 10 78 20 c 1
EndSplineSet
Substitution2: "'smcp' Lowercase to Small Capitals in Latin lookup 0 subtable" nine.sc
Substitution2: "'c2sc' Capitals to Small Capitals in Latin lookup 0 subtable" nine.sc
Substitution2: "'onum' Oldstyle Figures in Latin lookup 3-1" nine.onum
EndChar

StartChar: colon
Encoding: 58 58 26
Width: 260
Flags: W
HStem: -11 150<77.25 181.969> 281 150<77.25 181.969>
VStem: 55 150<12.2802 116 304.28 408>
LayerCount: 2
Fore
SplineSet
205 355 m 4
 205 315 172 281 131 281 c 31
 89 281 55 315 55 358 c 4
 55 398 89 431 130 431 c 31
 172 431 205 395 205 355 c 4
205 63 m 4
 205 23 172 -11 131 -11 c 31
 89 -11 55 23 55 66 c 4
 55 106 89 139 130 139 c 31
 172 139 205 103 205 63 c 4
EndSplineSet
Substitution2: "'smcp' Lowercase to Small Capitals in Latin lookup 0 subtable" colon.sc
EndChar

StartChar: semicolon
Encoding: 59 59 27
Width: 251
Flags: W
HStem: 281 151<71.8889 171.448>
VStem: 47 147<305 409.243> 92 103<-43.687 88.6185>
LayerCount: 2
Fore
SplineSet
47 359 m 0xc0
 47 399 82 432 123 432 c 27
 163 432 194 399 194 359 c 0
 194 319 164 281 123 281 c 27
 81 281 47 319 47 359 c 0xc0
92 -18 m 0xa0
 92 15 61 14 61 62 c 0
 61 78 79 134 141 134 c 0
 149 134 170 134 181 126 c 1
 187 110 195 76 195 52 c 0
 195 30 185 -18 182 -25 c 0
 158 -87 83 -156 53 -168 c 0
 51 -168 l 0
 43 -168 29 -143 29 -134 c 0
 29 -127 92 -95 92 -18 c 0xa0
EndSplineSet
Substitution2: "'smcp' Lowercase to Small Capitals in Latin lookup 0 subtable" semicolon.sc
EndChar

StartChar: less
Encoding: 60 60 28
Width: 495
Flags: W
LayerCount: 2
Fore
SplineSet
444 45 m 0
 444 38 434 -15 428 -15 c 0
 427 -15 425 -14 423 -13 c 2
 48 177 l 2
 33 185 30 200 30 217 c 0
 30 228 38 236 48 241 c 2
 421 428 l 2
 423 429 425 430 426 430 c 0
 429 430 436 410 443 373 c 0
 444 367 440 364 440 364 c 1
 122 209 l 1
 441 51 l 1
 441 51 444 50 444 45 c 0
EndSplineSet
Substitution2: "'smcp' Lowercase to Small Capitals in Latin lookup 0 subtable" less.sc
EndChar

StartChar: equal
Encoding: 61 61 29
Width: 558
Flags: W
HStem: 134 59<78.9133 482.998> 278 59<78.9133 482.998>
LayerCount: 2
Fore
SplineSet
476 134 m 1
 315 134 242 134 70 134 c 1
 58 134 72 188 86 193 c 9
 489 193 l 17
 503 193 490 141 476 134 c 1
476 278 m 1
 315 278 242 278 70 278 c 1
 58 278 72 332 86 337 c 9
 489 337 l 17
 503 337 490 285 476 278 c 1
EndSplineSet
Substitution2: "'smcp' Lowercase to Small Capitals in Latin lookup 0 subtable" equal.sc
EndChar

StartChar: greater
Encoding: 62 62 30
Width: 496
Flags: W
LayerCount: 2
Fore
SplineSet
52 45 m 0
 52 50 55 51 55 51 c 1
 374 209 l 1
 56 364 l 1
 56 364 52 367 53 373 c 0
 60 410 67 430 70 430 c 0
 71 430 73 429 75 428 c 2
 448 241 l 2
 458 236 466 228 466 217 c 0
 466 200 463 185 448 177 c 2
 73 -13 l 2
 71 -14 69 -15 68 -15 c 0
 62 -15 52 38 52 45 c 0
EndSplineSet
Substitution2: "'smcp' Lowercase to Small Capitals in Latin lookup 0 subtable" greater.sc
EndChar

StartChar: question
Encoding: 63 63 31
Width: 399
Flags: W
HStem: -11 150<91.2891 192.25> 580 67<134.5 250.214>
VStem: 67 147<13.4641 117.875> 114 38<196.662 255.523> 280 85<427 549.841>
LayerCount: 2
Fore
SplineSet
67 66 m 4xe8
 67 108 101 139 139 139 c 4
 181 139 214 107 214 66 c 4
 214 25 183 -11 143 -11 c 4
 106 -11 67 21 67 66 c 4xe8
116 518 m 4
 78 518 54 551 54 584 c 4
 54 601 62 624 69 630 c 5
 83 638 110 647 159 647 c 4
 204 647 365 610 365 471 c 4
 365 383 292 349 239 316 c 4
 212 299 174 281 157 256 c 4
 150 246 152 224 152 214 c 5
 150 208 142 196 137 196 c 4
 129 196 118 204 114 208 c 5xd8
 107 224 94 268 94 308 c 4
 94 366 138 398 174 422 c 4
 224 455 280 498 280 532 c 4
 280 553 262 580 226 580 c 4
 190 580 158 518 116 518 c 4
EndSplineSet
Substitution2: "'smcp' Lowercase to Small Capitals in Latin lookup 0 subtable" question.sc
EndChar

StartChar: at
Encoding: 64 64 32
Width: 767
Flags: W
HStem: -124 20<265.434 292> -7 62<486.5 589.258> -5 99<249.5 362> 389 54<394.77 502.5> 538 40<340.048 551.908>
VStem: 46 48<55.6187 284.93> 178 123<99.7792 218.188> 413 122<55.1974 162.287> 688 44<171.217 401.388>
LayerCount: 2
Back
SplineSet
452 578 m 0xdf80
 648 578 746 426 746 270 c 0
 746 117 657 -7 540 -7 c 0xdf80
 491 -7 457 18 457 79 c 0
 457 91 461 117 464 125 c 1
 445 88 381 -5 323 -5 c 3xbf80
 261 -5 228 60 228 130 c 3
 228 276 377 435 514 435 c 0
 549 435 568 429 587 422 c 9
 526 106 l 2
 525 102 523 86 523 81 c 0
 523 49 544 36 571 36 c 0
 634 36 706 142 706 267 c 0
 706 402 626 538 452 538 c 0
 248 538 123 344 123 170 c 0
 123 53 184 -36 256 -78 c 0
 292 -99 312 -103 331 -106 c 1
 331 -114 307 -124 295 -124 c 0
 283 -124 269 -123 256 -118 c 0
 164 -84 83 29 83 170 c 0
 83 366 220 578 452 578 c 0xdf80
472 389 m 3
 395 389 302 266 302 151 c 0
 302 89 318 53 353 53 c 3xbf80
 403 53 474 178 493 274 c 2
 513 376 l 17
 504 386 485 389 472 389 c 3
EndSplineSet
Fore
SplineSet
446 578 m 0xdf80
 642 578 732 446 732 290 c 0
 732 137 628 -7 511 -7 c 0xdf80
 462 -7 413 18 413 79 c 0
 413 87 414 100 417 108 c 1
 398 71 336 -5 275 -5 c 3xbf80
 224 -5 178 16 178 120 c 3
 178 266 343 443 485 443 c 0
 520 443 575 437 594 430 c 9
 538 127 l 2
 537 123 535 107 535 102 c 0
 535 88 531 55 558 55 c 0
 608 55 688 158 688 283 c 0
 688 418 620 538 446 538 c 0
 242 538 94 344 94 170 c 0
 94 53 157 -35 229 -77 c 0
 265 -98 287 -101 306 -104 c 1
 306 -112 282 -124 266 -124 c 0
 249 -124 234 -120 221 -115 c 0
 129 -81 46 24 46 165 c 0
 46 361 214 578 446 578 c 0xdf80
443 389 m 3
 360 389 301 263 301 148 c 0
 301 111 318 94 341 94 c 3xbf80
 383 94 427 164 449 274 c 2
 469 376 l 17
 460 386 456 389 443 389 c 3
EndSplineSet
Substitution2: "'smcp' Lowercase to Small Capitals in Latin lookup 0 subtable" at.sc
EndChar

StartChar: A
Encoding: 65 65 33
Width: 665
Flags: W
HStem: -4 37<137.911 206.862 388.437 449.334 614.823 676.543> 4 29<144.694 203.364> 225 48<207 374.999> 642 20G<335.5 345.5>
LayerCount: 2
Fore
SplineSet
91 134 m 2xb0
 304 624 l 2
 310 637 330 662 341 662 c 0
 350 662 360 658 362 655 c 1
 567 148 l 2
 580 117 586 97 595 76 c 0
 612 35 666 33 674 33 c 1
 679 24 680 0 676 -4 c 1xb0
 636 -2 586 4 542 4 c 0x70
 496 4 427 -2 391 -4 c 1
 386 1 386 33 391 33 c 1
 408 33 436 39 450 51 c 0
 456 56 459 61 459 68 c 0
 459 77 399 220 399 220 c 1
 399 220 395 224 392 224 c 0
 354 226 321 225 296 225 c 0
 255 225 227 225 192 224 c 0
 189 224 186 221 185 219 c 1
 185 219 160 163 149 135 c 0
 139 110 127 74 127 67 c 0
 127 41 196 33 204 33 c 1
 210 26 208 0 205 -4 c 1xb0
 170 0 141 4 97 4 c 0x70
 51 4 23 0 -12 -4 c 1
 -16 0 -18 21 -14 32 c 1
 -2 32 46 48 56 64 c 0
 73 92 79 106 91 134 c 2xb0
209 276 m 0
 229 274 269 273 292 273 c 0
 323 273 341 273 372 275 c 0
 374 275 375 280 375 280 c 1
 292 476 l 1
 207 280 l 1
 207 280 207 276 209 276 c 0
EndSplineSet
Substitution2: "'c2sc' Capitals to Small Capitals in Latin lookup 0 subtable" a.sc
Substitution2: "'c2sc' Capitals to Small Capitals in Latin lookup 0 subtable" a.sc
EndChar

StartChar: B
Encoding: 66 66 34
Width: 615
Flags: W
HStem: -3 42<35.9366 103.641 257.39 379.625> 332 39<249 351.138> 620 40<35.2383 103.348 251.682 354.293>
VStem: 109 140<51.5828 332 371 616.164> 387 148<434.432 579.961> 426 157<112.237 268.147>
LayerCount: 2
Fore
SplineSet
249 547 m 2xf8
 249 371 l 1
 301 371 l 2
 351 371 387 412 387 487 c 0
 387 582 355 620 304 620 c 0
 281 620 259 619 254 608 c 0
 249 596 249 576 249 547 c 2xf8
333 660 m 0
 426 660 535 618 535 502 c 0xf8
 535 422 454 376 427 366 c 0
 419 363 421 360 422 360 c 0
 472 354 583 296 583 192 c 0xf4
 583 126 540 67 478 30 c 0
 419 -5 344 -4 270 -3 c 0
 228 -3 76 -2 37 -3 c 5
 33 3 32 27 37 34 c 5
 50 35 96 38 101 51 c 4
 109 71 109 102 109 145 c 6
 109 513 l 6
 109 556 109 587 101 607 c 4
 96 620 50 622 37 623 c 5
 32 630 33 654 37 660 c 5
 82 657 138 657 180 657 c 0
 222 657 275 660 333 660 c 0
249 332 m 1
 249 109 l 2
 249 103 249 63 257 51 c 0
 265 40 294 39 320 39 c 0
 366 39 426 73 426 176 c 0xf4
 426 251 396 332 301 332 c 2
 249 332 l 1
EndSplineSet
Substitution2: "'c2sc' Capitals to Small Capitals in Latin lookup 0 subtable" b.sc
Substitution2: "'c2sc' Capitals to Small Capitals in Latin lookup 0 subtable" b.sc
EndChar

StartChar: C
Encoding: 67 67 35
Width: 668
Flags: W
HStem: -7 44<325.113 504.021> 624 43<303.986 487.296>
VStem: 35 160<204.574 441.519> 604 35<160.241 196.828>
LayerCount: 2
Fore
SplineSet
639 192 m 1
 639 181 613 46 598 40 c 0
 535 17 471 -7 379 -7 c 4
 191 -7 35 133 35 322 c 4
 35 515 191 667 381 667 c 4
 447 667 530 660 589 648 c 1
 591 637 623 509 623 497 c 0
 623 491 609 482 597 482 c 3
 592 482 587 482 583 486 c 1
 573 525 531 624 390 624 c 4
 249 624 195 492 195 352 c 4
 195 196 259 37 410 37 c 4
 470 37 507 55 534 80 c 0
 576 118 602 196 604 204 c 1
 619 204 631 199 639 192 c 1
EndSplineSet
Substitution2: "'c2sc' Capitals to Small Capitals in Latin lookup 0 subtable" c.sc
Substitution2: "'c2sc' Capitals to Small Capitals in Latin lookup 0 subtable" c.sc
EndChar

StartChar: D
Encoding: 68 68 36
Width: 765
Flags: W
HStem: -3 42<35.9366 103.641 258.411 431.507> 620 40<35.2383 103.348 251.682 405.899>
VStem: 109 140<49.4974 616.164> 558 159<207.017 459.229>
LayerCount: 2
Fore
SplineSet
249 547 m 2
 249 141 l 2
 249 135 249 82 257 62 c 0
 263 48 294 39 320 39 c 0
 483 39 558 130 558 325 c 0
 558 521 452 620 304 620 c 0
 281 620 259 619 254 608 c 0
 249 596 249 576 249 547 c 2
180 657 m 0
 222 657 274 659 333 660 c 0
 564 660 717 541 717 336 c 0
 717 102 542 -3 326 -3 c 0
 284 -3 76 -2 37 -3 c 1
 33 3 32 27 37 34 c 1
 50 35 96 38 101 51 c 0
 109 71 109 102 109 145 c 2
 109 513 l 2
 109 556 109 587 101 607 c 0
 96 620 50 622 37 623 c 1
 32 630 33 654 37 660 c 1
 82 657 138 657 180 657 c 0
EndSplineSet
Substitution2: "'c2sc' Capitals to Small Capitals in Latin lookup 0 subtable" d.sc
Substitution2: "'c2sc' Capitals to Small Capitals in Latin lookup 0 subtable" d.sc
EndChar

StartChar: E
Encoding: 69 69 37
Width: 598
Flags: W
HStem: -3 37<34.7205 101.369> -2 44<256.273 467.133> 310 47<249 396.427> 620 37<35.6465 102.732 252.003 442.441>
VStem: 109 140<50.3979 306.897 358.474 616.164> 433 31<386.617 434.825>
LayerCount: 2
Fore
SplineSet
249 547 m 2xbc
 249 368 l 2
 249 362 270 357 292 357 c 2
 345 357 l 2
 404 357 417 369 433 427 c 0
 434 432 438 435 445 435 c 0
 452 435 461 433 464 430 c 1
 464 238 l 1
 462 236 453 234 446 234 c 0
 439 234 433 237 432 242 c 0
 420 290 406 299 397 303 c 0
 385 308 359 310 321 310 c 0
 293 310 249 308 249 296 c 2
 249 141 l 2
 249 135 249 82 257 62 c 0
 263 48 296 42 322 42 c 0
 388 42 l 2
 426 42 458 52 481 75 c 0
 502 96 518 125 535 170 c 0
 536 174 542 176 549 176 c 0
 559 176 576 173 579 170 c 1
 560 116 532 42 525 -2 c 1x7c
 483 -2 76 -2 37 -3 c 1
 33 3 32 27 37 34 c 1
 50 35 96 38 101 51 c 0
 109 71 109 102 109 145 c 2
 109 513 l 2
 109 556 109 587 101 607 c 0
 96 620 50 622 37 623 c 1
 32 630 33 654 37 660 c 1
 82 657 138 657 180 657 c 0
 222 657 446 663 505 664 c 1
 512 614 525 561 534 516 c 1
 531 513 518 511 511 511 c 0
 504 511 497 514 495 519 c 0
 474 574 448 620 387 620 c 2
 304 620 l 0
 281 620 259 619 254 608 c 0
 249 596 249 576 249 547 c 2xbc
EndSplineSet
Substitution2: "'c2sc' Capitals to Small Capitals in Latin lookup 0 subtable" e.sc
Substitution2: "'c2sc' Capitals to Small Capitals in Latin lookup 0 subtable" e.sc
EndChar

StartChar: F
Encoding: 70 70 38
Width: 544
Flags: W
HStem: -4 37<34.7205 100.998 257.001 323.279> 306 47<249 396.427> 620 37<35.6465 102.732 252.003 442.441>
VStem: 109 140<41.2661 302.897 354.474 616.164> 433 31<382.617 430.825>
LayerCount: 2
Fore
SplineSet
249 547 m 2
 249 364 l 2
 249 358 270 353 292 353 c 2
 345 353 l 2
 404 353 417 365 433 423 c 0
 434 428 438 431 445 431 c 0
 452 431 461 429 464 426 c 1
 464 234 l 1
 462 232 453 230 446 230 c 0
 439 230 433 233 432 238 c 0
 420 286 406 295 397 299 c 0
 385 304 359 306 321 306 c 0
 293 306 249 304 249 292 c 2
 249 145 l 2
 249 102 249 71 257 51 c 0
 262 38 308 34 321 33 c 1
 326 26 325 2 321 -4 c 1
 282 0 220 3 178 3 c 0
 136 3 76 0 37 -4 c 5
 33 2 32 26 37 33 c 5
 50 34 96 38 101 51 c 4
 109 71 109 102 109 145 c 6
 109 513 l 6
 109 556 109 587 101 607 c 4
 96 620 50 622 37 623 c 5
 32 630 33 654 37 660 c 5
 82 657 138 657 180 657 c 0
 222 657 446 663 505 664 c 1
 512 614 525 561 534 516 c 1
 531 513 518 511 511 511 c 0
 504 511 497 514 495 519 c 0
 474 574 448 620 387 620 c 2
 304 620 l 0
 281 620 259 619 254 608 c 0
 249 596 249 576 249 547 c 2
EndSplineSet
Substitution2: "'c2sc' Capitals to Small Capitals in Latin lookup 0 subtable" f.sc
Substitution2: "'c2sc' Capitals to Small Capitals in Latin lookup 0 subtable" f.sc
EndChar

StartChar: G
Encoding: 71 71 39
Width: 714
Flags: W
HStem: -7 43<325.684 489.644> 261 37<419.657 483.882 644.532 699.455> 624 43<303.404 489.806>
VStem: 35 160<205.849 438.124> 494 138<46.6322 247.801>
LayerCount: 2
Fore
SplineSet
489 234 m 0
 482 259 435 261 423 261 c 0
 418 261 417 293 422 298 c 1
 473 296 524 292 575 292 c 0
 617 292 658 296 698 298 c 1
 702 285 700 261 697 261 c 1
 689 261 655 255 644 248 c 0
 638 244 632 224 632 205 c 0
 632 168 632 132 632 98 c 0
 632 89 638 74 638 69 c 0
 638 58 616 48 603 43 c 0
 540 19 471 -7 379 -7 c 0
 190 -7 35 133 35 322 c 0
 35 509 191 667 381 667 c 0
 447 667 530 660 589 648 c 1
 591 637 623 509 623 497 c 0
 623 491 609 482 597 482 c 3
 592 482 587 482 583 486 c 1
 573 525 533 624 392 624 c 0
 244 624 195 487 195 347 c 0
 195 191 266 36 407 36 c 0
 445 36 467 44 485 52 c 0
 489 54 494 58 494 67 c 0
 494 82 494 135 494 183 c 0
 494 203 495 212 489 234 c 0
EndSplineSet
Substitution2: "'c2sc' Capitals to Small Capitals in Latin lookup 0 subtable" g.sc
Substitution2: "'c2sc' Capitals to Small Capitals in Latin lookup 0 subtable" g.sc
EndChar

StartChar: H
Encoding: 72 72 40
Width: 737
Flags: W
HStem: -4 37<34.7205 100.998 257.001 323.279 415.721 481.999 638.002 704.279> 317 51<250.145 490> 625 37<34.7205 100.998 257.001 323.279 415.721 481.999 638.002 704.279>
VStem: 109 140<41.2661 312.952 368.001 616.734> 490 140<41.2661 314.998 368.001 616.734>
LayerCount: 2
Fore
SplineSet
249 309 m 5
 249 145 l 6
 249 102 249 71 257 51 c 4
 262 38 308 34 321 33 c 5
 326 26 325 2 321 -4 c 5
 282 0 220 3 178 3 c 0
 136 3 76 0 37 -4 c 1
 33 2 32 26 37 33 c 1
 50 34 96 38 101 51 c 0
 109 71 109 102 109 145 c 2
 109 513 l 2
 109 556 109 587 101 607 c 0
 96 620 50 624 37 625 c 1
 32 632 33 656 37 662 c 1
 76 658 138 655 180 655 c 0
 222 655 282 658 321 662 c 5
 325 656 326 632 321 625 c 5
 308 624 262 620 257 607 c 4
 249 587 249 556 249 513 c 6
 249 371 l 5
 249 369 251 368 251 368 c 5
 290 367 327 365 372 365 c 0
 409 365 453 367 489 368 c 1
 489 368 491 370 491 372 c 0
 490 513 l 2
 490 556 490 587 482 607 c 0
 477 620 431 624 418 625 c 1
 413 632 414 656 418 662 c 1
 457 658 519 655 561 655 c 0
 603 655 663 658 702 662 c 5
 706 656 707 632 702 625 c 5
 689 624 643 620 638 607 c 4
 630 587 630 556 630 513 c 6
 630 145 l 6
 630 102 630 71 638 51 c 4
 643 38 689 34 702 33 c 5
 707 26 706 2 702 -4 c 5
 663 0 601 3 559 3 c 0
 517 3 457 0 418 -4 c 1
 414 2 413 26 418 33 c 1
 431 34 477 38 482 51 c 0
 490 71 490 102 490 145 c 2
 490 310 l 0
 490 312 488 315 488 315 c 1
 451 316 413 317 372 317 c 0
 261 317 253 315 250 313 c 5
 249 312 249 309 249 309 c 5
EndSplineSet
Substitution2: "'c2sc' Capitals to Small Capitals in Latin lookup 0 subtable" h.sc
Substitution2: "'c2sc' Capitals to Small Capitals in Latin lookup 0 subtable" h.sc
EndChar

StartChar: I
Encoding: 73 73 41
Width: 356
Flags: W
HStem: -4 37<34.7205 100.998 257.001 323.279> 625 37<34.7205 100.998 257.001 323.279>
VStem: 109 140<41.2661 616.734>
LayerCount: 2
Fore
SplineSet
180 655 m 0
 222 655 282 658 321 662 c 5
 325 656 326 632 321 625 c 1
 308 624 262 620 257 607 c 0
 249 587 249 556 249 513 c 2
 249 145 l 2
 249 102 249 71 257 51 c 0
 262 38 308 34 321 33 c 1
 326 26 325 2 321 -4 c 1
 282 0 220 3 178 3 c 0
 136 3 76 0 37 -4 c 1
 33 2 32 26 37 33 c 1
 50 34 96 38 101 51 c 0
 109 71 109 102 109 145 c 2
 109 513 l 2
 109 556 109 587 101 607 c 0
 96 620 50 624 37 625 c 1
 32 632 33 656 37 662 c 1
 76 658 138 655 180 655 c 0
EndSplineSet
Substitution2: "'c2sc' Capitals to Small Capitals in Latin lookup 0 subtable" i.sc
Substitution2: "'c2sc' Capitals to Small Capitals in Latin lookup 0 subtable" i.sc
EndChar

StartChar: J
Encoding: 74 74 42
Width: 335
Flags: W
HStem: -218 61<-69.5 57.2742> 625 37<21.7205 87.9985 244.001 310.279>
VStem: 96 140<-9.59375 616.734>
LayerCount: 2
Fore
SplineSet
96 513 m 2
 96 556 96 587 88 607 c 0
 83 620 37 624 24 625 c 1
 19 632 20 656 24 662 c 1
 63 658 125 655 167 655 c 0
 209 655 269 658 308 662 c 1
 312 656 313 632 308 625 c 1
 295 624 249 620 244 607 c 0
 236 587 236 556 236 513 c 2
 236 143 l 6
 236 -85 122 -218 -60 -218 c 7
 -79 -218 -108 -207 -117 -200 c 5
 -124 -189 -133 -178 -133 -157 c 7
 -133 -123 -105 -90 -73 -90 c 7
 -28 -90 0 -157 31 -157 c 7
 94 -157 96 -31 96 135 c 6
 96 513 l 2
EndSplineSet
Substitution2: "'c2sc' Capitals to Small Capitals in Latin lookup 0 subtable" j.sc
Substitution2: "'c2sc' Capitals to Small Capitals in Latin lookup 0 subtable" j.sc
EndChar

StartChar: K
Encoding: 75 75 43
Width: 713
Flags: W
HStem: -4 37<35.6465 99.3225 257.818 322.354 661.752 729.721> 625 37<34.7205 100.998 257.001 323.279 434.555 492.525 609.944 689.298>
VStem: 109 140<41.2661 305.999 337 616.734>
LayerCount: 2
Back
SplineSet
588 72 m 4
 613 49 642 30 697 26 c 5
 702 21 697 -1 696 -3 c 5
 629 -3 574 1 554 8 c 4
 540 13 514 23 486 51 c 4
 465 72 374 175 261 304 c 4
 259 307 256 307 252 307 c 4
 249 307 245 306 243 305 c 5
 243 116 l 6
 243 86 243 58 248 42 c 4
 251 31 305 26 317 26 c 5
 321 21 322 2 317 -3 c 5
 276 -1 239 2 200 2 c 4
 161 2 123 -1 82 -3 c 5
 77 2 78 21 82 26 c 5
 94 26 148 31 151 42 c 4
 156 58 156 86 156 116 c 6
 156 543 l 6
 156 573 156 601 151 617 c 4
 148 628 94 633 82 633 c 5
 78 638 77 657 82 662 c 5
 123 660 161 657 200 657 c 4
 239 657 276 660 317 662 c 5
 322 657 321 638 317 633 c 5
 305 633 251 628 248 617 c 4
 243 601 243 573 243 543 c 6
 243 340 l 5
 264 353 315 399 356 439 c 4
 434 516 436 515 483 576 c 4
 489 584 497 597 497 607 c 4
 497 632 450 632 441 632 c 5
 438 638 438 653 441 662 c 5
 478 660 519 656 556 656 c 4
 600 656 624 660 664 662 c 5
 666 656 667 632 662 632 c 4
 653 631 597 632 563 595 c 4
 477 501 421 450 334 366 c 4
 328 360 332 355 336 350 c 4
 432 238 511 145 588 72 c 4
EndSplineSet
Fore
SplineSet
180 655 m 0
 222 655 282 658 321 662 c 1
 325 656 326 632 321 625 c 1
 308 624 262 620 257 607 c 0
 249 587 249 556 249 513 c 2
 249 337 l 1
 293 372 329 403 353 428 c 0
 413 489 441 514 483 570 c 0
 493 583 493 596 493 603 c 0
 493 624 451 626 437 626 c 1
 432 634 432 653 435 662 c 1
 472 660 528 655 565 655 c 0
 609 655 652 658 689 662 c 1
 692 655 692 633 687 627 c 1
 678 626 610 619 574 583 c 2
 574 583 461 468 386 389 c 0
 380 382 380 378 383 373 c 4
 456 275 563 130 563 130 c 5
 637 36 721 33 729 33 c 5
 734 26 730 -2 729 -4 c 5
 700 -6 639 -8 598 -8 c 4
 521 -8 470 33 445 67 c 4
 419 103 313 243 269 302 c 4
 266 305 261 306 259 306 c 0
 255 306 251 304 249 300 c 1
 249 145 l 2
 249 102 249 71 257 51 c 0
 262 38 308 34 321 33 c 1
 326 26 325 2 321 -4 c 1
 282 0 220 3 178 3 c 0
 136 3 76 0 37 -4 c 1
 33 2 32 26 37 33 c 1
 50 34 96 38 101 51 c 0
 109 71 109 102 109 145 c 2
 109 513 l 2
 109 556 109 587 101 607 c 0
 96 620 50 624 37 625 c 1
 32 632 33 656 37 662 c 1
 76 658 138 655 180 655 c 0
EndSplineSet
Substitution2: "'c2sc' Capitals to Small Capitals in Latin lookup 0 subtable" k.sc
Substitution2: "'c2sc' Capitals to Small Capitals in Latin lookup 0 subtable" k.sc
EndChar

StartChar: L
Encoding: 76 76 44
Width: 573
Flags: W
HStem: -3 37<34.7205 101.369> -2 44<256.273 467.133> 625 37<34.7205 100.998 257.001 323.279>
VStem: 109 140<50.3979 616.734>
LayerCount: 2
Fore
SplineSet
249 141 m 2xb0
 249 135 249 82 257 62 c 0
 263 48 296 42 322 42 c 0
 388 42 l 2
 426 42 458 52 481 75 c 0
 502 96 518 125 535 170 c 0
 536 174 542 176 549 176 c 0
 559 176 576 173 579 170 c 1
 560 116 532 42 525 -2 c 1x70
 483 -2 76 -2 37 -3 c 1
 33 3 32 27 37 34 c 1
 50 35 96 38 101 51 c 0
 109 71 109 102 109 145 c 2
 109 513 l 2
 109 556 109 587 101 607 c 0
 96 620 50 624 37 625 c 1
 32 632 33 656 37 662 c 1
 76 658 138 655 180 655 c 0
 222 655 282 658 321 662 c 1
 325 656 326 632 321 625 c 1
 308 624 262 620 257 607 c 0
 249 587 249 556 249 513 c 2
 249 141 l 2xb0
EndSplineSet
Substitution2: "'c2sc' Capitals to Small Capitals in Latin lookup 0 subtable" l.sc
Substitution2: "'c2sc' Capitals to Small Capitals in Latin lookup 0 subtable" l.sc
EndChar

StartChar: M
Encoding: 77 77 45
Width: 897
Flags: W
HStem: -4 37<15.8338 84.2039 193 266.893 582.466 650.51 813.702 878.184> 625 37<59.1049 122.299 799.486 850.193>
LayerCount: 2
Back
SplineSet
170 157 m 2
 170.264 121 176 74 181 60 c 0
 188 41 255 34 263 34 c 1
 269 24 267 2 265 -4 c 1
 225 -2 183 4 139 4 c 0
 93 4 63 -2 17 -4 c 1
 12 5 15 33 17 33 c 1
 29 33 89 41 97 59 c 0
 104 74 109 122 109 160 c 0
EndSplineSet
Fore
SplineSet
169 656 m 0
 203 656 234 660 274 662 c 1
 303 598 388 408 463 238 c 1
 463 238 466 236 467 236 c 0
 468 236 471 241 471 242 c 2
 471 242 545 426 589 546 c 24
 604 589 622 658 622 658 c 1
 631 657 684 656 703 656 c 0
 737 656 807 660 847 662 c 5
 851 658 856 632 851 624 c 1
 843 624 809 620 799 613 c 0
 789 606 784 599 785 572 c 0
 788 502 794 280 800 152 c 0
 802 113 803 77 813 51 c 0
 819 37 868 33 876 33 c 1
 880 24 881 6 878 -4 c 1
 838 -2 786 4 742 4 c 0
 696 4 631 -2 585 -4 c 1
 581 0 580 25 583 33 c 1
 595 33 644 38 653 52 c 0
 658 60 661 77 661 87 c 0
 661 97 661 130 660 148 c 2
 651 456 l 2
 650 473 650 523 643 523 c 0
 641 523 640 521 638 516 c 2
 462 40 l 2
 459 31 437 -2 419 -2 c 0
 416 -2 413 -1 410 0 c 1
 187 523 l 1
 180 315 180 291 174 134 c 0
 173 112 176 72 178 65 c 0
 184 44 257 33 265 33 c 1
 268 26 270 6 267 -4 c 1
 227 -2 187 4 143 4 c 0
 97 4 64 -2 18 -4 c 1
 14 3 14 22 17 32 c 1
 29 32 91 42 102 68 c 0
 106 78 113 140 114 156 c 0
 120 273 129 534 131 581 c 0
 131 588 131 596 126 603 c 0
 118 614 78 625 61 625 c 1
 55 633 59 660 61 662 c 1
 107 660 123 656 169 656 c 0
EndSplineSet
Substitution2: "'c2sc' Capitals to Small Capitals in Latin lookup 0 subtable" m.sc
Substitution2: "'c2sc' Capitals to Small Capitals in Latin lookup 0 subtable" m.sc
EndChar

StartChar: N
Encoding: 78 78 46
Width: 754
Flags: W
HStem: -4 37<27.2754 100.714 201.647 277.584> 625 38<33.4448 100.205 486.275 566.935 654.666 736.584> 625 30<36.4568 95.5193>
VStem: 121 61<49.9165 518.032> 580 61<248.338 612.714>
LayerCount: 2
Fore
SplineSet
148 655 m 0xb8
 183 655 225 658 257 662 c 1
 295 584 455 401 578 248 c 1
 580 255 580 275 580 289 c 2
 580 476 l 0
 580 514 576 589 569 604 c 0
 561 622 500 626 488 626 c 1
 486 626 483 654 488 663 c 1xd8
 534 661 564 655 610 655 c 0xb8
 654 655 696 661 736 663 c 1
 738 657 740 635 734 625 c 1
 726 625 659 623 651 602 c 0
 646 588 641 515 641 479 c 2
 641 139 l 2
 641 81 643 51 645 -1 c 1
 642 -4 623 -5 620 -5 c 0
 611 -5 599 5 589 18 c 2
 182 519 l 1
 182 157 l 6
 182 121 188 74 193 60 c 4
 200 41 267 34 275 34 c 5
 281 24 279 2 277 -4 c 5
 237 -2 195 4 151 4 c 4
 105 4 75 -2 29 -4 c 5
 24 5 27 33 29 33 c 5
 41 33 101 41 109 59 c 4
 116 74 121 122 121 160 c 4
 121 291 121 383 121 514 c 0
 121 542 116 585 103 604 c 0
 94 617 49 625 37 625 c 0xd8
 32 625 30 657 35 662 c 1
 66 660 102 655 148 655 c 0xb8
EndSplineSet
Substitution2: "'c2sc' Capitals to Small Capitals in Latin lookup 0 subtable" n.sc
Substitution2: "'c2sc' Capitals to Small Capitals in Latin lookup 0 subtable" n.sc
EndChar

StartChar: O
Encoding: 79 79 47
Width: 750
Flags: W
HStem: -10 43<317.356 465.535> 624 43<283.38 431.304>
VStem: 35 160<211.696 443.97> 555 160<211.714 444.117>
LayerCount: 2
Fore
SplineSet
351 624 m 3
 233 624 195 484 195 363 c 3
 195 210 247 33 396 33 c 3
 515 33 555 171 555 292 c 3
 555 445 500 624 351 624 c 3
375 667 m 0
 551 667 715 515 715 328 c 0
 715 141 551 -10 375 -10 c 0
 199 -10 35 141 35 328 c 0
 35 515 199 667 375 667 c 0
EndSplineSet
Substitution2: "'c2sc' Capitals to Small Capitals in Latin lookup 0 subtable" o.sc
Substitution2: "'c2sc' Capitals to Small Capitals in Latin lookup 0 subtable" o.sc
EndChar

StartChar: P
Encoding: 80 80 48
Width: 577
Flags: W
HStem: -4 37<34.7205 100.998 257.001 323.279> 287 51<294.633 378.149> 620 40<35.2383 103.348 251.682 357.182>
VStem: 109 140<41.2661 616.164> 415 149<391.288 558.828>
LayerCount: 2
Fore
SplineSet
180 657 m 0
 222 657 275 660 334 660 c 0
 459 660 564 596 564 482 c 0
 564 362 464 287 363 287 c 0
 327 287 301 303 294 310 c 0
 288 316 283 342 290 342 c 1
 300 339 316 338 331 338 c 0
 380 338 415 391 415 468 c 0
 415 547 371 620 304 620 c 0
 281 620 259 619 254 608 c 0
 249 596 249 576 249 547 c 2
 249 145 l 2
 249 102 249 71 257 51 c 0
 262 38 308 34 321 33 c 1
 326 26 325 2 321 -4 c 1
 282 0 220 3 178 3 c 0
 136 3 76 0 37 -4 c 1
 33 2 32 26 37 33 c 1
 50 34 96 38 101 51 c 0
 109 71 109 102 109 145 c 2
 109 513 l 2
 109 556 109 587 101 607 c 0
 96 620 50 622 37 623 c 1
 32 630 33 654 37 660 c 1
 82 657 138 657 180 657 c 0
EndSplineSet
Substitution2: "'c2sc' Capitals to Small Capitals in Latin lookup 0 subtable" p.sc
Substitution2: "'c2sc' Capitals to Small Capitals in Latin lookup 0 subtable" p.sc
EndChar

StartChar: Q
Encoding: 81 81 49
Width: 747
Flags: W
HStem: -143 69<534.354 711.078> 624 43<283.38 431.304>
VStem: 35 160<213.589 443.97> 555 160<213.119 444.117>
LayerCount: 2
Fore
SplineSet
375 667 m 0
 551 667 715 515 715 328 c 0
 715 178 609 51 477 7 c 1
 569 -38 598 -74 700 -74 c 0
 740 -74 770 -65 777 -65 c 0
 785 -65 788 -74 788 -84 c 2
 788 -89 l 1
 733 -118 652 -143 591 -143 c 0
 481 -143 404 -33 296 0 c 0
 152 38 35 170 35 328 c 0
 35 515 199 667 375 667 c 0
351 624 m 0
 233 624 195 484 195 363 c 0
 195 210 247 33 396 33 c 0
 515 33 555 171 555 292 c 0
 555 445 500 624 351 624 c 0
EndSplineSet
Substitution2: "'c2sc' Capitals to Small Capitals in Latin lookup 0 subtable" q.sc
Substitution2: "'c2sc' Capitals to Small Capitals in Latin lookup 0 subtable" q.sc
EndChar

StartChar: R
Encoding: 82 82 50
Width: 687
Flags: W
HStem: -4 37<35.6465 99.3225 257.818 322.354 660.752 728.721> 299 39<249 284.531> 620 40<35.2383 103.348 251.682 362.699>
VStem: 109 140<41.2661 299 338 616.164> 404 149<406.517 566.818>
LayerCount: 2
Fore
SplineSet
334 660 m 0
 459 660 553 598 553 478 c 0
 553 396 465 328 417 316 c 1
 490 218 562 130 562 130 c 1
 636 36 720 33 728 33 c 1
 733 26 729 -2 728 -4 c 1
 699 -6 638 -8 597 -8 c 0
 520 -8 469 33 444 67 c 0
 282 284 l 0
 282 284 272 299 264 299 c 0
 257 299 249 299 249 299 c 9
 249 145 l 2
 249 102 249 71 257 51 c 0
 262 38 308 34 321 33 c 1
 326 26 325 2 321 -4 c 1
 282 0 220 3 178 3 c 0
 136 3 76 0 37 -4 c 1
 33 2 32 26 37 33 c 1
 50 34 96 38 101 51 c 0
 109 71 109 102 109 145 c 2
 109 513 l 2
 109 556 109 587 101 607 c 0
 96 620 50 622 37 623 c 1
 32 630 33 654 37 660 c 1
 82 657 138 657 180 657 c 0
 222 657 275 660 334 660 c 0
404 468 m 0
 404 547 386 620 304 620 c 0
 281 620 259 619 254 608 c 0
 249 596 249 576 249 547 c 2
 249 338 l 17
 295 338 l 0
 352 338 404 391 404 468 c 0
EndSplineSet
Substitution2: "'c2sc' Capitals to Small Capitals in Latin lookup 0 subtable" r.sc
Substitution2: "'c2sc' Capitals to Small Capitals in Latin lookup 0 subtable" r.sc
EndChar

StartChar: S
Encoding: 83 83 51
Width: 518
Flags: W
HStem: -10 42<184.098 315.967> 628 42<211.864 328.921>
VStem: 46 42<137.613 197.961> 53 133<484.422 565.673> 347 131<94.5926 187.223> 404 41<470.077 538.743>
LayerCount: 2
Fore
SplineSet
250 32 m 0xe8
 301 32 347 58 347 129 c 0xe8
 347 200 249 258 199 292 c 0
 126 341 53 385 53 489 c 0
 53 592 163 670 266 670 c 0
 325 670 373 655 434 642 c 1
 439 589 442 537 445 476 c 1
 442 472 438 470 434 470 c 0
 431 470 406 469 404 477 c 0
 396 533 348 628 271 628 c 0
 232 628 186 608 186 541 c 0xd4
 186 479 270 422 331 381 c 0
 397 337 478 294 478 175 c 0
 478 65 370 -10 260 -10 c 0
 201 -10 130 2 70 16 c 1
 60 60 48 158 46 186 c 1
 50 192 70 200 75 200 c 0
 82 200 87 198 88 192 c 0
 97 138 160 32 250 32 c 0xe8
EndSplineSet
Substitution2: "'c2sc' Capitals to Small Capitals in Latin lookup 0 subtable" s.sc
Substitution2: "'c2sc' Capitals to Small Capitals in Latin lookup 0 subtable" s.sc
EndChar

StartChar: T
Encoding: 84 84 52
Width: 630
Flags: W
HStem: -4 37<170.721 236.999 393.001 459.279> 613 44<100.634 245 385 529.366>
VStem: 6 39<482.931 537.849> 245 140<41.2661 613> 585 39<482.931 537.849>
CounterMasks: 1 38
LayerCount: 2
Fore
SplineSet
481 657 m 0
 553 657 567 676 585 676 c 0
 593 676 593 675 597 673 c 1
 624 489 l 1
 621 486 604 482 595 482 c 0
 590 482 586 483 585 487 c 0
 575 552 529 613 478 613 c 2
 385 613 l 1
 385 145 l 2
 385 102 385 71 393 51 c 0
 398 38 444 34 457 33 c 1
 462 26 461 2 457 -4 c 1
 418 0 356 3 314 3 c 0
 272 3 212 0 173 -4 c 1
 169 2 168 26 173 33 c 1
 186 34 232 38 237 51 c 0
 245 71 245 102 245 145 c 2
 245 613 l 1
 152 613 l 2
 101 613 55 552 45 487 c 0
 44 483 40 482 35 482 c 0
 26 482 9 486 6 489 c 1
 33 673 l 1
 37 675 37 676 45 676 c 0
 63 676 77 657 149 657 c 0
 238 657 392 657 481 657 c 0
EndSplineSet
Substitution2: "'c2sc' Capitals to Small Capitals in Latin lookup 0 subtable" t.sc
Substitution2: "'c2sc' Capitals to Small Capitals in Latin lookup 0 subtable" t.sc
EndChar

StartChar: U
Encoding: 85 85 53
Width: 746
Flags: W
HStem: -9 72<319.729 474.851> 625 37<17.7205 83.9985 240.001 306.279 479.721 552.838 651.229 726.279>
VStem: 92 140<166.436 616.734> 571 62<175.49 609.521>
LayerCount: 2
Fore
SplineSet
633 480 m 2
 633 286 l 2
 633 82 503 -9 359 -9 c 0
 275 -9 196 19 148 79 c 0
 109 128 92 197 92 301 c 2
 92 513 l 2
 92 556 92 587 84 607 c 0
 79 620 33 624 20 625 c 1
 15 632 16 656 20 662 c 1
 59 658 121 655 163 655 c 0
 205 655 265 658 304 662 c 1
 308 656 309 632 304 625 c 1
 291 624 245 620 240 607 c 0
 232 587 232 556 232 513 c 2
 232 330 l 2
 232 262 234 212 257 159 c 0
 295 71 370 63 409 63 c 0
 489 63 571 134 571 309 c 2
 571 479 l 2
 571 522 565 581 557 601 c 0
 549 620 495 624 482 625 c 1
 477 632 478 656 482 662 c 1
 529 658 561 655 607 655 c 0
 651 655 683 660 724 662 c 1
 728 656 729 632 724 625 c 1
 711 624 655 622 647 601 c 0
 639 581 633 523 633 480 c 2
EndSplineSet
Substitution2: "'c2sc' Capitals to Small Capitals in Latin lookup 0 subtable" u.sc
Substitution2: "'c2sc' Capitals to Small Capitals in Latin lookup 0 subtable" u.sc
EndChar

StartChar: V
Encoding: 86 86 54
Width: 678
Flags: W
HStem: -11 21G<325.5 336> 625 37<-7.27949 50.2392 220.617 281.279 462.721 542.096 626.004 698.279>
LayerCount: 2
Fore
SplineSet
545 601 m 0
 545 619 478 624 465 625 c 1
 460 632 461 656 465 662 c 1
 512 658 538 655 584 655 c 0
 628 655 655 660 696 662 c 1
 700 656 701 632 696 625 c 1
 683 624 638 623 626 607 c 0
 611 587 599 557 585 524 c 0
 503 323 455 215 378 30 c 0
 370 12 342 -11 330 -11 c 0
 321 -11 321 -4 316 3 c 1
 98 510 l 2
 86 539 72 572 63 592 c 0
 51 618 8 624 -5 625 c 1
 -10 632 -9 656 -5 662 c 1
 34 658 96 655 138 655 c 0
 180 655 240 658 279 662 c 1
 283 656 284 632 279 625 c 1
 266 624 218 623 218 598 c 0
 218 582 230 551 242 523 c 0
 300 390 391 186 391 186 c 1
 391 186 513 493 523 521 c 0
 532 547 545 580 545 601 c 0
EndSplineSet
Substitution2: "'c2sc' Capitals to Small Capitals in Latin lookup 0 subtable" v.sc
Substitution2: "'c2sc' Capitals to Small Capitals in Latin lookup 0 subtable" v.sc
EndChar

StartChar: W
Encoding: 87 87 55
Width: 943
Flags: W
HStem: -11 21G<291.5 302 637.5 648> 625 37<-8.40566 49.2392 219.617 280.279 723.721 801.182 887.004 959.279>
LayerCount: 2
Back
SplineSet
198 657 m 0
 242 657 266 660 306 662 c 1
 308 656 308 634 304 633 c 1
 296 633 244 628 244 600 c 1
 244 578 309 362 368 161 c 1
 370 153 376 158 378 163 c 0
 425 318 466 454 518 629 c 4
 524 648 543 662 554 662 c 4
 558 662 561 657 566 646 c 5
 573 624 661 360 728 161 c 1
 730 153 737 158 738 163 c 0
 781 316 801 383 838 524 c 0
 844 548 850 576 850 594 c 0
 850 626 794 633 782 633 c 1
 777 635 777 657 782 662 c 1
 819 660 853 657 890 657 c 0
 936 657 948 660 988 662 c 1
 991 657 989 633 986 633 c 1
 978 633 942 624 922 607 c 0
 908 595 898 572 886 531 c 0
 831 342 793 211 740 32 c 0
 735 14 715 -2 702 -2 c 0
 698 -2 693 10 692 14 c 0
 629 202 593 303 526 498 c 5
 525 501 523 502 520 499 c 5
 464 315 431 209 378 32 c 0
 373 14 353 -2 340 -2 c 0
 336 -2 331 10 330 14 c 0
 272 199 231 335 170 532 c 0
 158 572 153 595 134 613 c 0
 120 626 88 633 76 633 c 1
 74 633 74 660 76 662 c 1
 122 660 152 657 198 657 c 0
EndSplineSet
Fore
SplineSet
-6 625 m 1
 -12 632 -10 656 -6 662 c 1
 33 658 95 655 137 655 c 0
 179 655 239 658 278 662 c 1
 282 656 283 632 278 625 c 1
 265 624 217 623 217 598 c 0
 217 582 230 552 241 523 c 0
 285 401 339 251 339 251 c 1
 339 251 448 560 472 625 c 0
 479 644 492 662 503 662 c 0
 507 662 511 657 515 646 c 0
 581 478 686 214 686 214 c 1
 686 214 774 489 784 521 c 0
 792 547 804 580 804 601 c 0
 804 619 739 624 726 625 c 1
 721 632 722 656 726 662 c 1
 773 658 799 655 845 655 c 0
 889 655 916 660 957 662 c 1
 961 656 962 632 957 625 c 1
 944 624 899 623 887 607 c 0
 872 587 857 559 846 524 c 0
 784 335 745 225 682 40 c 0
 673 15 654 -11 642 -11 c 0
 633 -11 628 -4 623 3 c 1
 458 418 l 1
 458 418 380 188 331 44 c 0
 327 33 308 -11 296 -11 c 0
 287 -11 282 -4 277 3 c 1
 97 510 l 2
 87 540 71 572 62 592 c 0
 50 618 7 624 -6 625 c 1
EndSplineSet
Substitution2: "'c2sc' Capitals to Small Capitals in Latin lookup 0 subtable" w.sc
Substitution2: "'c2sc' Capitals to Small Capitals in Latin lookup 0 subtable" w.sc
EndChar

StartChar: X
Encoding: 88 88 56
Width: 703
Flags: W
HStem: -4 37<-11.5635 66.4 173.75 250.856 387.445 442.092 639.162 709.041> 625 37<13.4365 83.3235 261.606 316.998 435.657 505.395 621.419 692.64>
LayerCount: 2
Fore
SplineSet
172 656 m 0
 221 656 276 660 316 662 c 1
 318 656 319 625 314 625 c 1
 300 625 262 619 261 604 c 0
 261 598 265 588 269 582 c 2
 380 414 l 1
 430 478 513 571 513 594 c 0
 513 611 473 625 439 625 c 1
 434 625 433 657 438 662 c 1
 473 658 534 655 571 655 c 0
 623 655 662 658 691 662 c 1
 694 656 695 625 690 625 c 1
 682 625 621 623 578 572 c 2
 407 369 l 1
 491 242 593 93 608 76 c 0
 637 41 693 33 707 33 c 1
 711 24 712 4 707 -4 c 1
 667 -2 588 2 547 2 c 0
 491 2 445 -2 389 -4 c 1
 384 1 386 33 391 33 c 0
 402 33 447 43 447 61 c 0
 447 64 446 69 444 72 c 2
 311 273 l 1
 293 249 165 83 165 66 c 0
 165 42 218 33 248 33 c 1
 253 26 254 7 251 -4 c 1
 218 -2 156 2 119 2 c 0
 67 2 31 -2 -9 -4 c 1
 -14 2 -14 26 -9 33 c 1
 -1 33 68 35 100 79 c 2
 278 322 l 1
 138 537 l 2
 120 564 98 600 84 610 c 0
 70 620 28 625 16 625 c 1
 11 625 11 657 16 662 c 1
 65 660 123 656 172 656 c 0
EndSplineSet
Substitution2: "'c2sc' Capitals to Small Capitals in Latin lookup 0 subtable" x.sc
Substitution2: "'c2sc' Capitals to Small Capitals in Latin lookup 0 subtable" x.sc
EndChar

StartChar: Y
Encoding: 89 89 57
Width: 614
Flags: W
HStem: -4 37<153.721 219.999 376.001 442.279> 625 37<-4.27949 52.0027 223.617 284.279 402.721 476.354 561.951 632.279>
VStem: 228 140<41.2661 325.418>
LayerCount: 2
Fore
SplineSet
228 145 m 2
 228 289 l 2
 228 304 97 537 97 537 c 2
 82 565 78 572 66 592 c 0
 51 617 11 624 -2 625 c 1
 -7 632 -6 656 -2 662 c 1
 37 658 99 655 141 655 c 0
 183 655 243 658 282 662 c 1
 286 656 287 632 282 625 c 1
 269 624 221 623 221 598 c 0
 221 594 224 589 228 582 c 2
 348 361 l 1
 353 356 431 498 474 578 c 0
 478 586 479 594 479 601 c 0
 479 619 418 624 405 625 c 1
 400 632 401 656 405 662 c 1
 452 658 472 655 518 655 c 0
 562 655 589 660 630 662 c 1
 634 656 635 632 630 625 c 1
 617 624 571 623 556 600 c 0
 534 567 369 303 369 284 c 2
 368 145 l 2
 368 102 368 71 376 51 c 0
 381 38 427 34 440 33 c 1
 445 26 444 2 440 -4 c 1
 401 0 339 3 297 3 c 0
 255 3 195 0 156 -4 c 1
 152 2 151 26 156 33 c 1
 169 34 215 38 220 51 c 0
 228 71 228 102 228 145 c 2
EndSplineSet
Substitution2: "'c2sc' Capitals to Small Capitals in Latin lookup 0 subtable" y.sc
Substitution2: "'c2sc' Capitals to Small Capitals in Latin lookup 0 subtable" y.sc
EndChar

StartChar: Z
Encoding: 90 90 58
Width: 634
Flags: W
HStem: 0 47<202 497.681> 610 46<150.299 408.875> 642 20G<73 86 539 583>
LayerCount: 2
Fore
SplineSet
556 1 m 1xc0
 514 1 46 0 46 0 c 1
 40 3 28 20 28 34 c 0
 28 37 28 39 31 43 c 2
 412 610 l 1
 229 610 l 0xc0
 123 609 107 536 84 474 c 0
 83 471 81 468 71 468 c 0
 60 468 45 470 42 473 c 1
 53 531 68 598 78 662 c 1xa0
 94 658 226 656 240 656 c 2
 349 656 l 2
 433 656 497 660 581 666 c 1
 585 665 591 643 591 633 c 1
 589 625 202 47 202 47 c 17
 217 47 418 47 418 47 c 2
 456 47 490 59 513 82 c 0
 534 103 549 125 566 170 c 0
 567 174 573 176 580 176 c 0
 590 176 607 173 610 170 c 1
 594 117 565 44 556 1 c 1xc0
EndSplineSet
Substitution2: "'c2sc' Capitals to Small Capitals in Latin lookup 0 subtable" z.sc
Substitution2: "'c2sc' Capitals to Small Capitals in Latin lookup 0 subtable" z.sc
EndChar

StartChar: bracketleft
Encoding: 91 91 59
Width: 305
Flags: W
VStem: 75 107<-80.0317 728.032>
LayerCount: 2
Fore
SplineSet
94 770 m 0
 197 770 263 779 299 786 c 1
 301 786 305 783 305 777 c 0
 305 764 297 752 295 751 c 0
 265 736 209 730 182 724 c 9
 182 -76 l 1
 209 -82 265 -88 295 -103 c 0
 297 -104 305 -116 305 -129 c 0
 305 -135 301 -138 299 -138 c 1
 263 -131 197 -122 94 -122 c 0
 81 -121 75 -110 75 -99 c 0
 75 747 l 0
 75 758 81 769 94 770 c 0
EndSplineSet
Substitution2: "'smcp' Lowercase to Small Capitals in Latin lookup 0 subtable" bracketleft.sc
Substitution2: "'c2sc' Capitals to Small Capitals in Latin lookup 0 subtable" bracketleft.taboldstyle
EndChar

StartChar: backslash
Encoding: 92 92 60
Width: 419
Flags: W
LayerCount: 2
Fore
SplineSet
84 745 m 2
 84 745 390 -20 390 -26 c 1
 389 -30 376 -36 362 -36 c 0
 354 -36 338 -32 332 -18 c 0
 215 277 118 526 27 755 c 1
 31 760 38 761 46 761 c 0
 70 761 81 753 84 745 c 2
EndSplineSet
Substitution2: "'smcp' Lowercase to Small Capitals in Latin lookup 0 subtable" backslash.sc
Substitution2: "'c2sc' Capitals to Small Capitals in Latin lookup 0 subtable" backslash.taboldstyle
EndChar

StartChar: bracketright
Encoding: 93 93 61
Width: 305
Flags: W
VStem: 124 107<-80.0317 728.032>
LayerCount: 2
Fore
SplineSet
212 770 m 0
 225 769 231 758 231 747 c 0
 231 -99 l 0
 231 -110 225 -121 212 -122 c 0
 109 -122 43 -131 7 -138 c 1
 5 -138 1 -135 1 -129 c 0
 1 -116 9 -104 11 -103 c 0
 41 -88 97 -82 124 -76 c 1
 124 724 l 17
 97 730 41 736 11 751 c 0
 9 752 1 764 1 777 c 0
 1 783 5 786 7 786 c 1
 43 779 109 770 212 770 c 0
EndSplineSet
Substitution2: "'smcp' Lowercase to Small Capitals in Latin lookup 0 subtable" bracketright.sc
Substitution2: "'c2sc' Capitals to Small Capitals in Latin lookup 0 subtable" bracketright.taboldstyle
EndChar

StartChar: asciicircum
Encoding: 94 94 62
Width: 391
Flags: W
HStem: 419 250
VStem: 38 295
LayerCount: 2
Fore
SplineSet
186 669 m 0
 192 669 201 664 206 655 c 0
 257 566 279 521 333 437 c 1
 333 426 322 419 314 419 c 1
 256 473 186 556 186 556 c 25
 186 556 116 473 58 419 c 1
 50 419 38 426 38 437 c 1
 92 521 116 566 167 655 c 0
 172 664 180 669 186 669 c 0
EndSplineSet
Substitution2: "'smcp' Lowercase to Small Capitals in Latin lookup 0 subtable" asciicircum.sc
EndChar

StartChar: underscore
Encoding: 95 95 63
Width: 494
Flags: W
HStem: -43 56<11.9907 470.32>
LayerCount: 2
Fore
SplineSet
8 -33 m 1
 8 -33 13 13 23 13 c 2
 472 13 l 2
 474 13 476 12 476 8 c 0
 476 -1 472 -15 466 -37 c 0
 464 -43 460 -43 460 -43 c 1
 15 -43 l 1
 15 -43 8 -43 8 -33 c 1
EndSplineSet
EndChar

StartChar: grave
Encoding: 96 96 64
Width: 249
Flags: W
HStem: 522 165
VStem: 44 173
LayerCount: 2
Fore
SplineSet
44 658 m 4
 44 666 55 687 90 687 c 4
 104 687 119 683 124 678 c 4
 161 635 217 545 217 540 c 4
 217 534 207 522 200 522 c 4
 190 522 44 619 44 658 c 4
EndSplineSet
EndChar

StartChar: a
Encoding: 97 97 65
Width: 467
Flags: W
HStem: -8 70<122 237.5 332.5 427> 411 38<172.393 287.5>
VStem: 29 135<78.1133 172.955> 41 108<292.124 371.344> 266 130<68.207 223 256.029 377.779>
LayerCount: 2
Fore
SplineSet
225 62 m 4xe8
 250 62 266 77 266 83 c 6
 266 223 l 5
 246 213 220 204 200 191 c 4
 172 173 163 146 164 124 c 4
 165 81 199 62 225 62 c 4xe8
246 449 m 4
 329 449 396 386 396 296 c 6
 396 109 l 6
 396 82 407 68 420 68 c 4
 434 68 445 76 449 78 c 5
 453 76 456 67 456 61 c 7
 456 54 455 51 452 46 c 5
 438 33 391 -6 349 -6 c 4
 316 -6 282 20 273 44 c 5
 264 36 196 -8 160 -8 c 4
 84 -8 29 55 29 114 c 4xe8
 29 153 55 186 81 194 c 4
 119 206 215 245 266 264 c 5
 266 271 266 278 266 285 c 6
 266 311 l 6
 266 361 242 411 207 411 c 4
 169 411 159 372 149 327 c 4
 144 304 128 283 93 283 c 4
 66 283 41 303 41 331 c 4xd8
 41 344 47 358 55 372 c 5
 68 385 158 449 246 449 c 4
EndSplineSet
Substitution2: "'smcp' Lowercase to Small Capitals in Latin lookup 0 subtable" a.sc
EndChar

StartChar: b
Encoding: 98 98 66
Width: 536
Flags: W
HStem: -8 44<209.092 312.015> 375 74<238.003 313.189> 624 32<-4.67188 52.5286> 675 20G<189.5 194>
VStem: 65 130<50.2358 352.859 401.779 614.125> 364 144<134.511 316.265>
LayerCount: 2
Fore
SplineSet
-2 624 m 1
 -6 624 -7 652 -2 656 c 1
 110 666 188 695 191 695 c 1
 197 694 205 683 206 678 c 1
 206 678 195 633 195 577 c 2
 195 415 l 2
 195 410 195 397 201 402 c 0
 216 414 266 449 300 449 c 0
 416 449 508 359 508 236 c 0
 508 76 370 -8 240 -8 c 4
 188 -8 140 15 114 15 c 4
 96 15 84 11 77 8 c 5
 74 8 53 26 53 33 c 5
 60 51 65 86 65 152 c 6
 65 558 l 2
 65 575 65 589 58 606 c 0
 53 618 10 624 -2 624 c 1
250 375 m 0
 222 375 207 363 198 353 c 0
 195 350 195 347 195 344 c 2
 195 98 l 6
 195 64 219 36 261 36 c 4
 325 36 364 122 364 196 c 0
 364 333 312 375 250 375 c 0
EndSplineSet
Substitution2: "'smcp' Lowercase to Small Capitals in Latin lookup 0 subtable" b.sc
EndChar

StartChar: c
Encoding: 99 99 67
Width: 442
Flags: W
HStem: -9 84<224.332 330.626> 396 52<190.134 317.5>
VStem: 29 126<151.509 290.309>
LayerCount: 2
Fore
SplineSet
29 200 m 0
 29 322 152 448 290 448 c 0
 345 448 380 437 391 430 c 1
 400 420 411 408 411 382 c 0
 411 353 389 320 353 320 c 0
 326 320 309 347 293 365 c 0
 276 384 250 396 225 396 c 0
 181 396 155 319 155 258 c 0
 155 118 235 75 299 75 c 0
 357 75 390 102 411 125 c 1
 418 123 423 113 423 107 c 3
 423 100 422 91 420 88 c 0
 402 60 334 -9 239 -9 c 0
 127 -9 29 69 29 200 c 0
EndSplineSet
Substitution2: "'smcp' Lowercase to Small Capitals in Latin lookup 0 subtable" c.sc
EndChar

StartChar: d
Encoding: 100 100 68
Width: 543
Flags: W
HStem: -8 64<163 292.956> 28 32<476.435 523.823> 395 51<208.607 322.309> 624 32<267.328 324.529> 675 20G<461.5 466>
VStem: 30 142<121.851 297.682> 337 130<70.4709 378.4 444.011 614.125>
LayerCount: 2
Fore
SplineSet
292 446 m 0xbe
 313 446 324 445 332 444 c 1
 336 444 337 459 337 467 c 0
 337 492 337 525 337 558 c 0
 337 577 337 589 330 606 c 0
 325 618 282 624 270 624 c 1
 266 624 265 652 270 656 c 1
 382 666 460 695 463 695 c 1
 469 694 477 683 478 678 c 1
 478 678 467 633 467 577 c 2
 467 108 l 26
 467 93 467 80 476 70 c 0
 485 60 512 60 521 60 c 1
 523 58 524 54 524 47 c 0
 524 41 522 34 518 28 c 1x7e
 459 22 359 -7 346 -7 c 0
 342 -7 337 2 337 17 c 2
 337 33 l 18
 337 35 337 40 334 38 c 0
 318 27 264 -8 211 -8 c 0
 115 -8 30 82 30 200 c 0
 30 370 201 446 292 446 c 0xbe
273 56 m 0xbe
 301 56 337 80 337 93 c 2
 337 350 l 2
 337 368 301 395 259 395 c 0
 195 395 172 323 172 243 c 0
 172 133 211 56 273 56 c 0xbe
EndSplineSet
Substitution2: "'smcp' Lowercase to Small Capitals in Latin lookup 0 subtable" d.sc
EndChar

StartChar: e
Encoding: 101 101 69
Width: 456
Flags: W
HStem: -9 84<228.39 331.626> 242 40<161 288.823> 406 41<198.95 281.103>
VStem: 30 130<147.948 242 282 297.174> 303 124<289.978 370.347>
LayerCount: 2
Fore
SplineSet
161 282 m 5
 170 281 266 287 290 290 c 4
 302 291 303 300 303 306 c 15
 303 352 287 406 242 406 c 7
 183 406 161 316 161 282 c 5
160 242 m 5
 160 102 255 75 300 75 c 4
 358 75 391 102 412 125 c 5
 419 123 424 113 424 107 c 7
 424 100 423 91 421 88 c 4
 403 60 335 -9 240 -9 c 4
 128 -9 30 69 30 200 c 4
 30 326 137 447 252 447 c 4
 383 447 427 354 427 296 c 4
 427 274 415 255 400 254 c 4
 332 248 234 244 160 242 c 5
EndSplineSet
Substitution2: "'smcp' Lowercase to Small Capitals in Latin lookup 0 subtable" e.sc
EndChar

StartChar: f
Encoding: 102 102 70
Width: 347
Flags: W
HStem: -4 37<22.7205 88.9985 235.001 301.279> 381 47<29.9586 97 227 343.039> 626 72<238.629 320>
VStem: 97 130<41.2661 381 428 540.641>
LayerCount: 2
Fore
SplineSet
304 698 m 4
 336 698 354 692 368 688 c 5
 385 679 407 666 407 642 c 31
 407 609 389 573 356 573 c 23
 326 573 309 596 290 611 c 4
 279 620 266 626 250 626 c 4
 234 626 220 591 220 544 c 4
 220 498 222 459 224 428 c 5
 231 428 308 428 341 428 c 4
 345 428 347 420 347 415 c 4
 347 406 334 388 324 381 c 5
 294 381 260 381 227 381 c 5
 227 291 227 145 227 145 c 6
 227 102 227 71 235 51 c 4
 240 38 286 34 299 33 c 5
 304 26 303 2 299 -4 c 5
 260 0 204 3 162 3 c 4
 120 3 64 0 25 -4 c 5
 21 2 20 26 25 33 c 5
 38 34 84 38 89 51 c 4
 97 71 97 102 97 145 c 6
 97 145 97 292 97 381 c 5
 70 381 52 381 26 381 c 5
 21 383 21 390 21 394 c 5
 31 408 41 418 53 428 c 5
 66 428 87 428 97 428 c 13
 97 443 l 6
 97 580 229 698 304 698 c 4
EndSplineSet
Substitution2: "'smcp' Lowercase to Small Capitals in Latin lookup 0 subtable" f.sc
EndChar

StartChar: g
Encoding: 103 103 71
Width: 473
Flags: W
HStem: -218 56<173.684 306.846> -14 111<144.275 344.633> 148 37<188.923 266.139> 366 61<387.206 456.813> 406 37<175.138 251.603>
VStem: 22 110<-121.74 -54.107> 37 121<220.825 365.646> 47 97<71 122.664> 280 121<226.627 369.198> 370 87<-93.8474 3>
LayerCount: 2
Fore
SplineSet
380 369 m 1xf2
 396 347 401 327 401 299 c 0
 401 216 323 148 220 148 c 0
 202 148 184 150 168 153 c 1
 157 144 144 132 144 122 c 0xf180
 144 107 168 97 192 97 c 0
 230 97 289 98 324 96 c 0
 416 91 457 20 457 -14 c 0
 457 -135 325 -218 189 -218 c 0
 91 -218 22 -171 22 -103 c 0xf440
 22 -63 70 -24 107 -6 c 1
 73 3 47 50 47 92 c 0xf1
 47 110 92 144 130 165 c 1
 73 188 37 237 37 294 c 0
 37 377 116 443 218 443 c 0xea
 263 443 297 437 325 418 c 0
 328 415 329 415 331 415 c 2
 456 427 l 1
 459 426 467 422 467 416 c 0
 467 409 452 373 442 366 c 1
 420 368 412 369 386 372 c 0
 384 372 380 371 380 369 c 1xf2
148 -14 m 1
 141 -22 132 -35 132 -58 c 0
 132 -124 182 -162 252 -162 c 0
 348 -162 370 -112 370 -79 c 0xe440
 370 -37 322 -14 258 -14 c 0
 221 -14 167 -14 148 -14 c 1
213 406 m 0xea80
 161 406 158 352 158 307 c 0
 158 251 177 185 229 185 c 0
 281 185 280 241 280 285 c 0
 280 340 265 406 213 406 c 0xea80
EndSplineSet
Substitution2: "'smcp' Lowercase to Small Capitals in Latin lookup 0 subtable" g.sc
EndChar

StartChar: h
Encoding: 104 104 72
Width: 577
Flags: W
HStem: -4 37<11.7205 77.9985 224.001 283.279 308.721 362.999 509.001 575.279> 365 1<217 304> 624 32<16.3281 73.5286> 675 20G<210.5 215>
VStem: 86 130<41.2661 338.951 366.048 615.244> 371 130<41.2661 334.749>
LayerCount: 2
Fore
SplineSet
212 695 m 1
 218 694 226 683 227 678 c 1
 227 678 216 616 216 576 c 0
 216 372 l 0
 216 369 216 367 217 366 c 1
 219 366 222 369 224 371 c 0
 252 403 319 446 365 446 c 0
 479 446 501 368 501 210 c 2
 501 145 l 2
 501 102 501 71 509 51 c 0
 514 38 560 34 573 33 c 1
 578 26 577 2 573 -4 c 1
 534 0 478 3 436 3 c 0
 394 3 350 0 311 -4 c 1
 307 2 306 26 311 33 c 1
 324 34 358 38 363 51 c 0
 371 71 371 102 371 145 c 2
 371 224 l 2
 371 296 357 365 304 365 c 0
 264 365 216 329 216 309 c 2
 216 145 l 2
 216 108 216 71 224 51 c 0
 229 38 268 34 281 33 c 1
 286 26 285 2 281 -4 c 1
 242 0 193 3 151 3 c 0
 109 3 53 0 14 -4 c 1
 10 2 9 26 14 33 c 1
 27 34 73 38 78 51 c 0
 86 71 86 102 86 145 c 2
 86 558 l 2
 86 575 86 589 79 606 c 0
 74 618 31 624 19 624 c 1
 15 624 14 652 19 656 c 1
 131 666 209 695 212 695 c 1
EndSplineSet
Substitution2: "'smcp' Lowercase to Small Capitals in Latin lookup 0 subtable" h.sc
EndChar

StartChar: i
Encoding: 105 105 73
Width: 311
Flags: W
HStem: -4 37<25.7205 91.9985 238.001 297.279> 362 31<26.0323 86.1875> 426 20G<205 227.5> 544 144<102.796 207.727>
VStem: 83 145<565 667> 100 130<41.2661 351.93>
LayerCount: 2
Fore
SplineSet
230 309 m 2xf4
 230 145 l 2
 230 108 230 71 238 51 c 0
 243 38 282 34 295 33 c 1
 300 26 299 2 295 -4 c 1
 256 0 207 3 165 3 c 0
 123 3 67 0 28 -4 c 1
 24 2 23 26 28 33 c 5
 41 34 87 38 92 51 c 0
 100 71 100 102 100 145 c 2
 100 260 l 2
 100 270 99 327 91 342 c 0
 83 357 35 362 28 362 c 1
 25 364 24 393 29 393 c 1
 105 399 186 427 224 446 c 1
 231 444 241 432 241 429 c 1
 238 421 232 386 231 372 c 0
 230 350 230 315 230 309 c 2xf4
83 616 m 0xf8
 83 656 115 688 155 688 c 0
 195 688 228 656 228 616 c 0
 228 576 195 544 155 544 c 0
 115 544 83 576 83 616 c 0xf8
EndSplineSet
Substitution2: "'smcp' Lowercase to Small Capitals in Latin lookup 0 subtable" i.sc
EndChar

StartChar: j
Encoding: 106 106 74
Width: 281
Flags: W
HStem: -218 24<-14.4946 0.553207> 362 31<11.0323 71.1875> 426 20G<190 212.5> 542 148<89.625 194.375>
VStem: 68 148<563.625 668.375> 85 130<-43.1268 351.93>
LayerCount: 2
Fore
SplineSet
85 64 m 6xf4
 85 260 l 6xf4
 85 270 84 327 76 342 c 4
 68 357 20 362 13 362 c 5
 10 364 9 393 14 393 c 5
 90 399 171 427 209 446 c 5
 216 444 226 432 226 429 c 5
 223 421 217 386 216 372 c 4xf8
 215 350 215 315 215 309 c 6
 215 120 l 6
 215 36 204 -48 167 -102 c 4
 120 -170 32 -218 -2 -218 c 5
 -9 -214 -16 -207 -16 -201 c 4
 -16 -199 -16 -195 -15 -194 c 4
 -11 -192 85 -142 85 64 c 6xf4
68 616 m 0xf8
 68 657 101 690 142 690 c 0
 183 690 216 657 216 616 c 0
 216 575 183 542 142 542 c 0
 101 542 68 575 68 616 c 0xf8
EndSplineSet
Substitution2: "'smcp' Lowercase to Small Capitals in Latin lookup 0 subtable" j.sc
EndChar

StartChar: k
Encoding: 107 107 75
Width: 586
Flags: W
HStem: -4 37<12.2382 76.8569 225.143 289.762 521.295 584.227> 405 35<312.923 375.477 482.68 559.394> 624 32<16.3281 73.5286> 675 20G<210.5 215>
VStem: 86 130<41.2661 201 236 615.244>
LayerCount: 2
Fore
SplineSet
216 145 m 6
 216 102 216 71 224 51 c 4
 229 38 275 34 288 33 c 5
 293 26 292 2 288 -4 c 5
 249 0 193 3 151 3 c 4
 109 3 53 0 14 -4 c 5
 10 2 9 26 14 33 c 5
 27 34 73 38 78 51 c 4
 86 71 86 102 86 145 c 6
 86 558 l 6
 86 575 86 589 79 606 c 4
 74 618 31 624 19 624 c 5
 15 624 14 652 19 656 c 5
 131 666 209 695 212 695 c 5
 218 694 226 683 227 678 c 5
 227 678 216 616 216 576 c 4
 215 236 l 5
 232 242 255 257 290 287 c 4
 360 347 378 368 378 383 c 4
 378 395 332 404 314 405 c 5
 311 414 311 437 316 439 c 5
 316 439 405 435 447 435 c 4
 483 435 513 438 558 440 c 5
 564 430 561 408 555 405 c 5
 524 402 482 392 456 374 c 4
 435 359 385 310 324 256 c 5
 395 173 410 161 466 98 c 4
 521 37 553 36 585 36 c 5
 591 25 586 8 585 6 c 5
 569 0 522 -6 484 -6 c 4
 426 -6 377 18 347 53 c 6
 347 53 278 127 229 188 c 4
 225 194 216 201 216 201 c 5
 216 145 l 6
EndSplineSet
Substitution2: "'smcp' Lowercase to Small Capitals in Latin lookup 0 subtable" k.sc
EndChar

StartChar: l
Encoding: 108 108 76
Width: 300
Flags: W
HStem: -4 37<11.7205 77.9985 224.001 290.279> 624 32<16.3281 73.5286> 675 20G<210.5 215>
VStem: 86 130<41.2661 615.244>
LayerCount: 2
Fore
SplineSet
86 558 m 6
 86 575 86 589 79 606 c 4
 74 618 31 624 19 624 c 5
 15 624 14 652 19 656 c 5
 131 666 209 695 212 695 c 5
 218 694 226 683 227 678 c 5
 227 678 216 616 216 576 c 4
 216 408 216 145 216 145 c 18
 216 102 216 71 224 51 c 0
 229 38 275 34 288 33 c 1
 293 26 292 2 288 -4 c 1
 249 0 193 3 151 3 c 0
 109 3 53 0 14 -4 c 1
 10 2 9 26 14 33 c 1
 27 34 73 38 78 51 c 0
 86 71 86 102 86 145 c 2
 86 558 l 6
EndSplineSet
Substitution2: "'smcp' Lowercase to Small Capitals in Latin lookup 0 subtable" l.sc
EndChar

StartChar: m
Encoding: 109 109 77
Width: 879
Flags: W
HStem: -4 37<25.7205 91.9985 238.001 297.279 320.721 376.999 523.002 587.279 609.721 663.998 810.002 876.279> 362 31<26.0323 86.1875> 365 81<309.025 401.423 594.185 713.423>
VStem: 100 130<41.2661 338.951> 385 130<41.2661 338.449> 672 130<41.2661 334.749>
LayerCount: 2
Back
SplineSet
505 360 m 1
 507 360 510.138 362.871 512 365 c 0
 540 397 623 446 669 446 c 0
 783 446 805 368 805 210 c 2
 805 145 l 2
 805 102 805 71 813 51 c 0
 818 38 864 34 877 33 c 1
 882 26 881 2 877 -4 c 1
 838 0 782 3 740 3 c 0
 698 3 654 0 615 -4 c 1
 611 2 610 26 615 33 c 1
 628 34 662 38 667 51 c 0
 675 71 675 102 675 145 c 2
 675 224 l 2
 675 296 661 365 608 365 c 0
 568 365 514 330 514 310 c 8
 514 308 513.77 305.996 513.919 304 c 0
 516 276 518 245.325 518 210 c 2
 518 145 l 2
 518 102 518 71 526 51 c 0
 531 38 575 34 588 33 c 1
 593 26 592 2 588 -4 c 1
 549 0 495 3 453 3 c 0
 411 3 365 0 326 -4 c 1
 322 2 321 26 326 33 c 1
 339 34 375 38 380 51 c 0
 388 71 388 102 388 145 c 2
 388 224 l 2
 388 296 374 365 321 365 c 0
 281 365 233 329 233 309 c 2
 233 145 l 2
 233 108 233 71 241 51 c 0
 246 38 285 34 298 33 c 1
 303 26 302 2 298 -4 c 1
 259 0 210 3 168 3 c 0
 126 3 70 0 31 -4 c 1
 27 2 26 26 31 33 c 1
 44 34 90 38 95 51 c 0
 103 71 103 102 103 145 c 2
 103 252 l 2
 103 262 102.232 318.565 94 334 c 0
 86 349 38 354 31 354 c 1
 28 356 27 385 32 385 c 1
 108 391 189 427 227 446 c 1
 234 444 244 432 244 429 c 1
 241 421 233 373 234 372 c 0
 234 369 234 367 235 366 c 1
 237 366 240.138 368.871 242 371 c 0
 270 403 336 446 382 446 c 0
 445.522 446 480.48 421.782 498.983 373 c 0
EndSplineSet
Fore
SplineSet
502 360 m 1xbc
 504 360 507 363 509 365 c 0
 537 397 620 446 666 446 c 0
 780 446 802 368 802 210 c 2
 802 145 l 2
 802 102 802 71 810 51 c 0
 815 38 861 34 874 33 c 1
 879 26 878 2 874 -4 c 1
 835 0 779 3 737 3 c 0
 695 3 651 0 612 -4 c 1
 608 2 607 26 612 33 c 1
 625 34 659 38 664 51 c 0
 672 71 672 102 672 145 c 2
 672 224 l 2
 672 296 658 365 605 365 c 0
 565 365 511 330 511 310 c 8
 511 308 511 306 511 304 c 0
 513 276 515 245 515 210 c 2
 515 145 l 2
 515 102 515 71 523 51 c 0
 528 38 572 34 585 33 c 1
 590 26 589 2 585 -4 c 1
 546 0 492 3 450 3 c 0
 408 3 362 0 323 -4 c 1
 319 2 318 26 323 33 c 1
 336 34 372 38 377 51 c 0
 385 71 385 102 385 145 c 2
 385 224 l 2
 385 296 371 365 318 365 c 0xbc
 278 365 230 329 230 309 c 2
 230 145 l 2
 230 108 230 71 238 51 c 0
 243 38 282 34 295 33 c 1
 300 26 299 2 295 -4 c 1
 256 0 207 3 165 3 c 0
 123 3 67 0 28 -4 c 1
 24 2 23 26 28 33 c 1
 41 34 87 38 92 51 c 0
 100 71 100 102 100 145 c 2
 100 260 l 2
 100 270 99 327 91 342 c 0
 83 357 35 362 28 362 c 1
 25 364 24 393 29 393 c 1xdc
 105 399 186 427 224 446 c 1
 231 444 241 432 241 429 c 1
 238 421 230 373 231 372 c 0
 231 369 231 367 232 366 c 1
 234 366 237 369 239 371 c 0
 267 403 333 446 379 446 c 0
 443 446 478 424 502 360 c 1xbc
EndSplineSet
Substitution2: "'smcp' Lowercase to Small Capitals in Latin lookup 0 subtable" m.sc
EndChar

StartChar: n
Encoding: 110 110 78
Width: 592
Flags: W
HStem: -4 37<25.7205 91.9985 238.001 297.279 322.721 376.999 523.002 589.279> 362 31<26.0323 86.1875> 365 1<232 318> 426 20G<205 227>
VStem: 100 130<41.2661 338.951> 385 130<41.2661 334.749>
LayerCount: 2
Fore
SplineSet
379 446 m 4xbc
 493 446 515 368 515 210 c 6
 515 145 l 6
 515 102 515 71 523 51 c 4
 528 38 574 34 587 33 c 5
 592 26 591 2 587 -4 c 5
 548 0 492 3 450 3 c 4
 408 3 364 0 325 -4 c 5
 321 2 320 26 325 33 c 5
 338 34 372 38 377 51 c 4
 385 71 385 102 385 145 c 6
 385 224 l 6
 385 296 371 365 318 365 c 4xbc
 278 365 230 329 230 309 c 6
 230 145 l 6
 230 108 230 71 238 51 c 4
 243 38 282 34 295 33 c 5
 300 26 299 2 295 -4 c 5
 256 0 207 3 165 3 c 4
 123 3 67 0 28 -4 c 5
 24 2 23 26 28 33 c 5
 41 34 87 38 92 51 c 4
 100 71 100 102 100 145 c 6
 100 260 l 6
 100 270 99 327 91 342 c 4
 83 357 35 362 28 362 c 5
 25 364 24 393 29 393 c 5xdc
 105 399 186 427 224 446 c 5
 230 446 241 434 241 429 c 5
 239 421 231 373 231 372 c 4
 231 369 231 367 232 366 c 5
 234 366 237 369 239 371 c 4
 267 403 333 446 379 446 c 4xbc
EndSplineSet
Substitution2: "'smcp' Lowercase to Small Capitals in Latin lookup 0 subtable" n.sc
EndChar

StartChar: o
Encoding: 111 111 79
Width: 528
Flags: W
HStem: -7 42<227.597 320.545> 406 41<207.207 296.807>
VStem: 30 142<118.592 313.407> 356 142<126.606 322.548>
LayerCount: 2
Fore
SplineSet
252 406 m 3
 179 406 172 310 172 237 c 27
 172 149 202 35 275 35 c 3
 348 35 356 130 356 202 c 27
 356 291 325 406 252 406 c 3
263 447 m 0
 401 447 498 352 498 225 c 0
 498 99 397 -7 265 -7 c 0
 126 -7 30 91 30 217 c 0
 30 343 132 447 263 447 c 0
EndSplineSet
Substitution2: "'smcp' Lowercase to Small Capitals in Latin lookup 0 subtable" o.sc
EndChar

StartChar: p
Encoding: 112 112 80
Width: 547
Flags: W
HStem: -218 37<7.72051 73.9985 220.001 286.279> -8 44<226.186 322.344> 362 31<8.03235 68.1875> 375 73<262.334 328.816>
VStem: 82 130<-172.734 0.99707 50.0771 351.93> 374 144<134.92 323.157>
LayerCount: 2
Fore
SplineSet
82 -69 m 6xdc
 82 260 l 6
 82 270 81 327 73 342 c 4
 65 357 17 362 10 362 c 5
 7 364 6 393 11 393 c 5xec
 87 399 168 427 206 446 c 5
 213 444 223 432 223 429 c 5
 221 423 214 411 214 395 c 4
 214 389 216 387 218 389 c 4
 248 421 291 448 322 448 c 4
 443 448 518 345 518 234 c 4
 518 81 383 -8 273 -8 c 4
 245 -8 219 1 215 1 c 5
 212 1 212 -3 212 -15 c 6
 212 -69 l 6
 212 -112 212 -143 220 -163 c 4
 225 -176 271 -180 284 -181 c 5
 289 -188 288 -212 284 -218 c 5
 245 -214 189 -211 147 -211 c 4
 105 -211 49 -214 10 -218 c 5
 6 -212 5 -188 10 -181 c 5
 23 -180 69 -176 74 -163 c 4
 82 -143 82 -112 82 -69 c 6xdc
212 96 m 6
 212 56 245 36 280 36 c 4
 313 36 374 83 374 199 c 4
 374 302 348 375 267 375 c 4xdc
 230 375 212 352 212 347 c 6
 212 96 l 6
EndSplineSet
Substitution2: "'smcp' Lowercase to Small Capitals in Latin lookup 0 subtable" p.sc
EndChar

StartChar: q
Encoding: 113 113 81
Width: 528
Flags: W
HStem: -218 37<259.721 325.999 472.001 538.279> -8 64<163.5 299.682> 394 52<208.482 317.088>
VStem: 30 142<119.026 292.643> 334 130<-172.734 30.222 63.9757 375.935>
LayerCount: 2
Fore
SplineSet
298 446 m 0
 336 446 386 423 416 423 c 0
 437 423 446 428 452 430 c 1
 458 428 476 412 476 405 c 1
 471 393 464 360 464 291 c 2
 464 -69 l 2
 464 -112 464 -143 472 -163 c 0
 477 -176 523 -180 536 -181 c 1
 541 -188 540 -212 536 -218 c 1
 497 -214 441 -211 399 -211 c 0
 357 -211 301 -214 262 -218 c 1
 258 -212 257 -188 262 -181 c 1
 275 -180 321 -176 326 -163 c 0
 334 -143 334 -112 334 -69 c 2
 334 17 l 2
 334 23 334 35 328 30 c 0
 313 19 261 -8 214 -8 c 0
 113 -8 30 84 30 192 c 0
 30 349 171 446 298 446 c 0
260 394 m 0
 190 394 172 314 172 243 c 0
 172 160 197 56 274 56 c 0
 310 56 334 76 334 80 c 2
 334 344 l 2
 334 354 312 394 260 394 c 0
EndSplineSet
Substitution2: "'smcp' Lowercase to Small Capitals in Latin lookup 0 subtable" q.sc
EndChar

StartChar: r
Encoding: 114 114 82
Width: 444
Flags: W
HStem: -4 37<25.7205 91.9985 238.001 297.279> 348 99<276.5 374.5> 362 31<26.0323 86.1875>
VStem: 100 130<41.2661 320.253>
LayerCount: 2
Fore
SplineSet
224 446 m 1xb0
 231 444 241 432 241 429 c 1
 238 421 231 364 231 350 c 0
 231 345 236 345 237 347 c 0
 261 390 299 447 362 447 c 15
 387 447 412 442 425 430 c 5
 429 424 436 402 436 381 c 4
 436 347 410 302 376 302 c 7
 358 302 345 317 333 327 c 4
 322 337 314 348 297 348 c 15xd0
 256 348 230 288 230 267 c 2
 230 145 l 2
 230 108 230 71 238 51 c 0
 243 38 282 34 295 33 c 1
 300 26 299 2 295 -4 c 1
 256 0 207 3 165 3 c 0
 123 3 67 0 28 -4 c 1
 24 2 23 26 28 33 c 1
 41 34 87 38 92 51 c 0
 100 71 100 102 100 145 c 2
 100 260 l 2
 100 270 99 327 91 342 c 0
 83 357 35 362 28 362 c 1
 25 364 24 393 29 393 c 1
 105 399 186 427 224 446 c 1xb0
EndSplineSet
Substitution2: "'smcp' Lowercase to Small Capitals in Latin lookup 0 subtable" r.sc
EndChar

StartChar: s
Encoding: 115 115 83
Width: 401
Flags: W
HStem: -8 40<127.28 231.806> 408 40<167.713 273.324>
VStem: 37 119<274.689 380.15> 44 37<86.4219 149.713> 246 120<56.656 172.818>
LayerCount: 2
Fore
SplineSet
223 448 m 0xe8
 270 448 302 436 335 429 c 1
 343 395 356 323 356 306 c 0
 356 302 345 299 338 299 c 4
 330 299 325 303 319 307 c 1
 309 352 283 408 213 408 c 0
 180 408 156 390 156 354 c 0xe8
 156 302 214 287 258 265 c 0
 310 239 366 215 366 130 c 0
 366 30 273 -8 169 -8 c 0
 125 -8 77 7 52 13 c 1
 48 36 44 132 44 143 c 0
 44 149 54 150 59 150 c 0
 66 150 78 146 81 140 c 1xd8
 95 53 149 32 189 32 c 0
 224 32 246 58 246 86 c 0
 246 136 190 149 143 175 c 0
 85 207 37 242 37 310 c 0
 37 410 144 448 223 448 c 0xe8
EndSplineSet
Substitution2: "'smcp' Lowercase to Small Capitals in Latin lookup 0 subtable" s.sc
EndChar

StartChar: t
Encoding: 116 116 84
Width: 338
Flags: W
HStem: -7 64<178 274.975> 381 47<11.9586 79 209 325.039>
VStem: 79 130<68.9375 381 428 500.009>
LayerCount: 2
Fore
SplineSet
209 428 m 1
 216 428 290 428 323 428 c 0
 327 428 329 420 329 415 c 0
 329 406 316 388 306 381 c 1
 276 381 242 381 209 381 c 1
 209 133 l 2
 209 80 226 57 263 57 c 0
 287 57 313 78 316 81 c 1
 318 79 323 72 323 67 c 0
 323 62 317 50 315 48 c 0
 306 38 261 -7 209 -7 c 0
 147 -7 79 27 79 139 c 2
 79 381 l 1
 52 381 34 381 8 381 c 1
 3 383 3 390 3 394 c 1
 13 408 23 418 35 428 c 1
 48 428 69 428 79 428 c 9
 79 428 79 461 79 481 c 1
 117 513 153 556 184 587 c 1
 195 594 208 593 209 587 c 1
 209 533 209 481 209 428 c 1
EndSplineSet
Substitution2: "'smcp' Lowercase to Small Capitals in Latin lookup 0 subtable" t.sc
EndChar

StartChar: u
Encoding: 117 117 85
Width: 561
Flags: W
HStem: -5 61<161.5 312.455> 28 32<493.435 540.823> 362 31<8.03235 68.1875 280.032 340.188> 426 20G<187 209.5 459 481.5>
VStem: 82 130<87.0607 351.93> 354 130<70.4709 351.93>
LayerCount: 2
Fore
SplineSet
210 -5 m 7xbc
 113 -5 82 80 82 174 c 6
 82 260 l 6
 82 270 81 327 73 342 c 4
 65 357 17 362 10 362 c 5
 7 364 6 393 11 393 c 5
 87 399 168 427 206 446 c 5
 213 444 223 432 223 429 c 5
 220 421 214 386 213 372 c 4
 212 350 212 315 212 309 c 6
 212 219 l 6
 212 113 228 56 290 56 c 4xbc
 318 56 354 78 354 93 c 6
 354 260 l 6
 354 270 353 327 345 342 c 4
 337 357 289 362 282 362 c 5
 279 364 278 393 283 393 c 5
 359 399 440 427 478 446 c 5
 485 444 495 432 495 429 c 5
 492 421 486 386 485 372 c 4
 484 350 484 315 484 309 c 6
 484 108 l 14
 484 93 484 80 493 70 c 4
 502 60 529 60 538 60 c 5
 540 58 541 54 541 47 c 4
 541 41 539 34 535 28 c 5x7c
 476 22 376 -7 363 -7 c 4
 359 -7 354 2 354 17 c 6
 354 33 l 22
 354 35 354 40 351 38 c 4
 335 27 280 -5 210 -5 c 7xbc
EndSplineSet
Substitution2: "'smcp' Lowercase to Small Capitals in Latin lookup 0 subtable" u.sc
EndChar

StartChar: v
Encoding: 118 118 86
Width: 526
Flags: W
HStem: -11 21G<249.5 257> 406 37<-5.40566 44.6829 203.417 260.692 320.172 390.591 462.902 533.391>
LayerCount: 2
Fore
SplineSet
132 436 m 0
 174 436 233 440 258 443 c 1
 263 438 263 412 258 406 c 1
 246 406 199 396 199 379 c 0
 199 376 199 369 201 364 c 0
 237 294 304 167 304 167 c 1
 304 167 350 268 383 342 c 0
 388 352 394 368 394 379 c 0
 394 404 331 406 323 406 c 1
 318 411 318 436 322 443 c 1
 352 439 388 436 427 436 c 0
 469 436 516 441 531 443 c 1
 535 438 536 413 531 406 c 1
 519 406 464 402 450 373 c 2
 296 45 l 2
 276 6 263 -11 251 -11 c 0
 248 -11 242 -6 239 -3 c 1
 181 117 127 230 60 368 c 1
 47 398 5 406 -3 406 c 1
 -9 414 -7 437 -3 443 c 1
 23 440 93 436 132 436 c 0
EndSplineSet
Substitution2: "'smcp' Lowercase to Small Capitals in Latin lookup 0 subtable" v.sc
EndChar

StartChar: w
Encoding: 119 119 87
Width: 782
Flags: W
HStem: -11 21G<247.5 253.5 519.5 525.5> 406 37<-5.40566 44.2532 203.417 260.692 288.625 337.679 497.417 554.692 584.172 654.591 727.052 788.391>
VStem: 364 129<320.875 384.275>
LayerCount: 2
Fore
SplineSet
125 436 m 0
 167 436 233 440 258 443 c 1
 263 438 263 412 258 406 c 1
 246 406 199 396 199 379 c 0
 199 376 199 369 201 364 c 0
 237 294 298 172 298 172 c 1
 298 172 364 320 364 335 c 0
 364 346 358 362 355 368 c 0
 340 397 300 406 292 406 c 1
 285 414 287 437 291 443 c 1
 331 438 387 437 426 436 c 1
 468 436 527 440 552 443 c 1
 557 438 557 412 552 406 c 1
 540 406 493 396 493 379 c 0
 493 376 493 369 495 364 c 0
 527 292 579 180 579 180 c 1
 579 180 615 269 647 342 c 0
 651 352 658 368 658 379 c 0
 658 404 595 406 587 406 c 1
 582 411 582 436 586 443 c 1
 616 439 652 436 691 436 c 0
 733 436 771 441 786 443 c 1
 790 438 791 413 786 406 c 1
 774 406 731 405 718 375 c 8
 662 245 630 172 571 44 c 16
 553 5 530 -11 521 -11 c 0
 518 -11 512 -6 509 -3 c 1
 509 -3 431 198 398 276 c 1
 367 198 299 44 299 44 c 2
 282 5 258 -11 249 -11 c 0
 246 -11 240 -6 237 -3 c 1
 167 146 128 231 60 368 c 1
 46 398 5 406 -3 406 c 1
 -9 414 -7 437 -3 443 c 1
 23 440 86 436 125 436 c 0
EndSplineSet
Substitution2: "'smcp' Lowercase to Small Capitals in Latin lookup 0 subtable" w.sc
EndChar

StartChar: x
Encoding: 120 120 88
Width: 552
Flags: W
HStem: -4 37<2.60938 66.8521 168.409 238.828 278.308 328.369 495.55 549.375> 406 37<11.625 68.4256 230.631 280.692 307.172 377.591 468.515 537.391>
LayerCount: 2
Fore
SplineSet
152 436 m 1
 194 436 253 440 278 443 c 1
 283 438 283 412 278 406 c 1
 266 406 230 401 230 384 c 0
 230 381 236 375 240 370 c 10
 304 288 l 17
 333 319 381 370 381 379 c 0
 381 404 318 406 310 406 c 1
 305 411 305 436 309 443 c 1
 339 439 375 436 414 436 c 0
 456 436 520 441 535 443 c 1
 539 438 540 413 535 406 c 1
 517 406 480 403 452 374 c 0
 416 336 386 302 337 246 c 9
 392 176 425 135 479 66 c 0
 499 40 538 33 546 33 c 1
 553 25 551 2 547 -4 c 1
 507 1 447 2 408 3 c 1
 366 3 306 -1 281 -4 c 1
 276 1 276 27 281 33 c 1
 293 33 329 38 329 55 c 0
 329 58 323 64 319 69 c 10
 248 156 l 17
 219 125 165 74 165 60 c 0
 165 35 228 33 236 33 c 1
 241 28 241 3 237 -4 c 1
 207 0 171 3 132 3 c 0
 90 3 20 -2 5 -4 c 1
 1 1 0 26 5 33 c 1
 23 33 65 44 89 67 c 0
 138 114 166 148 215 199 c 25
 164 267 138 305 84 374 c 0
 64 400 23 406 15 406 c 1
 8 414 10 437 14 443 c 1
 54 438 113 437 152 436 c 1
EndSplineSet
Substitution2: "'smcp' Lowercase to Small Capitals in Latin lookup 0 subtable" x.sc
EndChar

StartChar: y
Encoding: 121 121 89
Width: 526
Flags: W
HStem: -218 100<14.905 133.239> 406 37<-5.40566 44.6829 203.417 260.692 320.172 390.591 462.902 533.391>
LayerCount: 2
Fore
SplineSet
247 -56 m 0
 177 -188 110 -218 70 -218 c 0
 28 -218 3 -192 3 -165 c 3
 3 -142 13 -127 26 -118 c 1
 105 -118 150 -108 191 -40 c 0
 209 -10 213 1 226 31 c 1
 185 114 60 368 60 368 c 1
 47 398 5 406 -3 406 c 1
 -9 414 -7 437 -3 443 c 1
 23 440 93 436 132 436 c 0
 174 436 233 440 258 443 c 1
 263 438 263 412 258 406 c 1
 246 406 199 396 199 379 c 0
 199 376 199 369 201 364 c 0
 237 294 304 167 304 167 c 1
 304 167 350 268 383 342 c 0
 388 352 394 368 394 379 c 0
 394 404 331 406 323 406 c 1
 318 411 318 436 322 443 c 1
 352 439 388 436 427 436 c 0
 469 436 516 441 531 443 c 1
 535 438 536 413 531 406 c 1
 519 406 464 402 450 373 c 2
 247 -56 l 0
EndSplineSet
Substitution2: "'smcp' Lowercase to Small Capitals in Latin lookup 0 subtable" y.sc
EndChar

StartChar: z
Encoding: 122 122 90
Width: 455
Flags: W
HStem: 0 46<175 346.92> 382 46<104.452 255>
VStem: 35 35<281.304 332.589>
LayerCount: 2
Fore
SplineSet
148 428 m 2
 286 428 l 2
 340 428 374 431 415 436 c 1
 420 428 418 417 418 412 c 1
 175 46 l 25
 289 46 l 2
 350 46 386 109 394 147 c 0
 395 152 403 154 407 154 c 0
 418 154 431 145 432 144 c 1
 419 105 392 0 392 0 c 1
 37 0 l 1
 37 0 27 8 27 17 c 0
 27 22 29 30 31 34 c 2
 255 381 l 1
 255 381 183 382 151 382 c 0
 100 382 81 323 70 288 c 0
 69 284 57 281 47 281 c 0
 41 281 35 283 35 285 c 1
 38 301 50 381 53 434 c 1
 53 434 112 428 148 428 c 2
EndSplineSet
Substitution2: "'smcp' Lowercase to Small Capitals in Latin lookup 0 subtable" z.sc
EndChar

StartChar: braceleft
Encoding: 123 123 91
Width: 294
Flags: W
HStem: -144 26<252.847 268.58> 734 26<252.847 268.58>
VStem: 78 114<-22.7954 102.341 513.659 638.795> 105 115<91.9401 230.81 385.19 524.06>
LayerCount: 2
Fore
SplineSet
105 424 m 4xd0
 105 476 78 507 78 566 c 4
 78 670 214 756 263 760 c 5
 266 760 276 742 270 734 c 5
 242 719 192 674 192 609 c 4xe0
 192 536 220 543 220 459 c 4
 220 372 132 308 96 308 c 5
 132 308 220 244 220 157 c 4xd0
 220 73 192 80 192 7 c 4
 192 -58 242 -103 270 -118 c 5
 276 -126 266 -144 263 -144 c 5
 214 -140 78 -54 78 50 c 4xe0
 78 109 105 140 105 192 c 4
 105 245 59 284 17 297 c 5
 15 299 14 305 14 308 c 4
 14 312 15 317 17 319 c 5
 59 332 105 371 105 424 c 4xd0
EndSplineSet
Substitution2: "'smcp' Lowercase to Small Capitals in Latin lookup 0 subtable" braceleft.sc
EndChar

StartChar: bar
Encoding: 124 124 92
Width: 202
Flags: W
VStem: 75 53<-118.239 764.903>
LayerCount: 2
Fore
SplineSet
128 -108 m 2
 128 -116 82 -123 80 -123 c 0
 73 -123 75 -119 75 -115 c 2
 75 757 l 1
 75 757 74 763 80 765 c 0
 97 770 116 770 119 770 c 0
 128 770 127 764 127 764 c 1
 128 -108 l 2
EndSplineSet
Substitution2: "'smcp' Lowercase to Small Capitals in Latin lookup 0 subtable" bar.sc
EndChar

StartChar: braceright
Encoding: 125 125 93
Width: 294
Flags: W
HStem: -144 26<26.42 42.1526> 734 26<26.42 42.1526>
VStem: 75 115<91.9401 230.81 385.19 524.06> 103 114<-22.7954 102.341 513.659 638.795>
LayerCount: 2
Fore
SplineSet
190 424 m 0xe0
 190 371 236 332 278 319 c 1
 280 317 281 312 281 308 c 0
 281 305 280 299 278 297 c 1
 236 284 190 245 190 192 c 0xe0
 190 140 217 109 217 50 c 0
 217 -54 81 -140 32 -144 c 1
 29 -144 19 -126 25 -118 c 1
 53 -103 103 -58 103 7 c 0xd0
 103 80 75 73 75 157 c 0
 75 244 163 308 199 308 c 1
 163 308 75 372 75 459 c 0xe0
 75 543 103 536 103 609 c 0
 103 674 53 719 25 734 c 1
 19 742 29 760 32 760 c 1
 81 756 217 670 217 566 c 0xd0
 217 507 190 476 190 424 c 0xe0
EndSplineSet
Substitution2: "'smcp' Lowercase to Small Capitals in Latin lookup 0 subtable" braceright.sc
EndChar

StartChar: asciitilde
Encoding: 126 126 94
Width: 549
Flags: W
HStem: 239 60<321.108 451.872> 306 60<104.128 233.702>
LayerCount: 2
Fore
SplineSet
261 273 m 0
 226 287 186 306 141 306 c 0
 102 306 67 275 55 259 c 1
 52 260 49 263 48 267 c 1
 48 307 112 366 171 366 c 0
 218 366 260 347 295 332 c 0
 329 318 370 299 415 299 c 0
 454 299 489 330 501 346 c 1
 504 345 507 342 508 338 c 1
 508 298 444 239 385 239 c 0
 338 239 296 259 261 273 c 0
EndSplineSet
Substitution2: "'smcp' Lowercase to Small Capitals in Latin lookup 0 subtable" asciitilde.sc
EndChar

StartChar: exclamdown
Encoding: 161 161 96
Width: 244
Flags: W
HStem: 293 150<71.0309 175.75>
VStem: 48 150<316 419.72> 57 128<-194.241 61.0029>
LayerCount: 2
Fore
SplineSet
48 369 m 0xc0
 48 409 81 443 122 443 c 27
 164 443 198 409 198 366 c 0
 198 326 164 293 123 293 c 27
 81 293 48 329 48 369 c 0xc0
119 -210 m 0
 88 -210 57 -185 57 -142 c 0
 57 -114 86 123 99 211 c 1
 103 224 107 233 119 237 c 1
 124 237 136 230 142 220 c 1
 153 153 185 -92 185 -143 c 0xa0
 185 -185 155 -210 119 -210 c 0
EndSplineSet
Substitution2: "'smcp' Lowercase to Small Capitals in Latin lookup 0 subtable" exclamdown.sc
EndChar

StartChar: cent
Encoding: 162 162 97
Width: 482
Flags: W
HStem: -9 84<249.992 346.626> 396 52<206.134 333.5>
VStem: 45 126<151.509 290.309> 283 35<436.956 478.129>
LayerCount: 2
Fore
SplineSet
45 200 m 0
 45 322 168 448 306 448 c 0
 361 448 396 437 407 430 c 1
 416 420 427 408 427 382 c 0
 427 353 405 320 369 320 c 0
 342 320 325 347 309 365 c 0
 292 384 266 396 241 396 c 0
 197 396 171 319 171 258 c 0
 171 118 251 75 315 75 c 0
 373 75 406 102 427 125 c 1
 434 123 439 113 439 107 c 3
 439 100 438 91 436 88 c 0
 418 60 350 -9 255 -9 c 0
 143 -9 45 69 45 200 c 0
283 481 m 17
 291 481 318 480 318 473 c 1
 235 -38 l 1
 226 -38 203 -35 200 -29 c 9
 283 481 l 17
EndSplineSet
Substitution2: "'smcp' Lowercase to Small Capitals in Latin lookup 0 subtable" cent.sc
EndChar

StartChar: sterling
Encoding: 163 163 98
Width: 478
Flags: W
HStem: -8 102<292.599 371.376> 51 86<124.684 257> 307 42<58.1975 379.062> 580 56<240.924 333.5>
VStem: 99 105<358.353 482.38> 130 114<191.15 305.841>
LayerCount: 2
Fore
SplineSet
316 636 m 0xb8
 351 636 368 626 387 614 c 1
 391 610 396 592 396 582 c 0
 396 546 374 523 347 523 c 0
 319 523 307 535 296 549 c 0
 284 564 271 580 253 580 c 0
 213 580 204 528 204 459 c 0xb8
 204 385 244 339 244 283 c 0
 244 208 198 145 173 122 c 1
 191 132 215 137 238 137 c 0x74
 276 137 309 94 361 94 c 0
 399 94 414 126 422 141 c 1
 426 143 434 139 438 134 c 24
 443 128 443 121 443 115 c 1
 432 83 386 -8 308 -8 c 0xb4
 240 -8 213 51 139 51 c 0x74
 113 51 79 10 62 -6 c 1
 54 -6 46 7 46 16 c 0
 46 45 82 78 96 94 c 0
 121 122 130 183 130 232 c 0xb4
 130 282 99 356 99 384 c 0
 99 520 222 636 316 636 c 0xb8
67 349 m 5
 83 349 372 349 383 349 c 5
 397 338 379 311 373 307 c 5
 47 307 l 21
 41 313 58 349 67 349 c 5
EndSplineSet
Substitution2: "'smcp' Lowercase to Small Capitals in Latin lookup 0 subtable" sterling.sc
EndChar

StartChar: currency
Encoding: 164 164 99
Width: 561
Flags: W
HStem: 120 40<240.989 331.532> 456 40<228.345 318.431>
VStem: 96 93<218.504 397.791> 368 93<217.847 397.55>
LayerCount: 2
Fore
SplineSet
287 160 m 0
 337 160 368 219 368 294 c 0
 368 386 325 456 273 456 c 0
 223 456 189 394 189 319 c 0
 189 227 235 160 287 160 c 0
392 455 m 1
 451 510 l 2
 459 518 485 490 492 466 c 1
 432 410 l 1
 450 380 461 344 461 307 c 0
 461 267 449 230 428 199 c 1
 482 141 l 2
 490 133 462 107 438 100 c 1
 386 155 l 1
 356 133 320 120 280 120 c 0
 237 120 197 135 166 160 c 1
 113 110 l 2
 105 102 79 130 72 154 c 1
 126 205 l 1
 107 235 96 270 96 307 c 0
 96 351 110 391 134 423 c 1
 82 479 l 2
 74 487 102 513 126 520 c 1
 178 465 l 1
 207 485 242 496 280 496 c 0
 323 496 361 481 392 455 c 1
EndSplineSet
EndChar

StartChar: yen
Encoding: 165 165 100
Width: 692
Flags: W
HStem: -4 37<186.721 252.999 409.001 475.279> 149 42<173.197 494.062> 229 42<173.197 494.062> 606 37<28.7205 85.0027 256.617 317.279 435.721 509.354 594.951 665.279>
VStem: 261 140<41.2661 306.418>
LayerCount: 2
Fore
SplineSet
182 191 m 5
 198 191 487 191 498 191 c 5
 512 180 494 153 488 149 c 5
 162 149 l 21
 156 155 173 191 182 191 c 5
182 271 m 5
 198 271 487 271 498 271 c 5
 512 260 494 233 488 229 c 5
 162 229 l 21
 156 235 173 271 182 271 c 5
261 145 m 2
 261 270 l 2
 261 285 130 518 130 518 c 2
 115 546 111 553 99 573 c 0
 84 598 44 605 31 606 c 1
 26 613 27 637 31 643 c 1
 70 639 132 636 174 636 c 0
 216 636 276 639 315 643 c 1
 319 637 320 613 315 606 c 1
 302 605 254 604 254 579 c 0
 254 575 257 570 261 563 c 2
 381 342 l 1
 386 337 464 479 507 559 c 0
 511 567 512 575 512 582 c 0
 512 600 451 605 438 606 c 1
 433 613 434 637 438 643 c 1
 485 639 505 636 551 636 c 0
 595 636 622 641 663 643 c 1
 667 637 668 613 663 606 c 1
 650 605 604 604 589 581 c 0
 567 548 402 284 402 265 c 2
 401 145 l 2
 401 102 401 71 409 51 c 0
 414 38 460 34 473 33 c 1
 478 26 477 2 473 -4 c 1
 434 0 372 3 330 3 c 0
 288 3 228 0 189 -4 c 1
 185 2 184 26 189 33 c 1
 202 34 248 38 253 51 c 0
 261 71 261 102 261 145 c 2
EndSplineSet
Substitution2: "'smcp' Lowercase to Small Capitals in Latin lookup 0 subtable" yen.sc
EndChar

StartChar: brokenbar
Encoding: 166 166 101
Width: 208
Flags: W
VStem: 78 53<-118.239 256.903 389.761 764.903>
LayerCount: 2
Back
SplineSet
106 -108 m 6
 106 -116 60 -123 58 -123 c 4
 51 -123 53 -119 53 -115 c 6
 53 757 l 5
 53 757 52 763 58 765 c 4
 75 770 94 770 97 770 c 4
 106 770 105 764 105 764 c 5
 106 -108 l 6
EndSplineSet
Fore
SplineSet
131 400 m 2
 131 392 85 385 83 385 c 0
 76 385 78 389 78 393 c 2
 78 757 l 1
 78 757 77 763 83 765 c 0
 100 770 119 770 122 770 c 0
 131 770 130 764 130 764 c 1
 131 400 l 2
131 -108 m 2
 131 -116 85 -123 83 -123 c 0
 76 -123 78 -119 78 -115 c 2
 78 249 l 1
 78 249 77 255 83 257 c 0
 100 262 119 262 122 262 c 0
 131 262 130 256 130 256 c 1
 131 -108 l 2
EndSplineSet
Substitution2: "'smcp' Lowercase to Small Capitals in Latin lookup 0 subtable" brokenbar.sc
EndChar

StartChar: section
Encoding: 167 167 102
Width: 467
Flags: W
HStem: -92 50<139 238.122> 603 50<228.878 328>
VStem: 36 71<347.939 450.268> 125 58<452 568> 284 58<-7 109> 360 71<110.62 213.061>
LayerCount: 2
Fore
SplineSet
146 -92 m 0
 132 -92 108 -84 96 -78 c 1
 92 -71 89 -58 89 -52 c 0
 89 -30 100 -9 129 -9 c 0
 148 -9 163 -22 172 -31 c 0
 180 -39 193 -42 208 -42 c 0
 239 -42 284 -26 284 12 c 0
 284 58 203 134 156 177 c 0
 92 236 36 285 36 377 c 0
 36 456 138 569 176 595 c 9
 175 583 179 575 174 564 c 24
 167 546 146 523 146 523 c 0
 120 492 107 475 107 431 c 0
 107 348 166 291 220 241 c 0
 268 197 342 143 342 75 c 0
 342 -5 258 -92 146 -92 c 0
321 653 m 0
 335 653 357 646 371 640 c 1
 376 630 378 616 378 610 c 0
 378 588 368 570 339 570 c 0
 320 570 307 582 298 590 c 0
 289 598 274 603 259 603 c 0
 228 603 183 587 183 549 c 0
 183 503 264 427 311 384 c 0
 375 325 431 276 431 184 c 0
 431 105 329 -8 291 -34 c 9
 292 -22 288 -14 293 -3 c 24
 300 15 321 37 321 37 c 0
 345 66 360 86 360 130 c 0
 360 213 301 270 247 320 c 0
 199 364 125 418 125 486 c 0
 125 566 209 653 321 653 c 0
EndSplineSet
Substitution2: "'smcp' Lowercase to Small Capitals in Latin lookup 0 subtable" section.sc
EndChar

StartChar: dieresis
Encoding: 168 168 103
Width: 407
Flags: W
HStem: 446 135<47.0563 147.491 257.509 358.491>
VStem: 30 135<463.509 563.944> 240 136<463.509 563.944>
LayerCount: 2
Fore
SplineSet
240 514 m 4
 240 552 270 581 308 581 c 4
 346 581 376 552 376 514 c 4
 376 476 346 446 308 446 c 4
 270 446 240 476 240 514 c 4
30 514 m 4
 30 552 59 581 97 581 c 4
 135 581 165 552 165 514 c 4
 165 476 135 446 97 446 c 4
 59 446 30 476 30 514 c 4
EndSplineSet
EndChar

StartChar: copyright
Encoding: 169 169 104
Width: 652
Flags: W
HStem: 38 44<232.089 419.972> 163 25<301.66 386.851> 429 26<297.167 383.362> 538 46<229.58 422.481>
VStem: 53 45<214.08 406.92> 184 72<223.57 383.568> 422 19<234.315 254.873> 554 46<214.08 406.92>
LayerCount: 2
Fore
SplineSet
441 252 m 1
 441 247 430 191 424 189 c 0
 398 180 367 163 329 163 c 0
 244 163 184 217 184 305 c 0
 184 394 255 455 333 455 c 0
 360 455 396 444 420 439 c 1
 421 434 434 382 434 377 c 0
 434 375 424 371 419 371 c 3
 417 371 415 370 413 372 c 1
 409 388 394 429 336 429 c 0
 278 429 256 368 256 310 c 0
 256 246 283 188 341 188 c 0
 366 188 382 195 393 205 c 0
 410 221 421 253 422 256 c 1
 428 256 438 255 441 252 c 1
98 310 m 0
 98 184 200 82 326 82 c 0
 452 82 554 184 554 310 c 0
 554 436 452 538 326 538 c 0
 200 538 98 436 98 310 c 0
53 311 m 0
 53 462 175 584 326 584 c 0
 477 584 600 462 600 311 c 0
 600 160 477 38 326 38 c 0
 175 38 53 160 53 311 c 0
EndSplineSet
Substitution2: "'smcp' Lowercase to Small Capitals in Latin lookup 0 subtable" copyright.sc
EndChar

StartChar: ordfeminine
Encoding: 170 170 105
Width: 383
Flags: W
HStem: 248 48<110.5 202.411 263 333.162> 527 30<143.861 230>
VStem: 42 98<301.952 376.005> 51 79<447.362 504.577> 214 95<302.005 399 435 516.116>
LayerCount: 2
Fore
SplineSet
185 296 m 0xe8
 200 296 214 307 214 311 c 2
 214 399 l 1
 200 394 180 388 165 379 c 0
 145 367 140 352 140 337 c 0
 141 308 166 296 185 296 c 0xe8
200 557 m 0
 260 557 309 513 309 452 c 2
 309 327 l 2
 309 309 318 302 327 302 c 0
 337 302 347 310 350 311 c 1
 353 310 357 301 357 297 c 3
 357 292 355 288 353 285 c 1
 343 276 306 249 275 249 c 0
 251 249 226 264 219 280 c 1
 212 275 164 248 138 248 c 0
 83 248 42 290 42 330 c 0xe8
 42 356 62 379 80 386 c 0
 107 396 177 422 214 435 c 1
 214 440 214 440 214 445 c 2
 214 463 l 2
 214 497 197 527 172 527 c 0
 144 527 137 503 130 473 c 0
 126 458 114 444 89 444 c 0
 69 444 51 457 51 476 c 0xd8
 51 485 55 496 61 505 c 1
 70 514 136 557 200 557 c 0
EndSplineSet
Substitution2: "'smcp' Lowercase to Small Capitals in Latin lookup 0 subtable" ordfeminine.sc
EndChar

StartChar: guillemotleft
Encoding: 171 171 106
Width: 500
Flags: W
LayerCount: 2
Fore
SplineSet
213 248 m 0
 213 243 216 237 220 233 c 1
 351 154 425 77 430 73 c 1
 436 74 453 82 457 92 c 1
 453 98 360 212 323 248 c 1
 360 284 453 398 457 404 c 1
 453 414 436 422 430 423 c 1
 425 419 351 342 220 263 c 1
 216 259 213 253 213 248 c 0
26 248 m 0
 26 243 29 237 33 233 c 1
 164 154 238 77 243 73 c 1
 249 74 266 82 270 92 c 1
 266 98 173 212 136 248 c 1
 173 284 266 398 270 404 c 1
 266 414 249 422 243 423 c 1
 238 419 164 342 33 263 c 1
 29 259 26 253 26 248 c 0
EndSplineSet
Substitution2: "'smcp' Lowercase to Small Capitals in Latin lookup 0 subtable" guillemotleft.sc
EndChar

StartChar: logicalnot
Encoding: 172 172 107
Width: 588
Flags: W
HStem: 362 58<49.2334 447>
VStem: 447 72<164.125 362>
LayerCount: 2
Fore
SplineSet
519 169 m 1
 518 168 482 160 460 160 c 0
 450 160 447 167 447 167 c 1
 447 167 447 326 447 362 c 1
 51 362 l 1
 51 362 45 362 45 372 c 1
 45 372 50 420 60 420 c 2
 519 420 l 17
 519 408 519 169 519 169 c 1
EndSplineSet
EndChar

StartChar: registered
Encoding: 174 174 108
Width: 652
Flags: W
HStem: 89 44<232.089 419.972> 234 16<201.594 228.894 294.106 321.406 455.28 475> 355 19<291 305.875> 482 19<201.711 228.894 293.099 336.556> 589 46<229.58 422.481>
VStem: 53 45<265.08 457.92> 232 59<258.378 355 374 477.622> 355 62<385.07 475.989> 554 46<265.08 457.92>
LayerCount: 2
Fore
SplineSet
325 501 m 0
 375 501 417 475 417 427 c 0
 417 394 375 367 356 362 c 1
 385 323 418 288 418 288 c 0
 447 255 472 251 475 251 c 1
 477 248 475 235 475 234 c 1
 463 233 446 232 430 232 c 0
 399 232 382 245 364 268 c 0
 304 349 l 0
 304 349 300 355 297 355 c 0
 294 355 291 355 291 355 c 9
 291 295 l 2
 291 278 291 266 294 258 c 0
 296 253 315 250 320 250 c 1
 322 247 322 236 320 234 c 1
 304 236 279 237 262 237 c 0
 245 237 219 236 203 234 c 1
 201 236 201 247 203 250 c 1
 208 250 227 253 229 258 c 0
 232 266 232 278 232 295 c 2
 232 441 l 2
 232 458 232 470 229 478 c 0
 227 483 208 484 203 484 c 1
 201 487 201 499 203 501 c 1
 221 500 246 500 263 500 c 0
 280 500 301 501 325 501 c 0
355 424 m 0
 355 456 340 482 313 482 c 0
 304 482 295 482 293 478 c 0
 291 473 291 465 291 453 c 2
 291 374 l 17
 307 374 l 0
 333 374 355 393 355 424 c 0
98 361 m 0
 98 235 200 133 326 133 c 0
 452 133 554 235 554 361 c 0
 554 487 452 589 326 589 c 0
 200 589 98 487 98 361 c 0
53 362 m 0
 53 513 175 635 326 635 c 0
 477 635 600 513 600 362 c 0
 600 211 477 89 326 89 c 0
 175 89 53 211 53 362 c 0
EndSplineSet
Substitution2: "'smcp' Lowercase to Small Capitals in Latin lookup 0 subtable" registered.sc
EndChar

StartChar: macron
Encoding: 175 175 109
Width: 469
Flags: W
HStem: 547 50<563.586 787.904>
VStem: 562 232<547.013 597>
LayerCount: 2
Fore
SplineSet
562 556 m 0
 562 558 563 597 574 597 c 2
 789 597 l 2
 791 597 794 596 794 590 c 0
 794 585 793 572 788 554 c 0
 786 548 781 547 781 547 c 1
 568 547 l 1
 568 547 562 546 562 556 c 0
EndSplineSet
EndChar

StartChar: degree
Encoding: 176 176 110
Width: 286
Flags: W
HStem: 425 46<95.2032 191.07> 602 45<94.6978 191.587>
VStem: 32 47<488.031 585.491> 208 46<488.031 585.491>
LayerCount: 2
Fore
SplineSet
79 537 m 0
 79 501 107 471 143 471 c 0
 179 471 208 501 208 537 c 0
 208 573 179 602 143 602 c 0
 107 602 79 573 79 537 c 0
32 537 m 0
 32 598 82 647 143 647 c 0
 204 647 254 598 254 537 c 0
 254 476 204 425 143 425 c 0
 82 425 32 476 32 537 c 0
EndSplineSet
Substitution2: "'smcp' Lowercase to Small Capitals in Latin lookup 0 subtable" degree.sc
EndChar

StartChar: plusminus
Encoding: 177 177 111
Width: 579
Flags: W
HStem: 6 64<52.4231 525.937> 303 64<52.4231 256 320 525.937>
VStem: 256 64<100.395 303 367 571.029>
LayerCount: 2
Fore
SplineSet
55 6 m 2
 50 6 49 12 49 22 c 0
 49 26 52 58 60 70 c 1
 521 70 l 2
 527 70 530 62 530 56 c 0
 530 35 523 16 515 6 c 1
 55 6 l 2
320 108 m 1
 308 100 277 97 267 97 c 0
 261 97 256 101 256 105 c 2
 256 303 l 1
 55 303 l 2
 50 303 49 309 49 319 c 0
 49 323 52 355 60 367 c 1
 256 367 l 1
 256 563 l 1
 267 572 300 574 304 574 c 0
 314 574 320 572 320 565 c 2
 320 367 l 1
 521 367 l 2
 527 367 530 359 530 353 c 0
 530 332 523 313 515 303 c 1
 320 303 l 1
 320 108 l 1
EndSplineSet
EndChar

StartChar: uni00B2
Encoding: 178 178 112
Width: 348
Flags: W
HStem: 254 71<121 267.546> 589 53<112.118 187.713>
VStem: 202 95<469.713 573.612>
LayerCount: 2
Fore
SplineSet
308 382 m 1
 301 353 274 265 270 254 c 9
 43 254 l 1
 40 257 37 265 36 268 c 1
 84 321 107 347 155 409 c 0
 190 454 202 487 202 525 c 0
 202 565 172 589 138 589 c 0
 94 589 72 545 67 540 c 5
 64 540 51 542 51 554 c 5
 62 577 111 642 181 642 c 0
 251 642 297 607 297 538 c 0
 297 484 254 438 216 403 c 0
 186 376 158 352 121 325 c 1
 131 325 233 325 233 325 c 2
 263 325 273 358 283 380 c 0
 284 383 290 385 294 385 c 0
 298 385 305 384 308 382 c 1
EndSplineSet
EndChar

StartChar: uni00B3
Encoding: 179 179 113
Width: 334
Flags: W
HStem: 245 27<116.55 187.878> 596 46<102.197 180.919>
VStem: 193 80<502.008 584.315> 212 90<311.683 416.952>
LayerCount: 2
Fore
SplineSet
177 642 m 0xe0
 213 642 273 619 273 558 c 0xe0
 273 497 222 481 200 477 c 1
 220 476 302 452 302 377 c 0
 302 288 204 245 126 245 c 0
 86 245 55 256 43 266 c 1
 39 272 34 284 34 293 c 0
 34 308 45 328 66 328 c 0
 83 328 95 314 106 297 c 0
 116 281 135 272 151 272 c 0
 189 272 212 299 212 354 c 0xd0
 212 400 181 443 140 443 c 0
 136 443 118 443 108 440 c 1
 106 443 102 450 102 455 c 0
 102 457 103 465 104 467 c 1
 135 471 193 488 193 538 c 0
 193 571 170 596 133 596 c 0
 100 596 73 568 69 563 c 1
 65 564 53 570 55 580 c 1
 78 610 129 642 177 642 c 0xe0
EndSplineSet
EndChar

StartChar: acute
Encoding: 180 180 114
Width: 236
Flags: W
HStem: 522 165
VStem: 28 173
LayerCount: 2
Fore
SplineSet
201 658 m 4
 201 619 55 522 45 522 c 4
 38 522 28 534 28 540 c 4
 28 545 84 635 121 678 c 4
 126 683 141 687 155 687 c 4
 190 687 201 666 201 658 c 4
EndSplineSet
EndChar

StartChar: uni00B5
Encoding: 181 181 115
Width: 540
Flags: HW
HStem: -8 122<211.892 303.523> -4 108<418.449 497.192> 426 20G<107 118 366 377>
VStem: 76 103<-204.804 3.83203> 85 107<269.229 424> 342 112<329.63 423.537> 351 53<161.665 276.288>
LayerCount: 2
Back
Refer: 888 956 N 1 0 0 1 0 0 3
Fore
SplineSet
159 220 m 1xa8
 165 179 186 114 237 114 c 0
 296 114 351 165 351 217 c 1xaa
 348 241 344 306 344 329 c 0
 344 342 343 384 342 422 c 1
 347 430 360 446 372 446 c 0
 382 446 454 419 454 406 c 0xa4
 454 374 439 326 428 282 c 0
 420 251 413 229 404 195 c 17
 403 113 438 104 456 104 c 0
 494 104 515 140 525 157 c 1
 531 157 541 136 543 129 c 0
 544 125 542 112 541 109 c 0
 527 67 500 -4 460 -4 c 0x62
 412 -3 383 58 374 122 c 1
 354 52 314 -8 258 -8 c 0
 208 -8 158 76 150 137 c 1
 152 112 157 -85 179 -203 c 1
 174 -211 155 -227 137 -227 c 0
 118 -227 76 -188 76 -175 c 0xb2
 76 -157 89 112 101 216 c 1
 101 240 85 357 85 380 c 0
 85 393 86 416 88 424 c 1
 92 435 101 446 113 446 c 0
 123 446 192 419 192 406 c 0
 192 368 184 336 178 308 c 0
 170 269 165 248 159 220 c 1xa8
EndSplineSet
EndChar

StartChar: paragraph
Encoding: 182 182 116
Width: 529
Flags: W
HStem: -4 37<171.275 236.479 417.616 485.584> 288 45<299 355> 299 45<406 435.484> 603 45<299.286 355.805> 616 37<409.838 458.1>
VStem: 34 265<377.565 560.613> 249 50<52.6687 287> 356 50<51.7075 292 344 595.672>
LayerCount: 2
Fore
SplineSet
356 338 m 1xd3
 356 374 356 585 356 598 c 1
 352 602 337 603 327 603 c 0
 317 603 305 603 299 597 c 1
 299 597 299 435 299 333 c 1
 305 333 352 335 356 338 c 1xd3
485 -4 m 1
 449 -2 390 3 329 3 c 24
 268 3 214 -2 173 -4 c 1
 168 5 171 33 173 33 c 0
 185 33 235 41 243 59 c 0
 250 74 249 95 249 116 c 2
 249 116 249 220 249 287 c 1xab
 121 287 34 349 34 469 c 0
 34 608 146 652 228 652 c 0
 287 652 277 648 336 648 c 0xb5
 403 648 456 653 456 653 c 1
 461 648 460 619 455 616 c 1
 440 616 414 608 409 596 c 0
 407 589 406 583 406 532 c 0
 406 471 406 363 406 344 c 1
 411 343 455 357 455 357 c 1
 460 357 459 351 459 347 c 0
 458 337 443 312 436 309 c 0
 425 304 413 300 405 299 c 1xad
 405 228 405 203 405 141 c 0
 405 105 405 74 410 60 c 0
 417 41 475 34 483 34 c 1
 489 24 487 2 485 -4 c 1
349 51 m 0
 356 66 355 87 355 108 c 2
 355 108 355 223 355 292 c 1
 341 291 315 289 299 288 c 1xc3
 299 231 299 190 299 133 c 0
 299 97 299 66 304 52 c 0
 306 46 346 45 349 51 c 0
EndSplineSet
Substitution2: "'smcp' Lowercase to Small Capitals in Latin lookup 0 subtable" paragraph.sc
EndChar

StartChar: periodcentered
Encoding: 183 183 117
Width: 238
Flags: W
HStem: 189 149<69.5543 171.29>
VStem: 46 147<212 316.5>
LayerCount: 2
Fore
SplineSet
46 265 m 0
 46 305 79 338 120 338 c 27
 160 338 193 305 193 265 c 0
 193 225 162 189 122 189 c 27
 80 189 46 225 46 265 c 0
EndSplineSet
EndChar

StartChar: cedilla
Encoding: 184 184 118
Width: 454
Flags: W
HStem: -156 28<162.459 244.958> -65 63<203.959 246>
VStem: 251 54<-124.534 -65.5938>
LayerCount: 2
Fore
SplineSet
233 -25 m 1
 241 -24 246 -23 255 -23 c 27
 282 -23 305 -46 305 -72 c 0
 305 -119 269 -156 208 -156 c 0
 186 -156 167 -147 160 -140 c 1
 158 -137 156 -124 156 -120 c 0
 156 -114 157 -113 159 -113 c 1
 163 -115 186 -128 207 -128 c 0
 241 -128 251 -112 251 -98 c 0
 251 -84 246 -65 225 -65 c 0
 219 -65 209 -68 199 -72 c 1
 196 -72 186 -63 186 -57 c 1
 195 -42 208 -17 214 -2 c 1
 246 -2 l 1
 246 -2 238 -16 233 -25 c 1
EndSplineSet
EndChar

StartChar: uni00B9
Encoding: 185 185 119
Width: 288
Flags: W
HStem: 252 26<52.1213 100.849 209.394 256.878> 621 20G<193 197>
VStem: 112 87<292.304 557.384>
LayerCount: 2
Fore
SplineSet
256 252 m 1
 232 253 180 256 156 256 c 0
 132 256 78 253 54 252 c 1
 51 255 51 278 54 278 c 1
 62 278 95 284 102 292 c 0
 107 298 112 336 112 347 c 2
 112 511 l 2
 112 538 105 558 93 558 c 0
 84 558 59 547 48 542 c 1
 43 543 37 554 37 562 c 0
 37 563 37 568 38 569 c 1
 109 599 192 641 194 641 c 2
 195 641 l 2
 199 641 210 624 211 621 c 1
 208 610 199 575 199 536 c 2
 199 346 l 2
 199 328 202 298 209 291 c 0
 217 282 251 278 256 278 c 1
 258 278 257 253 256 252 c 1
EndSplineSet
EndChar

StartChar: ordmasculine
Encoding: 186 186 120
Width: 402
Flags: W
HStem: 251 31<172.805 244.181> 523 30<157.125 227.443>
VStem: 33 102<324.228 475.727> 267 102<328.742 480.169>
LayerCount: 2
Fore
SplineSet
192 523 m 3
 139 523 135 461 135 413 c 27
 135 355 156 282 209 282 c 3
 262 282 267 343 267 390 c 27
 267 448 245 523 192 523 c 3
200 553 m 0
 299 553 369 489 369 405 c 0
 369 321 296 251 201 251 c 0
 102 251 33 316 33 400 c 0
 33 484 106 553 200 553 c 0
EndSplineSet
Substitution2: "'smcp' Lowercase to Small Capitals in Latin lookup 0 subtable" ordmasculine.sc
EndChar

StartChar: guillemotright
Encoding: 187 187 121
Width: 500
Flags: W
LayerCount: 2
Fore
SplineSet
288 248 m 0
 288 243 285 237 281 233 c 1
 150 154 76 77 71 73 c 1
 65 74 48 82 44 92 c 1
 48 98 141 212 178 248 c 1
 141 284 48 398 44 404 c 1
 48 414 65 422 71 423 c 1
 76 419 150 342 281 263 c 1
 285 259 288 253 288 248 c 0
475 248 m 4
 475 243 472 237 468 233 c 5
 337 154 263 77 258 73 c 5
 252 74 235 82 231 92 c 5
 235 98 328 212 365 248 c 5
 328 284 235 398 231 404 c 5
 235 414 252 422 258 423 c 5
 263 419 337 342 468 263 c 5
 472 259 475 253 475 248 c 4
EndSplineSet
Substitution2: "'smcp' Lowercase to Small Capitals in Latin lookup 0 subtable" guillemotright.sc
EndChar

StartChar: onequarter
Encoding: 188 188 122
Width: 740
Flags: W
HStem: -3 21G<609 633.5> 92 46<477.824 580 667 704.297> 252 26<50.1213 98.8495 207.394 254.878> 621 20G<191 195>
VStem: 110 87<292.304 557.384> 580 87<-1.5817 92 138 262>
LayerCount: 2
Fore
SplineSet
647 386 m 0
 651 386 667 377 667 367 c 10
 667 138 l 25
 696 138 l 2
 701 138 705 135 705 122 c 0
 705 113 700 92 700 92 c 9
 667 92 l 25
 667 2 l 17
 667 2 647 -3 620 -3 c 0
 598 -3 580 0 580 5 c 2
 580 92 l 25
 427 92 l 17
 422 94 415 101 415 109 c 1
 490 199 569 298 634 378 c 0
 638 383 642 386 647 386 c 0
580 138 m 1
 580 182 580 262 580 262 c 17
 557 235 490 152 478 138 c 1
 473 138 548 138 580 138 c 1
604 677 m 1
 259 -11 l 2
 256 -18 239 -30 222 -34 c 0
 207 -37 205 -25 205 -25 c 1
 550 663 l 1
 556 672 569 680 586 684 c 0
 595 686 603 682 604 677 c 1
254 252 m 1
 230 253 178 256 154 256 c 0
 130 256 76 253 52 252 c 1
 49 255 49 278 52 278 c 1
 60 278 93 284 100 292 c 0
 105 298 110 336 110 347 c 2
 110 511 l 2
 110 538 103 558 91 558 c 0
 82 558 57 547 46 542 c 1
 41 543 35 554 35 562 c 0
 35 563 35 568 36 569 c 1
 107 599 190 641 192 641 c 2
 193 641 l 2
 197 641 208 624 209 621 c 1
 206 610 197 575 197 536 c 2
 197 346 l 2
 197 328 200 298 207 291 c 0
 215 282 249 278 254 278 c 1
 256 278 255 253 254 252 c 1
EndSplineSet
EndChar

StartChar: onehalf
Encoding: 189 189 123
Width: 751
Flags: W
HStem: -2 71<529 675.546> 252 26<51.0156 98.8495 207.394 254.615> 333 53<520.118 595.713> 621 20G<191 195>
VStem: 110 87<292.304 557.384> 610 95<213.713 317.612>
LayerCount: 2
Fore
SplineSet
716 126 m 5
 709 97 682 9 678 -2 c 13
 451 -2 l 5
 448 1 445 9 444 12 c 5
 492 65 515 91 563 153 c 4
 598 198 610 231 610 269 c 4
 610 309 580 333 546 333 c 4
 502 333 480 289 475 284 c 5
 472 284 459 286 459 298 c 5
 470 321 519 386 589 386 c 4
 659 386 705 351 705 282 c 4
 705 228 662 182 624 147 c 4
 594 120 566 96 529 69 c 5
 539 69 641 69 641 69 c 6
 671 69 681 102 691 124 c 4
 692 127 698 129 702 129 c 4
 706 129 713 128 716 126 c 5
582 677 m 5
 237 -11 l 6
 234 -18 217 -30 200 -34 c 4
 185 -37 183 -25 183 -25 c 5
 528 663 l 5
 534 672 547 680 564 684 c 4
 573 686 581 682 582 677 c 5
254 252 m 5
 230 253 178 256 154 256 c 4
 130 256 76 253 52 252 c 5
 49 255 49 278 52 278 c 5
 60 278 93 284 100 292 c 4
 105 298 110 336 110 347 c 6
 110 511 l 6
 110 538 103 558 91 558 c 4
 82 558 57 547 46 542 c 5
 41 543 35 554 35 562 c 4
 35 563 35 568 36 569 c 5
 107 599 190 641 192 641 c 6
 193 641 l 6
 197 641 208 624 209 621 c 5
 206 610 197 575 197 536 c 6
 197 346 l 6
 197 328 200 298 207 291 c 4
 215 282 249 278 254 278 c 5
 256 278 255 253 254 252 c 5
EndSplineSet
EndChar

StartChar: threequarters
Encoding: 190 190 124
Width: 751
Flags: W
HStem: -3 21G<619 643.5> 92 46<487.824 590 677 714.297> 245 27<116.55 187.878> 596 46<102.197 180.919>
VStem: 193 80<502.008 584.315> 212 90<311.683 416.952> 590 87<-1.5817 92 138 262>
LayerCount: 2
Fore
SplineSet
177 642 m 0xfa
 213 642 273 619 273 558 c 0xfa
 273 497 222 481 200 477 c 1
 220 476 302 452 302 377 c 0
 302 288 204 245 126 245 c 0
 86 245 55 256 43 266 c 1
 39 272 34 284 34 293 c 0
 34 308 45 328 66 328 c 0
 83 328 95 314 106 297 c 0
 116 281 135 272 151 272 c 0
 189 272 212 299 212 354 c 0xf6
 212 400 181 443 140 443 c 0
 136 443 118 443 108 440 c 1
 106 443 102 450 102 455 c 0
 102 457 103 465 104 467 c 1
 135 471 193 488 193 538 c 0
 193 571 170 596 133 596 c 0
 100 596 73 568 69 563 c 1
 65 564 53 570 55 580 c 1
 78 610 129 642 177 642 c 0xfa
657 386 m 0
 661 386 677 377 677 367 c 10
 677 138 l 25
 706 138 l 2
 711 138 715 135 715 122 c 0
 715 113 710 92 710 92 c 9
 677 92 l 25
 677 2 l 17
 677 2 657 -3 630 -3 c 0
 608 -3 590 0 590 5 c 2
 590 92 l 25
 437 92 l 17
 432 94 425 101 425 109 c 1
 500 199 579 298 644 378 c 0
 648 383 652 386 657 386 c 0
590 138 m 1
 590 182 590 262 590 262 c 17
 567 235 500 152 488 138 c 1
 483 138 558 138 590 138 c 1
614 677 m 1
 269 -11 l 2
 266 -18 249 -30 232 -34 c 0
 217 -37 215 -25 215 -25 c 1
 560 663 l 1
 566 672 579 680 596 684 c 0
 605 686 613 682 614 677 c 1
EndSplineSet
EndChar

StartChar: questiondown
Encoding: 191 191 125
Width: 387
Flags: W
HStem: -214 67<146.786 262.5> 294 150<204.75 305.711>
VStem: 32 85<-116.841 6> 183 147<315.125 419.536> 245 38<177.477 236.338>
LayerCount: 2
Fore
SplineSet
330 367 m 0xf0
 330 325 296 294 258 294 c 0
 216 294 183 326 183 367 c 0
 183 408 214 444 254 444 c 0
 291 444 330 412 330 367 c 0xf0
281 -85 m 0
 319 -85 343 -118 343 -151 c 0
 343 -168 335 -191 328 -197 c 1
 314 -205 287 -214 238 -214 c 0
 193 -214 32 -177 32 -38 c 0
 32 50 105 84 158 117 c 0
 185 134 223 152 240 177 c 0
 247 187 245 209 245 219 c 1
 247 225 255 237 260 237 c 0
 268 237 279 229 283 225 c 1xe8
 290 209 303 165 303 125 c 0
 303 67 259 35 223 11 c 0
 173 -22 117 -65 117 -99 c 0
 117 -120 135 -147 171 -147 c 0
 207 -147 239 -85 281 -85 c 0
EndSplineSet
Substitution2: "'smcp' Lowercase to Small Capitals in Latin lookup 0 subtable" questiondown.sc
EndChar

StartChar: AE
Encoding: 198 198 132
Width: 894
Flags: W
HStem: -4 37<-25.0761 36.3411 137.438 197.292 330.837 396.999> -2 44<552.273 763.133> 4 28<-23 85> 225 48<253.999 405> 310 47<545 692.427> 620 37<331.646 398 548.003 738.441>
VStem: 405 140<50.3979 225 273.695 306.897 358.474 520 604 616.372> 729 31<386.617 434.825>
LayerCount: 2
Fore
SplineSet
405 275 m 1x1f
 405 520 l 1
 254 280 l 1
 254 280 253 276 255 276 c 0
 275 274 308 273 331 273 c 0
 360 273 378 273 405 275 c 1x1f
545 547 m 2
 545 368 l 2
 545 362 566 357 588 357 c 2
 641 357 l 2
 700 357 713 369 729 427 c 0
 730 432 734 435 741 435 c 0
 748 435 757 433 760 430 c 1
 760 238 l 1
 758 236 749 234 742 234 c 0
 735 234 729 237 728 242 c 0
 716 290 702 299 693 303 c 0
 681 308 655 310 617 310 c 0
 589 310 545 308 545 296 c 2
 545 141 l 2
 545 135 545 82 553 62 c 0
 559 48 592 42 618 42 c 2
 684 42 l 2
 722 42 754 52 777 75 c 0
 798 96 814 125 831 170 c 0
 832 174 838 176 845 176 c 0
 855 176 872 173 875 170 c 1
 856 116 828 42 821 -2 c 1x5f
 779 -2 372 -2 333 -3 c 1
 329 3 328 27 333 34 c 1
 346 35 392 38 397 51 c 0
 405 71 405 102 405 145 c 2
 405 225 l 1
 374 226 347 225 326 225 c 0
 285 225 263 225 228 224 c 0
 225 224 221 221 220 219 c 2
 220 219 181 160 165 132 c 0
 150 107 132 73 131 66 c 0
 126 40 187 33 195 33 c 1
 200 26 200 0 196 -4 c 1x9f
 162 0 129 4 85 4 c 0x3f
 39 4 12 0 -24 -4 c 1x9f
 -27 0 -29 21 -23 32 c 1x3f
 -11 32 42 48 55 64 c 0
 78 92 87 106 104 134 c 2
 398 604 l 0
 398 605 398 606 397 607 c 0
 390 621 346 622 333 623 c 1
 328 630 329 654 333 660 c 1
 378 657 434 657 476 657 c 0
 518 657 742 663 801 664 c 1
 808 614 821 561 830 516 c 1
 827 513 814 511 807 511 c 0
 800 511 793 514 791 519 c 0
 770 574 744 620 683 620 c 2
 600 620 l 2
 577 620 555 619 550 608 c 0
 545 596 545 576 545 547 c 2
EndSplineSet
EndChar

StartChar: Eth
Encoding: 208 208 142
Width: 766
Flags: W
HStem: -3 42<37.9366 105.641 260.411 433.507> 308 40<29.3369 382.828> 620 40<37.2383 105.348 253.682 407.899>
VStem: 111 140<49.4974 616.164> 560 159<207.017 459.229>
LayerCount: 2
Fore
SplineSet
381 308 m 5
 352 308 45 308 31 308 c 5
 27 308 26 339 32 348 c 5
 61 348 367 348 381 348 c 5
 385 348 385 317 381 308 c 5
EndSplineSet
Refer: 36 68 N 1 0 0 1 2 0 2
EndChar

StartChar: multiply
Encoding: 215 215 149
Width: 472
Flags: W
LayerCount: 2
Fore
SplineSet
419 107 m 5
 416 93 396 69 389 62 c 4
 385 58 379 57 376 60 c 6
 236 200 l 5
 94 58 l 6
 90 54 85 58 78 65 c 4
 75 68 55 92 52 106 c 5
 191 245 l 5
 52 384 l 5
 53 398 75 422 78 425 c 4
 85 432 91 435 96 430 c 6
 236 290 l 5
 378 432 l 6
 382 436 390 433 394 429 c 4
 409 414 418 396 419 383 c 5
 281 245 l 5
 419 107 l 5
EndSplineSet
Substitution2: "'smcp' Lowercase to Small Capitals in Latin lookup 0 subtable" multiply.sc
EndChar

StartChar: Oslash
Encoding: 216 216 150
Width: 750
Flags: W
HStem: -10 43<318.356 466.535> 624 43<284.38 432.304>
VStem: 36 160<211.696 443.97> 556 160<211.714 444.117>
LayerCount: 2
Fore
SplineSet
542 676 m 17
 550 673 582 662 580 655 c 9
 203 -18 l 17
 195 -15 163 -3 165 4 c 9
 542 676 l 17
EndSplineSet
Refer: 47 79 N 1 0 0 1 1 0 2
EndChar

StartChar: Thorn
Encoding: 222 222 156
Width: 579
Flags: W
HStem: -4 37<34.7205 100.998 257.001 323.279> 3 198<157 310.148> 146 51<294.633 378.611> 479 38<252.35 357.137> 625 37<34.7205 100.998 257.001 323.279>
VStem: 109 140<41.2661 476.969 517 616.734> 418 142<250.288 416.362>
LayerCount: 2
Fore
SplineSet
180 655 m 0x9e
 222 655 282 658 321 662 c 1
 325 656 326 632 321 625 c 1
 308 624 262 620 257 607 c 0
 249 588 249 558 249 517 c 1
 275 518 304 519 334 519 c 0
 459 519 560 455 560 341 c 0
 560 221 464 146 363 146 c 0xbe
 327 146 301 162 294 169 c 0
 288 175 283 201 290 201 c 1x5e
 300 198 316 197 331 197 c 0
 380 197 418 250 418 327 c 0
 418 406 371 479 304 479 c 0
 281 479 259 478 254 467 c 0
 249 455 249 406 249 406 c 1
 249 145 l 2
 249 102 249 71 257 51 c 0
 262 38 308 34 321 33 c 1
 326 26 325 2 321 -4 c 1xbe
 282 0 220 3 178 3 c 0x5e
 136 3 76 0 37 -4 c 1
 33 2 32 26 37 33 c 1
 50 34 96 38 101 51 c 0
 109 71 109 102 109 145 c 2
 109 513 l 2
 109 556 109 587 101 607 c 0
 96 620 50 624 37 625 c 1
 32 632 33 656 37 662 c 1
 76 658 138 655 180 655 c 0x9e
EndSplineSet
EndChar

StartChar: germandbls
Encoding: 223 223 157
Width: 585
Flags: W
HStem: -10 44<20.4576 86.1145 229.472 274.542 374 464.693> 381 47<37.9586 93> 651 47<264.531 348.53>
VStem: 93 130<41.2661 381 428 538.361> 383 9<402 525> 469 92<74.0376 183.5>
LayerCount: 2
Fore
SplineSet
327 698 m 0
 413 698 502 643 502 563 c 0
 502 515 474 490 451 470 c 0
 428 450 392 425 392 402 c 0
 392 365 459 315 489 286 c 0
 525 251 561 214 561 153 c 0
 561 52 467 -10 391 -10 c 0
 357 -10 316 0 300 17 c 1
 295 27 291 40 291 54 c 0
 291 86 310 122 340 122 c 0
 375 122 388 88 397 70 c 0
 406 52 418 34 437 34 c 0
 460 34 469 53 469 82 c 0
 469 131 425 170 385 210 c 0
 344 251 289 290 289 348 c 0
 289 377 317 401 340 427 c 0
 366 456 383 479 383 525 c 0
 383 582 360 651 302 651 c 0
 262 651 223 586 223 486 c 0
 223 385 223 145 223 145 c 2
 223 102 223 71 231 51 c 0
 236 38 261 34 274 33 c 1
 279 26 278 2 274 -4 c 1
 235 0 200 3 158 3 c 0
 116 3 60 0 21 -4 c 1
 17 2 16 26 21 33 c 1
 34 34 80 38 85 51 c 0
 93 71 93 102 93 145 c 2
 93 145 93 292 93 381 c 1
 66 381 60 381 34 381 c 1
 29 383 29 390 29 394 c 1
 39 408 49 418 61 428 c 1
 74 428 83 428 93 428 c 9
 93 443 l 2
 93 580 222 698 327 698 c 0
EndSplineSet
Substitution2: "'smcp' Lowercase to Small Capitals in Latin lookup 0 subtable" germandbls.sc
EndChar

StartChar: ae
Encoding: 230 230 164
Width: 692
Flags: W
HStem: -9 84<463.392 567.626> -8 70<122 234.717> 242 40<397 524.823> 406 41<168.332 257.147 435.135 517.103>
VStem: 29 135<78.1133 172.955> 41 108<292.124 371.344> 539 124<289.978 370.347>
LayerCount: 2
Fore
SplineSet
294 102 m 1x7a
 287 124 279 161 279 194 c 0
 279 206 279 208 280 223 c 1
 261 216 220 204 200 191 c 0
 172 173 163 146 164 124 c 0
 165 81 199 62 225 62 c 0
 250 62 294 85 294 102 c 1x7a
397 282 m 1
 406 281 502 287 526 290 c 0
 538 291 539 300 539 306 c 11
 539 352 523 406 478 406 c 3
 419 406 397 316 397 282 c 1
488 447 m 0
 619 447 663 354 663 296 c 0
 663 274 651 255 636 254 c 0
 568 248 470 244 396 242 c 1
 396 102 491 75 536 75 c 0
 594 75 627 102 648 125 c 1
 655 123 660 113 660 107 c 3
 660 100 659 91 657 88 c 0
 639 60 571 -9 476 -9 c 0xb6
 409 -9 351 16 316 64 c 1
 265 23 194 -8 160 -8 c 0
 84 -8 29 55 29 114 c 0x7a
 29 153 55 186 81 194 c 0
 119 206 232 245 283 263 c 1
 287 266 291 278 291 285 c 0
 291 298 291 307 289 318 c 0
 279 375 242 411 207 411 c 0
 169 411 159 372 149 327 c 0
 144 304 128 283 93 283 c 0
 66 283 41 303 41 331 c 0x76
 41 344 47 358 55 372 c 1
 68 385 158 449 246 449 c 0
 293 449 335 429 363 394 c 1
 398 426 442 447 488 447 c 0
EndSplineSet
Substitution2: "'smcp' Lowercase to Small Capitals in Latin lookup 0 subtable" ae.sc
EndChar

StartChar: eth
Encoding: 240 240 174
Width: 538
Flags: W
HStem: -6 42<222.317 305.738> 406 42<216.808 309.493> 663 28<97.4287 123.598>
VStem: 32 138<115.982 324.81> 349 139<141.468 357.594>
LayerCount: 2
Fore
SplineSet
263 406 m 0
 192 406 170 303 170 212 c 0
 170 96 225 36 264 36 c 0
 331 36 349 135 349 225 c 0
 349 276 341 333 320 375 c 1
 308 392 291 406 263 406 c 0
96 663 m 1
 94 674 95 685 103 691 c 1
 171 681 298 627 384 530 c 0
 443 464 488 378 488 259 c 3
 488 107 394 -6 262 -6 c 0
 156 -6 32 59 32 218 c 0
 32 373 148 448 245 448 c 0
 270 448 289 445 310 440 c 1
 284 516 222 607 96 663 c 1
366 708 m 17
 371 702 392 679 387 674 c 9
 134 502 l 17
 128 509 109 532 114 537 c 9
 366 708 l 17
EndSplineSet
Substitution2: "'smcp' Lowercase to Small Capitals in Latin lookup 0 subtable" eth.sc
EndChar

StartChar: divide
Encoding: 247 247 181
Width: 561
Flags: W
HStem: -3 132<233.406 329.975> 222 59<56.9133 506.998> 366 133<233.406 329.975>
VStem: 216 132<14.5095 110.893 383.654 480.893>
LayerCount: 2
Fore
SplineSet
348 432 m 0
 348 397 319 366 283 366 c 27
 246 366 216 396 216 434 c 0
 216 469 246 499 282 499 c 27
 319 499 348 467 348 432 c 0
348 62 m 0
 348 27 319 -3 283 -3 c 27
 246 -3 216 27 216 65 c 0
 216 100 246 129 282 129 c 27
 319 129 348 97 348 62 c 0
500 222 m 5
 339 222 220 222 48 222 c 5
 36 222 50 276 64 281 c 13
 513 281 l 21
 527 281 514 229 500 222 c 5
EndSplineSet
Substitution2: "'smcp' Lowercase to Small Capitals in Latin lookup 0 subtable" divide.sc
EndChar

StartChar: oslash
Encoding: 248 248 182
Width: 528
Flags: W
HStem: -7 42<228.597 321.545> 406 41<208.207 297.807>
VStem: 31 142<118.592 313.407> 357 142<126.606 322.548>
LayerCount: 2
Fore
SplineSet
374 455 m 21
 382 452 408 443 406 436 c 13
 153 -16 l 21
 145 -13 119 -3 121 4 c 13
 374 455 l 21
EndSplineSet
Refer: 79 111 N 1 0 0 1 1 0 2
Substitution2: "'smcp' Lowercase to Small Capitals in Latin lookup 0 subtable" oslash.sc
EndChar

StartChar: thorn
Encoding: 254 254 188
Width: 529
Flags: W
HStem: -218 37<-10.2795 55.9985 202.001 268.279> -8 44<208.186 304.344> 375 73<243.741 310.816> 624 32<-5.67188 51.5286> 675 20G<188.5 193>
VStem: 64 130<-172.734 0.997055 50.0771 367.992 387.253 615.244> 356 144<134.92 323.157>
LayerCount: 2
Fore
SplineSet
64 -69 m 2
 64 558 l 2
 64 575 64 589 57 606 c 0
 52 618 9 624 -3 624 c 1
 -7 624 -8 652 -3 656 c 1
 109 666 187 695 190 695 c 1
 196 694 204 683 205 678 c 1
 205 678 194 616 194 576 c 0
 194 408 194 410 194 394 c 0
 194 388 196 386 198 388 c 0
 228 420 273 448 304 448 c 0
 425 448 500 345 500 234 c 0
 500 81 365 -8 255 -8 c 0
 227 -8 201 1 197 1 c 1
 194 1 194 -3 194 -15 c 2
 194 -69 l 2
 194 -112 194 -143 202 -163 c 0
 207 -176 253 -180 266 -181 c 1
 271 -188 270 -212 266 -218 c 1
 227 -214 171 -211 129 -211 c 0
 87 -211 31 -214 -8 -218 c 1
 -12 -212 -13 -188 -8 -181 c 1
 5 -180 51 -176 56 -163 c 0
 64 -143 64 -112 64 -69 c 2
194 96 m 2
 194 56 227 36 262 36 c 0
 295 36 356 83 356 199 c 0
 356 302 330 375 249 375 c 0
 212 375 194 352 194 347 c 2
 194 96 l 2
EndSplineSet
Substitution2: "'smcp' Lowercase to Small Capitals in Latin lookup 0 subtable" thorn.sc
EndChar

StartChar: gravecomb
Encoding: 768 768 190
Width: 249
Flags: W
HStem: 522 165
VStem: 44 173
LayerCount: 2
Fore
SplineSet
44 658 m 0
 44 666 55 687 90 687 c 0
 104 687 119 683 124 678 c 0
 161 635 217 545 217 540 c 0
 217 534 207 522 200 522 c 0
 190 522 44 619 44 658 c 0
EndSplineSet
EndChar

StartChar: acutecomb
Encoding: 769 769 191
Width: 236
Flags: W
HStem: 522 165
VStem: 28 173
LayerCount: 2
Fore
SplineSet
155 687 m 4
 190 687 201 666 201 658 c 0
 201 619 55 522 45 522 c 0
 38 522 28 534 28 540 c 0
 28 545 84 635 121 678 c 0
 126 683 141 687 155 687 c 4
EndSplineSet
EndChar

StartChar: uni2010
Encoding: 8208 8208 197
Width: 316
Flags: W
HStem: 193 74<32.0093 185.957> 204 75<139.043 285.537>
VStem: 29 261
LayerCount: 2
Fore
SplineSet
29 204 m 0x60
 29 252 38 267 41 267 c 2
 42 267 l 1xa0
 283 279 l 1
 284 279 l 2
 286 279 290 278 290 270 c 0
 290 221 277 204 277 204 c 1x60
 36 193 l 1xa0
 36 193 29 192 29 204 c 0x60
EndSplineSet
EndChar

StartChar: uni2011
Encoding: 8209 8209 198
Width: 316
Flags: W
HStem: 193 74<32.0093 185.957> 204 75<139.043 285.537>
VStem: 29 261
LayerCount: 2
Fore
SplineSet
29 204 m 0x60
 29 252 38 267 41 267 c 2
 42 267 l 1xa0
 283 279 l 1
 284 279 l 2
 286 279 290 278 290 270 c 0
 290 221 277 204 277 204 c 1x60
 36 193 l 1xa0
 36 193 29 192 29 204 c 0x60
EndSplineSet
EndChar

StartChar: figuredash
Encoding: 8210 8210 199
Width: 501
Flags: W
HStem: 194 74<33.4735 464.904>
LayerCount: 2
Fore
SplineSet
29 203 m 0
 29 205 32 268 43 268 c 2
 468 268 l 2
 470 268 474 267 474 259 c 0
 474 241 466 205 465 201 c 0
 463 195 458 194 458 194 c 1
 35 194 l 1
 35 194 29 193 29 203 c 0
EndSplineSet
EndChar

StartChar: endash
Encoding: 8211 8211 200
Width: 560
Flags: W
HStem: 194 74<62.4735 493.904>
LayerCount: 2
Fore
SplineSet
58 203 m 0
 58 205 61 268 72 268 c 2
 497 268 l 2
 499 268 503 267 503 259 c 0
 503 241 495 205 494 201 c 0
 492 195 487 194 487 194 c 1
 64 194 l 1
 64 194 58 193 58 203 c 0
EndSplineSet
EndChar

StartChar: emdash
Encoding: 8212 8212 201
Width: 945
Flags: W
HStem: 194 74<62.4735 878.904>
LayerCount: 2
Fore
SplineSet
58 203 m 0
 58 205 61 268 72 268 c 2
 882 268 l 2
 884 268 888 267 888 259 c 0
 888 241 880 205 879 201 c 0
 877 195 872 194 872 194 c 1
 64 194 l 1
 64 194 58 193 58 203 c 0
EndSplineSet
EndChar

StartChar: afii00208
Encoding: 8213 8213 202
Width: 1082
Flags: W
HStem: 194 74<33.4735 1043.9>
LayerCount: 2
Fore
SplineSet
29 203 m 0
 29 205 32 268 43 268 c 2
 1047 268 l 2
 1049 268 1053 267 1053 259 c 0
 1053 241 1045 205 1044 201 c 0
 1042 195 1037 194 1037 194 c 1
 35 194 l 1
 35 194 29 193 29 203 c 0
EndSplineSet
EndChar

StartChar: quoteleft
Encoding: 8216 8216 203
Width: 185
Flags: W
HStem: 474 232<92 150>
VStem: 40 71<540 628.636>
LayerCount: 2
Fore
SplineSet
40 555 m 4
 40 649 141 706 150 706 c 4
 158 706 167 699 171 688 c 5
 111 652 111 623 111 614 c 4
 111 588 121 572 131 560 c 4
 142 547 153 538 153 524 c 4
 153 500 124 474 92 474 c 4
 85 474 64 478 55 485 c 5
 46 498 40 525 40 555 c 4
EndSplineSet
EndChar

StartChar: quoteright
Encoding: 8217 8217 204
Width: 193
Flags: W
HStem: 474 232<57 115>
VStem: 96 71<551.364 640>
LayerCount: 2
Fore
SplineSet
167 625 m 4
 167 531 66 474 57 474 c 4
 49 474 40 481 36 492 c 5
 96 528 96 557 96 566 c 4
 96 592 86 608 76 620 c 4
 65 633 54 642 54 656 c 4
 54 680 83 706 115 706 c 4
 122 706 143 702 152 695 c 5
 161 682 167 655 167 625 c 4
EndSplineSet
EndChar

StartChar: quotesinglbase
Encoding: 8218 8218 205
Width: 199
Flags: W
HStem: -107 232<43 101>
VStem: 82 71<-29.6363 59>
LayerCount: 2
Fore
SplineSet
153 44 m 4
 153 -50 52 -107 43 -107 c 4
 35 -107 26 -100 22 -89 c 5
 82 -53 82 -24 82 -15 c 4
 82 11 71 27 61 39 c 4
 50 52 40 61 40 75 c 4
 40 99 69 125 101 125 c 4
 108 125 129 121 138 114 c 5
 147 101 153 74 153 44 c 4
EndSplineSet
EndChar

StartChar: quotedblleft
Encoding: 8220 8220 206
Width: 333
Flags: W
HStem: 474 232<92 150 240 298>
VStem: 40 71<540 628.636> 188 71<540 628.636>
LayerCount: 2
Fore
SplineSet
188 555 m 4
 188 649 289 706 298 706 c 4
 306 706 315 699 319 688 c 5
 259 652 259 623 259 614 c 4
 259 588 269 572 279 560 c 4
 290 547 301 538 301 524 c 4
 301 500 272 474 240 474 c 4
 233 474 212 478 203 485 c 5
 194 498 188 525 188 555 c 4
40 555 m 4
 40 649 141 706 150 706 c 4
 158 706 167 699 171 688 c 5
 111 652 111 623 111 614 c 4
 111 588 121 572 131 560 c 4
 142 547 153 538 153 524 c 4
 153 500 124 474 92 474 c 4
 85 474 64 478 55 485 c 5
 46 498 40 525 40 555 c 4
EndSplineSet
EndChar

StartChar: quotedblright
Encoding: 8221 8221 207
Width: 341
Flags: W
HStem: 474 232<57 115 205 263>
VStem: 96 71<551.364 640> 244 71<551.364 640>
LayerCount: 2
Fore
SplineSet
167 625 m 4
 167 531 66 474 57 474 c 4
 49 474 40 481 36 492 c 5
 96 528 96 557 96 566 c 4
 96 592 86 608 76 620 c 4
 65 633 54 642 54 656 c 4
 54 680 83 706 115 706 c 4
 122 706 143 702 152 695 c 5
 161 682 167 655 167 625 c 4
315 625 m 4
 315 531 214 474 205 474 c 4
 197 474 188 481 184 492 c 5
 244 528 244 557 244 566 c 4
 244 592 234 608 224 620 c 4
 213 633 202 642 202 656 c 4
 202 680 231 706 263 706 c 4
 270 706 291 702 300 695 c 5
 309 682 315 655 315 625 c 4
EndSplineSet
EndChar

StartChar: quotedblbase
Encoding: 8222 8222 208
Width: 347
Flags: W
HStem: -108 232<43 101 191 249>
VStem: 82 71<-30.6363 58> 230 71<-30.6363 58>
LayerCount: 2
Fore
SplineSet
153 43 m 0
 153 -51 52 -108 43 -108 c 0
 35 -108 26 -101 22 -90 c 1
 82 -54 82 -25 82 -16 c 0
 82 10 71 26 61 38 c 0
 50 51 40 60 40 74 c 0
 40 98 69 124 101 124 c 0
 108 124 129 120 138 113 c 1
 147 100 153 73 153 43 c 0
301 43 m 0
 301 -51 200 -108 191 -108 c 0
 183 -108 174 -101 170 -90 c 1
 230 -54 230 -25 230 -16 c 0
 230 10 219 26 209 38 c 0
 198 51 188 60 188 74 c 0
 188 98 217 124 249 124 c 0
 256 124 277 120 286 113 c 1
 295 100 301 73 301 43 c 0
EndSplineSet
EndChar

StartChar: dagger
Encoding: 8224 8224 209
Width: 397
Flags: W
HStem: 432 91<41.0071 101.854 295.146 355.993> 463 25<103.43 174.267 222.115 293.57> 642 20G<187.5 209.5>
VStem: 152 92<570.25 655.83> 180 36<398.363 460.621 489.188 608.061> 189 19<-23.8143 85.1921>
LayerCount: 2
Fore
SplineSet
153 488 m 8x68
 166 488 172 492 182 505 c 1
 182 538 171 606 152 625 c 1
 152 646 176 662 199 662 c 0
 220 662 244 646 244 625 c 1
 225 606 214 538 214 505 c 1
 224 492 231 488 244 488 c 0x70
 277 488 306 504 325 523 c 1
 346 523 363 497 363 476 c 0
 363 455 346 432 325 432 c 1xb0
 306 451 278 462 244 463 c 24x70
 229 463 216 447 216 435 c 1x68
 223 418 237 394 249 365 c 1
 227 227 228 185 208 -10 c 1
 205 -17 204 -23 199 -24 c 1
 194 -23 192 -15 189 -10 c 1x64
 169 185 169 227 147 365 c 1
 158 390 173 418 180 435 c 1
 180 447 168 463 153 463 c 24x68
 119 462 91 451 72 432 c 1
 51 432 34 455 34 476 c 0
 34 497 51 523 72 523 c 1xa8
 91 504 120 488 153 488 c 8x68
EndSplineSet
EndChar

StartChar: daggerdbl
Encoding: 8225 8225 210
Width: 414
Flags: W
HStem: 115 91<50.0071 110.854 304.146 364.993> 150 25<112.43 183.267 231.115 302.57> 432 91<50.0071 110.854 304.146 364.993> 463 25<112.43 183.267 231.115 302.57>
VStem: 161 92<-17.8301 67.75 570.25 655.83> 184 46<13.9262 149.997 175.012 259.78 278.858 358.265 378.22 462.988 488.003 624.074>
LayerCount: 2
Fore
SplineSet
258 365 m 1x44
 246 394 232 418 225 435 c 1
 225 447 238 463 253 463 c 24x58
 287 462 315 451 334 432 c 1
 355 432 372 455 372 476 c 0
 372 497 355 523 334 523 c 1x28
 315 504 286 488 253 488 c 0
 240 488 233 492 223 505 c 1
 223 538 234 606 253 625 c 1
 253 646 229 662 208 662 c 0
 185 662 161 646 161 625 c 1
 180 606 191 538 191 505 c 1
 181 492 175 488 162 488 c 16x18
 129 488 100 504 81 523 c 1
 60 523 43 497 43 476 c 0
 43 455 60 432 81 432 c 1x28
 100 451 128 462 162 463 c 24
 177 463 189 447 189 435 c 1
 182 418 167 390 156 365 c 1
 163 358 184 329 184 320 c 1
 184 312 170 285 156 273 c 1
 167 248 182 220 189 203 c 1
 189 191 177 175 162 175 c 24x54
 128 176 100 187 81 206 c 1
 60 206 43 183 43 162 c 0
 43 141 60 115 81 115 c 1x84
 100 134 129 150 162 150 c 8
 175 150 181 146 191 133 c 1
 191 100 180 32 161 13 c 1
 161 -8 185 -24 208 -24 c 0
 229 -24 253 -8 253 13 c 1
 234 32 223 100 223 133 c 1
 233 146 240 150 253 150 c 0x48
 286 150 315 134 334 115 c 1
 355 115 372 141 372 162 c 0
 372 183 355 206 334 206 c 1x88
 315 187 287 176 253 175 c 24x48
 238 175 225 191 225 203 c 1
 232 220 246 244 258 273 c 1
 244 285 230 312 230 320 c 1
 230 328 251 358 258 365 c 1x44
EndSplineSet
EndChar

StartChar: bullet
Encoding: 8226 8226 211
Width: 349
Flags: W
HStem: 123 281<99.683 250.022>
VStem: 35 279<187.683 338.612>
LayerCount: 2
Fore
SplineSet
35 263 m 0
 35 340 98 404 175 404 c 0
 252 404 314 340 314 263 c 0
 314 186 252 123 175 123 c 0
 98 123 35 186 35 263 c 0
EndSplineSet
EndChar

StartChar: onedotenleader
Encoding: 8228 8228 212
Width: 727
Flags: W
HStem: -11 150<311.25 415.969>
VStem: 289 150<12.2802 116>
LayerCount: 2
Fore
SplineSet
439 63 m 0
 439 23 406 -11 365 -11 c 27
 323 -11 289 23 289 66 c 0
 289 106 323 139 364 139 c 27
 406 139 439 103 439 63 c 0
EndSplineSet
EndChar

StartChar: ellipsis
Encoding: 8230 8230 213
Width: 788
Flags: W
HStem: -11 150<64.25 168.969 342.25 446.969 620.25 724.969>
VStem: 42 150<12.2802 116> 320 150<12.2802 116> 598 150<12.2802 116>
CounterMasks: 1 70
LayerCount: 2
Fore
SplineSet
748 63 m 0
 748 23 715 -11 674 -11 c 27
 632 -11 598 23 598 66 c 0
 598 106 632 139 673 139 c 27
 715 139 748 103 748 63 c 0
470 63 m 0
 470 23 437 -11 396 -11 c 27
 354 -11 320 23 320 66 c 0
 320 106 354 139 395 139 c 27
 437 139 470 103 470 63 c 0
192 63 m 0
 192 23 159 -11 118 -11 c 27
 76 -11 42 23 42 66 c 0
 42 106 76 139 117 139 c 27
 159 139 192 103 192 63 c 0
EndSplineSet
LCarets2: 2 0 0 
EndChar

StartChar: perthousand
Encoding: 8240 8240 214
Width: 1025
Flags: W
HStem: 0 31<473.28 538.815 812.28 877.815> 274 30<457.791 523.192 796.791 862.192> 337 31<176.28 241.815> 611 30<160.791 226.192>
VStem: 45 95<408.108 565.734> 263 95<412.743 570.7> 342 95<71.1076 228.734> 560 95<75.7433 233.7> 681 95<71.1076 228.734> 899 95<75.7433 233.7>
LayerCount: 2
Fore
SplineSet
829 274 m 3xf9c0
 780 274 776 211 776 163 c 24
 776 105 796 31 845 31 c 3
 894 31 899 93 899 140 c 24
 899 199 878 274 829 274 c 3xf9c0
837 304 m 0
 929 304 994 240 994 155 c 0
 994 71 926 0 838 0 c 0
 745 0 681 66 681 150 c 0
 681 234 749 304 837 304 c 0
629 635 m 1
 113 -5 l 2
 109 -11 89 -20 72 -20 c 0
 57 -20 57 -8 57 -8 c 1
 573 632 l 1
 581 639 596 645 613 645 c 0
 622 645 629 640 629 635 c 1
490 274 m 3
 441 274 437 211 437 163 c 24xfbc0
 437 105 457 31 506 31 c 3
 555 31 560 93 560 140 c 24
 560 199 539 274 490 274 c 3
498 304 m 0
 590 304 655 240 655 155 c 0
 655 71 587 0 499 0 c 0
 406 0 342 66 342 150 c 0
 342 234 410 304 498 304 c 0
193 611 m 3
 144 611 140 548 140 500 c 24
 140 442 160 368 209 368 c 3
 258 368 263 430 263 477 c 24xfdc0
 263 536 242 611 193 611 c 3
201 641 m 0
 293 641 358 577 358 492 c 0
 358 408 290 337 202 337 c 0
 109 337 45 403 45 487 c 0
 45 571 113 641 201 641 c 0
EndSplineSet
EndChar

StartChar: minute
Encoding: 8242 8242 215
Width: 154
Flags: W
HStem: 484 215<53.5703 66.9338>
VStem: 33 104
LayerCount: 2
Fore
SplineSet
92 699 m 0
 112 699 137 687 137 667 c 0
 137 620 85 528 59 494 c 0
 55 489 49 484 45 484 c 0
 39 484 33 489 33 496 c 0
 33 499 40 612 48 666 c 0
 50 678 73 699 92 699 c 0
EndSplineSet
EndChar

StartChar: second
Encoding: 8243 8243 216
Width: 301
Flags: W
HStem: 484 215<53.5703 66.9091 188.57 201.909>
VStem: 33 238
LayerCount: 2
Fore
SplineSet
227 699 m 0
 247 699 271 687 271 667 c 0
 271 620 220 528 194 494 c 0
 190 489 184 484 180 484 c 0
 174 484 168 489 168 496 c 0
 168 499 175 612 183 666 c 0
 185 678 208 699 227 699 c 0
92 699 m 0
 112 699 136 687 136 667 c 0
 136 620 85 528 59 494 c 0
 55 489 49 484 45 484 c 0
 39 484 33 489 33 496 c 0
 33 499 40 612 48 666 c 0
 50 678 73 699 92 699 c 0
EndSplineSet
EndChar

StartChar: uni2038
Encoding: 8248 8248 217
Width: 401
Flags: W
LayerCount: 2
Fore
SplineSet
206 125 m 0
 201 125 195 123 192 120 c 1
 121 18 52 -40 49 -44 c 1
 50 -49 57 -63 66 -66 c 1
 72 -63 173 10 206 39 c 1
 239 10 340 -63 346 -66 c 1
 355 -63 362 -49 363 -44 c 1
 360 -40 291 18 220 120 c 1
 217 123 211 125 206 125 c 0
EndSplineSet
EndChar

StartChar: guilsinglleft
Encoding: 8249 8249 218
Width: 313
Flags: W
LayerCount: 2
Fore
SplineSet
26 248 m 4
 26 243 29 237 33 233 c 5
 164 154 238 77 243 73 c 5
 249 74 266 82 270 92 c 5
 266 98 173 212 136 248 c 5
 173 284 266 398 270 404 c 5
 266 414 249 422 243 423 c 5
 238 419 164 342 33 263 c 5
 29 259 26 253 26 248 c 4
EndSplineSet
EndChar

StartChar: guilsinglright
Encoding: 8250 8250 219
Width: 313
Flags: W
VStem: 44 244
LayerCount: 2
Fore
SplineSet
288 248 m 4
 288 243 285 237 281 233 c 5
 150 154 76 77 71 73 c 5
 65 74 48 82 44 92 c 5
 48 98 141 212 178 248 c 5
 141 284 48 398 44 404 c 5
 48 414 65 422 71 423 c 5
 76 419 150 342 281 263 c 5
 285 259 288 253 288 248 c 4
EndSplineSet
EndChar

StartChar: uni203E
Encoding: 8254 8254 220
Width: 563
Flags: W
HStem: 734 72<-11.7805 577.903>
LayerCount: 2
Fore
SplineSet
-16 744 m 4
 -16 746 -13 806 -2 806 c 6
 580 806 l 6
 582 806 586 805 586 797 c 4
 586 779 579 745 578 741 c 4
 576 735 570 734 570 734 c 5
 -10 734 l 5
 -10 734 -16 734 -16 744 c 4
EndSplineSet
EndChar

StartChar: Euro
Encoding: 8364 8364 221
Width: 715
Flags: W
HStem: -7 42<361.336 536.815> 252 42<51.1975 429.062> 358 42<51.1975 429.062> 601 41<340.872 521.82>
VStem: 79 149<201.53 354.768> 636 34<155.6 189.924>
LayerCount: 2
Fore
SplineSet
60 294 m 1
 76 294 422 294 433 294 c 1
 447 283 429 256 423 252 c 1
 40 252 l 17
 34 258 51 294 60 294 c 1
60 400 m 1
 76 400 422 400 433 400 c 1
 447 389 429 362 423 358 c 1
 40 358 l 17
 34 364 51 400 60 400 c 1
670 185 m 1
 670 174 645 44 630 38 c 0
 568 16 506 -7 415 -7 c 0
 230 -7 79 135 79 310 c 0
 79 490 230 642 417 642 c 0
 482 642 564 636 622 624 c 1
 624 613 655 490 655 478 c 0
 655 472 641 464 629 464 c 3
 624 464 620 464 616 468 c 1
 606 506 565 601 426 601 c 0
 287 601 228 474 228 339 c 0
 228 189 296 35 445 35 c 0
 504 35 540 53 567 77 c 0
 608 114 634 188 636 196 c 1
 651 196 662 192 670 185 c 1
EndSplineSet
EndChar

StartChar: arrowleft
Encoding: 8592 8592 222
Width: 771
Flags: W
HStem: 210 74<165 732.904>
LayerCount: 2
Fore
SplineSet
275 397 m 0
 275 389 255 370 201 318 c 0
 165 284 l 1
 734 284 l 1
 734 284 741 284 741 274 c 0
 741 256 734 221 733 217 c 0
 731 211 726 210 726 210 c 1
 164 210 l 1
 200 176 l 0
 254 124 274 105 274 97 c 0
 274 85 245 73 239 72 c 1
 238 74 180 131 33 226 c 1
 28 228 26 234 26 240 c 0
 26 250 27 259 34 267 c 1
 165 346 235 418 240 422 c 1
 246 421 275 409 275 397 c 0
EndSplineSet
EndChar

StartChar: arrowup
Encoding: 8593 8593 223
Width: 393
Flags: W
HStem: 0 21G<214 228>
VStem: 159 74<5.20054 576>
LayerCount: 2
Fore
SplineSet
233 576 m 1
 233 6 l 1
 233 6 233 0 223 0 c 0
 205 0 171 7 167 8 c 0
 161 10 159 14 159 14 c 1
 159 577 l 1
 126 540 l 0
 74 486 54 466 46 466 c 0
 34 466 23 496 22 502 c 1
 24 503 81 561 176 708 c 1
 178 713 184 714 190 714 c 0
 200 714 208 713 216 706 c 1
 295 575 368 505 372 500 c 1
 371 494 358 466 346 466 c 0
 338 466 320 486 268 540 c 0
 233 576 l 1
EndSplineSet
EndChar

StartChar: arrowright
Encoding: 8594 8594 224
Width: 771
Flags: W
HStem: 210 74<37.0959 605>
LayerCount: 2
Fore
SplineSet
605 284 m 1
 569 318 l 0
 515 370 495 389 495 397 c 0
 495 409 524 421 530 422 c 1
 535 418 605 346 736 267 c 1
 743 259 744 250 744 240 c 0
 744 234 742 228 737 226 c 1
 590 131 532 74 531 72 c 1
 525 73 496 85 496 97 c 0
 496 105 516 124 570 176 c 0
 606 210 l 1
 44 210 l 1
 44 210 39 211 37 217 c 0
 36 221 29 256 29 274 c 0
 29 284 36 284 36 284 c 1
 605 284 l 1
EndSplineSet
EndChar

StartChar: arrowdown
Encoding: 8595 8595 225
Width: 396
Flags: W
HStem: 0 21G<200 208>
VStem: 162 74<138 708.799>
LayerCount: 2
Fore
SplineSet
162 138 m 1
 162 708 l 1
 162 708 162 714 172 714 c 0
 190 714 224 707 228 706 c 0
 234 704 236 700 236 700 c 1
 236 137 l 1
 269 174 l 0
 321 228 341 248 349 248 c 0
 361 248 372 218 373 212 c 1
 371 211 314 153 219 6 c 1
 217 1 211 0 205 0 c 0
 195 0 187 1 179 8 c 1
 100 139 27 209 23 214 c 1
 24 220 37 248 49 248 c 0
 57 248 75 228 127 174 c 0
 162 138 l 1
EndSplineSet
EndChar

StartChar: partialdiff
Encoding: 8706 8706 227
Width: 500
Flags: W
HStem: 0 55<201.654 286.082> 317 53<191.164 291.188> 584 58<142.36 258.437>
VStem: 44 125<91.9379 272.861> 315 135<152.6 371.71>
LayerCount: 2
Fore
SplineSet
315 219 m 1
 315 303 267 317 229 317 c 0
 190 317 169 270 169 209 c 0
 169 91 206 55 248 55 c 0
 305 55 315 145 315 219 c 1
220 0 m 0
 122 0 44 60 44 194 c 0
 44 294 139 370 245 370 c 0
 267 370 285 369 308 361 c 0
 313 359 318 364 319 369 c 0
 323 399 317 502 281 542 c 0
 251 575 221 584 191 584 c 3
 149 584 104 552 78 534 c 1
 73 538 64 564 76 576 c 0
 106 606 172 642 234 642 c 3
 414 642 450 408 450 282 c 3
 450 82 324 0 220 0 c 0
EndSplineSet
EndChar

StartChar: uni2206
Encoding: 8710 8710 228
Width: 674
Flags: W
HStem: 0 76<120.911 493>
LayerCount: 2
Fore
SplineSet
496 83 m 6
 316 443 l 5
 312 446 307 447 304 441 c 6
 121 87 l 5
 119 80 124 76 129 76 c 6
 493 76 l 6
 497 76 498 79 496 83 c 6
350 613 m 5
 652 14 l 5
 652 14 646 8 644 0 c 5
 33 0 l 5
 29 6 28 9 24 16 c 5
 333 613 l 5
 350 613 l 5
EndSplineSet
EndChar

StartChar: gradient
Encoding: 8711 8711 229
Width: 673
Flags: W
HStem: 566 76<182 554.089>
LayerCount: 2
Fore
SplineSet
179 559 m 2
 359 199 l 1
 363 196 368 195 371 201 c 2
 554 555 l 1
 556 562 551 566 546 566 c 2
 182 566 l 2
 178 566 177 563 179 559 c 2
325 29 m 1
 23 628 l 1
 23 628 29 634 31 642 c 1
 642 642 l 1
 646 636 647 633 651 626 c 1
 342 29 l 1
 325 29 l 1
EndSplineSet
EndChar

StartChar: element
Encoding: 8712 8712 230
Width: 454
Flags: W
HStem: 11 60<156.888 424.914> 189 61<102.004 380> 370 60<153.702 425.161>
VStem: 28 74<174.075 313.639>
LayerCount: 2
Fore
SplineSet
388 220 m 0
 388 193 380 189 379 189 c 2
 107 189 l 2
 106 189 101 188 102 185 c 0
 114 122 157 71 224 71 c 2
 412 71 l 2
 412 71 427 64 427 29 c 0
 427 20 420 11 420 11 c 1
 226 11 l 2
 114 11 28 109 28 221 c 0
 28 330 107 430 216 430 c 2
 420 430 l 1
 420 430 427 421 427 409 c 0
 427 378 412 370 412 370 c 1
 216 370 l 2
 153 370 113 317 102 255 c 0
 102 252 104 250 107 250 c 2
 380 250 l 1
 380 249 388 237 388 220 c 0
EndSplineSet
EndChar

StartChar: notelement
Encoding: 8713 8713 231
Width: 453
Flags: W
HStem: -10 21G<114.5 118> 11 60<176.668 424.914> 189 61<102.004 174 271 380> 370 60<153.702 276 372 425.161>
VStem: 28 74<174.26 313.639>
LayerCount: 2
Fore
SplineSet
388 220 m 0xb8
 388 193 380 189 379 189 c 2
 236 189 l 1
 176 81 l 1
 190 75 206 71 224 71 c 2
 412 71 l 1
 412 71 427 64 427 29 c 0
 427 20 420 11 420 11 c 1
 226 11 l 2x78
 197 11 170 18 146 29 c 1
 126 -8 l 1
 123 -10 120 -10 116 -10 c 0
 113 -10 96 -6 83 10 c 0
 79 14 78 17 78 17 c 1
 101 58 l 1
 56 97 28 157 28 221 c 0
 28 330 107 430 216 430 c 2
 310 430 l 1
 340 484 l 1
 340 484 345 487 349 487 c 0
 361 487 372 479 380 470 c 0
 385 465 388 459 388 459 c 1
 372 430 l 1
 420 430 l 1
 420 430 427 421 427 409 c 0
 427 378 412 370 412 370 c 1
 338 370 l 1
 271 250 l 1
 380 250 l 1
 380 249 388 237 388 220 c 0xb8
209 250 m 1
 276 370 l 1
 216 370 l 2
 153 370 113 317 102 255 c 0
 102 252 104 250 107 250 c 2
 209 250 l 1
133 115 m 1
 174 189 l 1
 107 189 l 2
 106 189 101 188 102 185 c 0
 107 159 118 134 133 115 c 1
EndSplineSet
EndChar

StartChar: summation
Encoding: 8721 8721 232
Width: 626
Flags: W
HStem: 0 21G<490.5 548.5> 2 29<34.0357 67.2613> 608 48<246.114 445.277> 627 29<34.0058 68.2492>
LayerCount: 2
Fore
SplineSet
545 0 m 1xa0
 436 0 247 2 156 2 c 0
 89 2 38 -3 38 -3 c 1
 36 -1 34 7 34 15 c 0
 34 23 36 31 38 31 c 0
 49 31 82 53 91 65 c 2
 274 306 l 2
 278 311 277 318 274 322 c 0
 261 342 167 490 90 592 c 0
 77 609 50 627 38 627 c 0
 36 627 34 634 34 641 c 0
 34 648 36 656 38 658 c 1
 38 658 87 656 154 656 c 0x50
 247 656 406 662 515 662 c 1
 522 612 537 556 546 511 c 1
 543 508 530 506 523 506 c 0
 516 506 511 508 509 513 c 0
 484 563 435 608 369 608 c 27
 347 608 341 608 313 608 c 0
 278 608 248 603 246 595 c 1
 411 360 l 1
 413 354 415 347 415 341 c 0
 415 336 413 332 410 329 c 0
 325 227 204 84 204 71 c 0
 204 64 207 60 275 60 c 0
 309 60 312 60 339 60 c 0
 391 60 453 65 482 80 c 0
 501 90 530 125 547 170 c 0
 548 174 554 176 561 176 c 0
 571 176 588 173 591 170 c 1
 572 116 552 44 545 0 c 1xa0
EndSplineSet
EndChar

StartChar: minus
Encoding: 8722 8722 233
Width: 609
Flags: W
HStem: 209 74<70.9086 534.904>
LayerCount: 2
Fore
SplineSet
66 219 m 1
 66 219 70 283 80 283 c 2
 537 283 l 2
 540 283 544 283 544 276 c 0
 544 268 540 232 535 215 c 0
 533 209 528 209 528 209 c 1
 72 209 l 1
 72 209 66 209 66 219 c 1
EndSplineSet
EndChar

StartChar: uni2213
Encoding: 8723 8723 234
Width: 533
Flags: W
HStem: 213 72<35.0959 229.999 302.001 495.904> 518 72<36.0959 490.652>
VStem: 230 72<17.3688 212.998 285 479.904>
LayerCount: 2
Fore
SplineSet
302 210 m 2
 302 26 l 1
 302 26 287 16 242 10 c 0
 239 10 238 10 236 10 c 0
 230 10 230 13 230 17 c 2
 230 208 l 2
 230 210 229 213 224 213 c 2
 33 213 l 1
 33 213 27 213 27 223 c 0
 27 227 28 256 35 280 c 0
 37 286 42 285 42 285 c 1
 225 285 l 2
 228 285 230 289 230 291 c 2
 230 473 l 1
 230 473 229 478 235 480 c 0
 259 487 288 488 292 488 c 0
 302 488 302 482 302 482 c 1
 302 290 l 2
 302 287 303 285 306 285 c 2
 498 285 l 2
 502 285 506 285 506 278 c 0
 506 269 502 241 496 219 c 0
 494 213 489 213 489 213 c 1
 306 213 l 2
 303 213 302 212 302 210 c 2
490 590 m 1
 490 590 500 591 498 579 c 0
 491 531 485 521 482 518 c 1
 34 518 l 1
 34 518 26 517 28 531 c 0
 30 545 30 565 36 585 c 0
 38 591 43 590 43 590 c 1
 490 590 l 1
EndSplineSet
EndChar

StartChar: radical
Encoding: 8730 8730 235
Width: 521
Flags: W
LayerCount: 2
Fore
SplineSet
10 150 m 1
 -3 157 -16 174 -16 185 c 0
 -16 198 -3 205 7 212 c 0
 40 235 142 312 156 324 c 0
 164 331 181 332 184 324 c 1
 194 292 196 280 207 254 c 2
 296 47 l 1
 304 90 444 791 444 791 c 1
 502 784 l 1
 502 784 341 -25 316 -153 c 1
 301 -171 273 -180 267 -180 c 0
 263 -180 259 -179 257 -175 c 2
 90 196 l 1
 10 150 l 1
EndSplineSet
EndChar

StartChar: proportional
Encoding: 8733 8733 236
Width: 671
Flags: W
HStem: 37 73<162.536 283.964 573.688 633.984> 352 74<159.601 270.595 564.495 639.94>
VStem: 28 89<156.972 306.236>
LayerCount: 2
Back
SplineSet
108 229 m 4
 108 159 157 97 227 97 c 4
 293 97 345 172 388 218 c 4
 389 219 389 219 388 220 c 4
 355 259 290 362 220 362 c 4
 152 362 108 297 108 229 c 4
623 43 m 5
 492 43 424 180 413 180 c 6
 412 180 l 5
 359 117 299 41 200 41 c 4
 105 41 38 128 38 223 c 4
 38 332 123 422 232 422 c 4
 329 422 400 334 441 286 c 4
 442 284 446 283 447 285 c 4
 485 332 543 404 624 419 c 5
 626 419 l 6
 632 419 634 412 634 403 c 4
 634 388 628 367 628 367 c 5
 567 367 506 286 471 246 c 4
 470 245 469 244 470 243 c 4
 516 185 573 100 642 100 c 4
 648 100 650 96 650 91 c 4
 650 76 632 46 623 43 c 5
EndSplineSet
Fore
SplineSet
632 112 m 1
 641 112 643 101 643 90 c 3
 643 69 629 49 620 42 c 1
 489 42 418 162 407 162 c 2
 406 162 l 1
 353 99 292 37 194 37 c 0
 99 37 28 128 28 223 c 0
 28 332 118 426 227 426 c 0
 324 426 395 349 436 301 c 0
 437 299 441 298 442 300 c 0
 484 353 549 427 627 427 c 0
 634 427 645 396 645 373 c 0
 645 366 643 352 638 352 c 0
 634 352 628 352 621 352 c 0
 554 352 478 241 479 240 c 0
 501 210 556 112 632 112 c 1
117 229 m 0
 117 159 169 110 222 110 c 0
 288 110 341 187 365 218 c 0
 366 220 291 352 215 352 c 0
 161 352 117 297 117 229 c 0
EndSplineSet
EndChar

StartChar: infinity
Encoding: 8734 8734 237
Width: 892
Flags: W
HStem: 39 74<182.438 310.022 602.825 713.791> 352 74<182.601 294.127 582.751 711.691>
VStem: 51 89<156.972 306.236> 754 89<157.867 306.308>
LayerCount: 2
Fore
SplineSet
645 357 m 0
 584 357 521 268 505 246 c 0
 504 245 504 245 505 244 c 0
 527 214 591 113 660 113 c 0
 711 113 754 166 754 233 c 0
 754 304 701 357 645 357 c 0
140 229 m 0
 140 159 192 110 245 110 c 0
 311 110 364 187 388 218 c 0
 389 219 389 219 388 220 c 0
 372 244 308 352 238 352 c 0
 184 352 140 297 140 229 c 0
250 426 m 0
 347 426 418 349 459 301 c 0
 460 299 464 298 465 300 c 0
 507 353 575 426 672 426 c 0
 767 426 843 337 843 242 c 0
 843 132 750 39 640 39 c 0
 509 39 441 162 430 162 c 2
 429 162 l 1
 376 99 315 37 217 37 c 0
 122 37 51 128 51 223 c 0
 51 332 141 426 250 426 c 0
EndSplineSet
EndChar

StartChar: notequal
Encoding: 8800 8800 238
Width: 569
Flags: W
HStem: 109 72<60.0959 196 298 508.905> 251 72<56.2498 275 378 508.905>
LayerCount: 2
Fore
SplineSet
378 323 m 5
 515 323 l 2
 517 323 519 322 519 318 c 0
 519 309 515 279 509 257 c 0
 507 251 503 251 503 251 c 1
 337 251 l 1
 298 181 l 1
 511 181 l 2
 515 181 519 183 519 176 c 0
 519 167 515 137 509 115 c 0
 507 109 503 109 503 109 c 1
 258 109 l 1
 206 16 l 1
 203 14 200 14 196 14 c 0
 193 14 176 18 163 34 c 0
 159 38 158 41 158 41 c 1
 196 109 l 1
 58 109 l 1
 58 109 51 109 51 119 c 0
 51 123 53 152 60 176 c 0
 62 182 67 181 67 181 c 1
 236 181 l 1
 275 251 l 1
 58 251 l 1
 58 251 51 251 51 261 c 1
 51 261 54 303 61 318 c 0
 62 321 64 323 66 323 c 2
 316 323 l 1
 370 420 l 1
 370 420 375 423 379 423 c 0
 391 423 402 415 410 406 c 0
 415 401 418 395 418 395 c 1
 378 323 l 5
EndSplineSet
EndChar

StartChar: lessequal
Encoding: 8804 8804 239
Width: 514
Flags: W
HStem: 6 56<44.0959 434.982>
LayerCount: 2
Fore
SplineSet
432 62 m 1
 432 62 441 63 439 51 c 0
 432 3 427 9 424 6 c 1
 42 6 l 1
 42 6 33 5 35 19 c 0
 37 33 38 37 44 57 c 0
 46 63 51 62 51 62 c 1
 432 62 l 1
447 136 m 0
 447 129 437 86 431 86 c 0
 430 86 428 87 426 88 c 2
 51 279 l 2
 36 287 33 301 33 318 c 0
 33 329 41 337 51 342 c 2
 420 529 l 2
 422 530 424 531 425 531 c 0
 428 531 435 521 442 484 c 0
 443 478 439 475 439 475 c 1
 113 310 l 1
 444 142 l 1
 444 142 447 141 447 136 c 0
EndSplineSet
EndChar

StartChar: greaterequal
Encoding: 8805 8805 240
Width: 513
Flags: W
HStem: 6 56<74.6017 466.904>
LayerCount: 2
Fore
SplineSet
73 483 m 0
 73 501 85 531 89 531 c 0
 90 531 92 530 94 529 c 2
 464 342 l 2
 474 337 481 329 481 318 c 0
 481 301 479 287 464 279 c 2
 89 88 l 2
 84 86 83 82 78 95 c 0
 72 110 67 132 67 136 c 0
 67 140 70 142 70 142 c 1
 401 310 l 1
 76 475 l 1
 76 475 73 476 73 483 c 0
71 15 m 0
 71 16 75 62 86 62 c 2
 469 62 l 2
 471 62 475 61 475 54 c 0
 475 46 472 29 467 13 c 0
 465 7 460 6 460 6 c 1
 78 6 l 1
 78 6 71 5 71 15 c 0
EndSplineSet
EndChar

StartChar: propersubset
Encoding: 8834 8834 241
Width: 455
Flags: W
HStem: 11 60<157.232 424.914> 370 60<153.702 425.161>
VStem: 28 70<134.796 309.161>
LayerCount: 2
Fore
SplineSet
216 370 m 2
 153 370 98 309 98 220 c 3
 98 130 157 71 224 71 c 2
 412 71 l 2
 412 71 427 64 427 29 c 0
 427 20 420 11 420 11 c 1
 226 11 l 2
 114 11 28 109 28 221 c 0
 28 330 107 430 216 430 c 2
 420 430 l 1
 420 430 427 421 427 409 c 0
 427 378 412 370 412 370 c 1
 216 370 l 2
EndSplineSet
EndChar

StartChar: dotlessi
Encoding: 305 305 242
Width: 311
Flags: W
HStem: -4 37<25.7205 91.9985 238.001 297.279> 362 31<26.0323 86.1875> 426 20G<205 227.5>
VStem: 100 130<41.2661 351.93>
LayerCount: 2
Fore
SplineSet
230 309 m 2
 230 145 l 2
 230 108 230 71 238 51 c 0
 243 38 282 34 295 33 c 1
 300 26 299 2 295 -4 c 1
 256 0 207 3 165 3 c 0
 123 3 67 0 28 -4 c 1
 24 2 23 26 28 33 c 1
 41 34 87 38 92 51 c 0
 100 71 100 102 100 145 c 2
 100 260 l 2
 100 270 99 327 91 342 c 0
 83 357 35 362 28 362 c 1
 25 364 24 393 29 393 c 1
 105 399 186 427 224 446 c 1
 231 444 241 432 241 429 c 1
 238 421 232 386 231 372 c 0
 230 350 230 315 230 309 c 2
EndSplineSet
Substitution2: "'smcp' Lowercase to Small Capitals in Latin lookup 0 subtable" dotlessi.sc
EndChar

StartChar: uni0302
Encoding: 770 770 243
Width: 285
Flags: W
HStem: 493 168
VStem: 31 236
LayerCount: 2
Fore
SplineSet
258 493 m 0
 247 493 177 543 149 567 c 1
 121 543 51 493 40 493 c 0
 34 493 31 506 31 516 c 1
 38 523 55 540 97 594 c 0
 119 623 128 638 136 651 c 0
 140 658 143 661 149 661 c 27
 155 661 156 657 161 651 c 0
 172 636 180 622 198 599 c 0
 239 545 260 523 267 516 c 1
 267 506 264 493 258 493 c 0
EndSplineSet
EndChar

StartChar: tildecomb
Encoding: 771 771 244
Width: 693
Flags: W
HStem: 519 63<244.808 334.487> 584 62<103.867 193.354> 615 20G<363 370.5>
VStem: 66 309
LayerCount: 2
Fore
SplineSet
156 646 m 0xd0
 186 646 207 630 229 615 c 0
 252 598 283 582 300 582 c 0
 344 582 359 630 367 635 c 1xb0
 374 635 375 628 375 623 c 0
 375 605 365 583 358 570 c 0
 338 538 312 519 283 519 c 0
 253 519 232 535 210 550 c 0
 187 567 161 584 139 584 c 0
 95 584 84 535 76 530 c 1
 69 530 66 540 66 545 c 0
 66 563 74 583 81 596 c 0
 101 628 127 646 156 646 c 0xd0
EndSplineSet
EndChar

StartChar: AE.st01
Encoding: 63548 63548 245
Width: 1011
Flags: W
HStem: -4 36<28.013 91.5938 210.676 275.239 461.478 511.329> 2 52<670.598 869.746> 213 60<341.906 499.594> 304 55<644.172 792.425> 610 54<659.391 809.924> 610 46<617.436 753.978> 626 36<438.534 482.14>
VStem: 484 134<551.672 607.918> 808 37<365.954 427.85> 941 44<123.672 175.484>
LayerCount: 2
Fore
SplineSet
484 598 m 0xb1c0
 484 625 456 626 450 626 c 0
 441 626 438 643 438 650 c 0
 438 657 439 662 441 662 c 0xb3c0
 462 662 473 656 540 656 c 0x35c0
 633 656 770 664 879 664 c 1
 891 614 910 561 923 516 c 1
 920 513 908 511 901 511 c 0
 894 511 888 513 886 518 c 0
 856 568 790 610 737 610 c 2
 682 610 l 2
 641 610 619 609 618 597 c 0
 616 578 619 542 621 519 c 2
 636 365 l 2
 636 360 658 359 680 359 c 2
 733 359 l 2
 792 359 798 355 808 421 c 0
 809 426 816 428 823 428 c 0
 830 428 842 426 845 423 c 1
 864 234 l 1
 862 232 850 230 843 230 c 0
 836 230 829 233 827 238 c 0
 806 295 803 290 793 296 c 0
 781 303 752 304 714 304 c 0
 686 304 642 304 643 295 c 2
 658 141 l 2
 660 122 664 90 673 70 c 0
 678 58 701 54 743 54 c 2
 769 54 l 2
 807 54 850 65 878 80 c 0
 896 90 928 125 941 170 c 0
 942 174 948 176 955 176 c 0
 965 176 982 173 985 170 c 1
 971 116 951 42 948 -2 c 1
 839 -2 697 2 606 2 c 0x79c0
 549 2 466 -4 466 -4 c 1
 464 -2 462 5 461 13 c 0
 460 21 461 32 463 32 c 0
 475 32 512 44 515 55 c 1
 519 78 515 99 512 134 c 0
 509 170 507 178 503 207 c 0
 503 210 499 211 496 211 c 0
 459 213 429 213 404 213 c 0
 363 213 338 213 303 212 c 0
 300 212 296 209 294 207 c 1
 294 207 259 161 237 131 c 0
 219 105 205 89 195 71 c 0
 190 62 205 50 210 46 c 0
 224 35 265 30 273 30 c 0
 278 30 276 2 274 -4 c 1xb1c0
 234 -2 209 2 165 2 c 0x71c0
 119 2 78 -2 32 -4 c 1
 30 -2 28 5 28 11 c 0
 28 17 28 29 30 29 c 0
 42 29 90 39 112 67 c 0
 130 91 143 109 161 134 c 0
 424 494 l 2
 463 547 484 589 484 598 c 0xb1c0
501 280 m 0
 501 280 490 398 483 474 c 25
 428 397 335 276 341 276 c 0
 360 276 400 273 423 273 c 0
 454 273 464 273 496 275 c 0
 498 275 501 277 501 280 c 0
EndSplineSet
EndChar

StartChar: f_f
Encoding: 61696 61696 246
Width: 657
Flags: W
HStem: -4 37<19.4365 79.3777 238.119 296.998 329.437 389.378 548.119 606.997> 370 60<38.625 94 224 404 534 650.231> 620 62<261.999 377.029> 634 62<574.103 652.645>
VStem: 94 130<46.8035 369.997 430.002 538.141> 404 130<46.8035 369.997 430.055 527.766> 413 120<430.055 580.137>
LayerCount: 2
Fore
SplineSet
404 134 m 6xdc
 404 134 404 274 404 363 c 0
 404 366 402 370 399 370 c 2
 230 370 l 2
 227 370 224 367 224 364 c 0
 224 274 224 149 224 149 c 6
 224 115 224 85 231 58 c 4
 234 47 286 33 294 33 c 4
 299 33 298 2 296 -4 c 5
 255 -2 198 4 159 4 c 4
 117 4 64 -2 22 -4 c 5
 17 1 17 33 22 33 c 4
 34 33 84 47 87 58 c 4
 93 84 94 127 94 134 c 6
 94 134 94 274 94 363 c 0
 94 366 92 370 89 370 c 2
 36 370 l 2
 34 370 33 372 33 376 c 0
 33 389 43 430 48 430 c 2
 89 430 l 2
 92 430 94 433 94 436 c 2
 94 443 l 0
 94 580 220 682 330 682 c 0xec
 391 682 461 675 494 642 c 1
 528 676 602 696 646 696 c 0
 707 696 751 679 761 662 c 1
 770 627 775 565 717 565 c 0
 667 565 660 634 614 634 c 0
 567 634 531 551 533 475 c 2xda
 534 434 l 2
 534 432 537 429 539 429 c 2
 650 429 l 2
 655 429 655 428 655 422 c 0
 655 413 650 384 643 370 c 1
 540 370 l 2
 537 370 534 367 534 364 c 0
 534 274 534 149 534 149 c 6
 534 115 534 85 541 58 c 4
 544 47 596 33 604 33 c 4
 609 33 608 2 606 -4 c 5
 565 -2 508 4 469 4 c 4
 427 4 374 -2 332 -4 c 5
 327 1 327 33 332 33 c 4
 344 33 394 47 397 58 c 4
 403 84 404 127 404 134 c 6xdc
412 516 m 0
 412 519 413 523 413 528 c 0xea
 413 536 407 557 404 562 c 0
 394 578 371 620 329 620 c 0
 244 620 221 551 223 475 c 2
 224 434 l 2
 224 432 226 430 228 430 c 2
 399 430 l 2
 402 430 404 433 404 436 c 2
 404 437 l 0
 404 456 410 501 412 516 c 0
EndSplineSet
LCarets2: 1 338 
EndChar

StartChar: f_i
Encoding: 61697 61697 247
Width: 626
Flags: W
HStem: -4 37<19.4365 79.3777 238.119 296.998 335.437 395.378 554.119 612.997> 372 57<38.0468 94 224 394.159> 424 20G<535.5 540> 542 154<412.104 507.871> 634 62<276.921 380.761>
VStem: 94 130<46.8035 371.997 430.055 534.844> 396 144<563.625 617.911> 410 130<46.8035 357.229>
LayerCount: 2
Fore
SplineSet
410 134 m 2xa5
 410 278 l 2
 410 288 408 336 392 353 c 0
 376 371 361 372 333 372 c 0
 230 372 l 2
 227 372 224 369 224 366 c 0
 224 276 224 149 224 149 c 2
 224 115 224 85 231 58 c 0
 234 47 286 33 294 33 c 0
 299 33 298 2 296 -4 c 1
 255 -2 198 4 159 4 c 0
 117 4 64 -2 22 -4 c 1
 17 1 17 33 22 33 c 0
 34 33 84 47 87 58 c 0
 93 84 94 127 94 134 c 2
 94 134 94 276 94 365 c 0
 94 368 92 372 89 372 c 2
 36 372 l 2
 34 372 33 374 33 378 c 0
 33 391 43 430 48 430 c 2
 89 430 l 2
 92 430 94 433 94 436 c 2
 94 440 l 0
 94 570 216 696 364 696 c 0xcd
 425 696 450 693 466 690 c 0
 508 683 540 657 540 616 c 0
 540 575 507 542 466 542 c 0x96
 432 542 407 562 396 588 c 0
 385 613 366 634 326 634 c 0
 268 634 221 551 223 475 c 2
 224 434 l 2
 224 432 227 429 229 429 c 2
 438 429 l 2xce
 443 429 492 430 524 441 c 0
 525 441 535 444 536 444 c 0
 544 444 550 432 550 427 c 0
 546 395 540 361 540 327 c 2
 540 149 l 2
 539 115 540 85 547 58 c 0
 550 47 602 33 610 33 c 0
 615 33 614 2 612 -4 c 1
 571 -2 514 4 475 4 c 0
 433 4 380 -2 338 -4 c 1
 333 1 333 33 338 33 c 0
 350 33 400 47 403 58 c 0
 409 84 410 127 410 134 c 2xa5
EndSplineSet
LCarets2: 1 0 
EndChar

StartChar: f_f_i
Encoding: 61698 61698 248
Width: 932
Flags: W
HStem: -4 37<19.4365 79.3777 238.119 296.998 329.437 389.378 548.119 606.997 651.572 708.559 862.194 916.808> 370 60<38.625 94 224 404 534 705.499> 424 20G<845.5 850> 542 154<722.104 817.871> 620 62<261.999 377.029> 634 62<585.892 691.189>
VStem: 94 130<46.8035 369.997 430.002 538.141> 404 130<46.8035 369.881 430.055 527.766> 413 120<430.055 571.145> 706 144<563.625 617.911> 720 130<44.8035 357.229>
LayerCount: 2
Fore
SplineSet
329 620 m 0xcb
 244 620 221 551 223 475 c 2
 224 434 l 2
 224 432 226 430 228 430 c 2
 399 430 l 2
 402 430 404 433 404 436 c 2
 404 437 l 0xcb
 404 456 410 501 412 516 c 0
 412 519 413 523 413 528 c 0xca80
 413 536 407 557 404 562 c 0
 394 578 371 620 329 620 c 0xcb
404 134 m 2
 404 134 404 274 404 363 c 0
 404 366 402 370 399 370 c 2
 230 370 l 2
 227 370 224 367 224 364 c 0
 224 274 224 149 224 149 c 2
 224 115 224 85 231 58 c 0
 234 47 286 33 294 33 c 0
 299 33 298 2 296 -4 c 1
 255 -2 198 4 159 4 c 0
 117 4 64 -2 22 -4 c 1
 17 1 17 33 22 33 c 0
 34 33 84 47 87 58 c 0
 93 84 94 127 94 134 c 2
 94 134 94 274 94 363 c 0
 94 366 92 370 89 370 c 2
 36 370 l 2
 34 370 33 372 33 376 c 0
 33 389 43 430 48 430 c 2
 89 430 l 2
 92 430 94 433 94 436 c 2
 94 443 l 0
 94 580 220 682 330 682 c 0xcb20
 391 682 461 675 494 642 c 1
 528 676 628 696 672 696 c 0x8720
 734 696 760 693 776 690 c 0
 818 683 850 657 850 616 c 0
 850 575 817 542 776 542 c 0x9340
 742 542 717 562 706 588 c 0
 695 613 676 634 636 634 c 0
 578 634 531 551 533 475 c 2x86c0
 534 434 l 2
 534 432 537 429 539 429 c 2
 748 429 l 2
 753 429 802 430 834 441 c 0
 835 441 845 444 846 444 c 0
 854 444 860 432 860 427 c 0
 856 395 850 361 850 327 c 2
 850 147 l 2
 850 113 851 84 858 56 c 0
 861 45 906 31 914 31 c 0
 919 31 918 3 916 -3 c 1
 875 -1 823 5 784 5 c 0
 742 5 696 -1 654 -3 c 1
 649 2 649 31 654 31 c 0
 666 31 709 45 712 56 c 0
 718 82 720 125 720 132 c 2
 720 278 l 2xa720
 720 288 718 336 702 353 c 0
 686 371 671 372 643 372 c 0
 540 372 l 2
 537 372 534 369 534 365 c 0
 534 275 534 149 534 149 c 2
 534 115 534 85 541 58 c 0
 544 47 596 33 604 33 c 0
 609 33 608 2 606 -4 c 1
 565 -2 508 4 469 4 c 0
 427 4 374 -2 332 -4 c 1
 327 1 327 33 332 33 c 0
 344 33 394 47 397 58 c 0
 403 84 404 127 404 134 c 2
EndSplineSet
LCarets2: 2 314 626 
EndChar

StartChar: f_l
Encoding: 61699 61699 249
Width: 626
Flags: W
HStem: -4 37<19.4365 79.3777 238.119 296.998 335.437 395.378 554.119 612.997> 372 57<38.0468 94 224 340.454> 634 62<276.921 381.102>
VStem: 94 130<46.8035 371.997 430.055 534.844> 410 130<46.8035 602.315>
LayerCount: 2
Fore
SplineSet
410 134 m 2
 410 515 l 2
 410 543 408 561 396 588 c 16
 385 613 366 634 326 634 c 0
 268 634 221 551 223 475 c 2
 224 434 l 2
 224 432 227 429 229 429 c 2
 340 429 l 2
 345 429 345 428 345 422 c 0
 345 413 340 386 333 372 c 1
 230 372 l 2
 227 372 224 369 224 366 c 0
 224 276 224 149 224 149 c 2
 224 115 224 85 231 58 c 0
 234 47 286 33 294 33 c 0
 299 33 298 2 296 -4 c 1
 255 -2 198 4 159 4 c 0
 117 4 64 -2 22 -4 c 1
 17 1 17 33 22 33 c 0
 34 33 84 47 87 58 c 0
 93 84 94 127 94 134 c 2
 94 134 94 276 94 365 c 0
 94 368 92 372 89 372 c 2
 36 372 l 2
 34 372 33 374 33 378 c 0
 33 391 43 430 48 430 c 2
 89 430 l 2
 92 430 94 433 94 436 c 2
 94 440 l 0
 94 570 216 696 364 696 c 0
 388 696 413 678 429 678 c 0
 470 678 533 695 536 695 c 2
 538 695 l 2
 544 695 550 683 551 678 c 1
 551 678 540 633 540 577 c 2
 540 149 l 2
 540 115 540 85 547 58 c 0
 550 47 602 33 610 33 c 0
 615 33 614 2 612 -4 c 1
 571 -2 514 4 475 4 c 0
 433 4 380 -2 338 -4 c 1
 333 1 333 33 338 33 c 0
 350 33 400 47 403 58 c 0
 409 84 410 127 410 134 c 2
EndSplineSet
LCarets2: 1 0 
EndChar

StartChar: f_f_l
Encoding: 61700 61700 250
Width: 932
Flags: W
HStem: -4 37<19.4365 79.3777 238.119 296.998 329.437 389.378 548.119 606.997 651.572 708.559 862.194 916.808> 370 60<38.625 94 224 404 534 650.231> 620 62<261.999 377.029> 634 62<586.69 691.102>
VStem: 94 130<46.8035 369.997 430.002 538> 404 130<46.8035 369.997 430.055 527.766> 413 120<434 571.145> 720 130<44.8035 602.315>
LayerCount: 2
Fore
SplineSet
534 149 m 2xdd
 534 115 534 85 541 58 c 0
 544 47 596 33 604 33 c 0
 609 33 608 2 606 -4 c 1
 565 -2 508 4 469 4 c 0
 427 4 374 -2 332 -4 c 1
 327 1 327 33 332 33 c 0
 344 33 394 47 397 58 c 0
 403 84 404 127 404 134 c 2
 404 134 404 274 404 363 c 0
 404 366 402 370 399 370 c 2
 229 370 l 2
 225 370 224 367 224 364 c 0
 224 274 224 149 224 149 c 2
 224 115 224 85 231 58 c 0
 234 47 286 33 294 33 c 0
 299 33 298 2 296 -4 c 1
 255 -2 198 4 159 4 c 0
 117 4 64 -2 22 -4 c 1
 17 1 17 33 22 33 c 0
 34 33 84 47 87 58 c 0
 93 84 94 127 94 134 c 2
 94 134 94 274 94 363 c 0
 94 366 92 370 89 370 c 2
 36 370 l 2
 34 370 33 372 33 376 c 0
 33 389 43 430 48 430 c 2
 89 430 l 2
 92 430 94 433 94 436 c 2
 94 443 l 0
 94 580 220 681 330 682 c 0xed
 391 682 461 675 494 642 c 1
 528 676 579 696 674 696 c 0
 698 696 723 678 739 678 c 0
 780 678 839 695 848 695 c 0
 854 695 860 683 861 678 c 1
 861 678 850 633 850 577 c 2
 850 146 l 2
 850 112 851 84 858 56 c 0
 861 45 906 31 914 31 c 0
 919 31 918 3 916 -3 c 1
 875 -1 823 5 784 5 c 0
 742 5 696 -1 654 -3 c 1
 649 2 649 31 654 31 c 0
 666 31 709 45 712 56 c 0
 718 82 720 124 720 131 c 2
 720 515 l 2
 720 543 718 561 706 588 c 16
 695 613 676 634 636 634 c 0
 578 634 531 551 533 475 c 2xdb
 534 434 l 2
 534 432 537 429 539 429 c 2
 650 429 l 2
 655 429 655 428 655 422 c 0
 655 413 650 384 643 370 c 1
 540 370 l 2
 537 370 534 367 534 364 c 0
 534 274 534 149 534 149 c 2xdd
329 620 m 0
 244 619 221 551 223 475 c 2
 224 434 l 2
 224 432 224 430 229 430 c 2
 399 430 l 2
 402 430 404 432 404 435 c 2
 404 437 l 0xed
 404 456 410 501 412 516 c 0
 412 519 413 523 413 528 c 0xeb
 413 536 407 557 404 562 c 0
 394 578 371 620 329 620 c 0
EndSplineSet
LCarets2: 2 0 0 
EndChar

StartChar: f_b
Encoding: 61701 61701 251
Width: 880
Flags: W
HStem: -8 55<557.837 673.157> -4 37<20.7256 79.3777 238.119 296.448> 372 57<38.0468 94 224 340.454> 377 72<567.29 665.48> 634 62<276.921 381.102>
VStem: 94 130<46.8035 371.997 430.055 534.844> 410 130<65.375 357.882 410.779 602.315> 708 142<128.381 324.312>
LayerCount: 2
Fore
SplineSet
94 134 m 2x6f
 94 134 94 276 94 365 c 0
 94 368 92 372 89 372 c 2
 36 372 l 2x6f
 34 372 33 374 33 378 c 0
 33 391 43 430 48 430 c 2
 89 430 l 2
 92 430 94 433 94 436 c 2
 94 440 l 0
 94 570 216 696 364 696 c 0
 388 696 413 678 429 678 c 0
 470 678 529 695 538 695 c 0
 544 695 550 683 551 678 c 1
 551 678 540 633 540 577 c 2
 540 424 l 2
 540 419 540 406 546 411 c 0
 561 423 592 449 642 449 c 0
 762 449 850 370 850 232 c 0
 850 94 748 -8 618 -8 c 0x9f
 532 -8 547 10 489 10 c 0
 471 10 443 -9 437 -9 c 2
 431 -9 l 1
 424 -4 399 6 402 17 c 0
 410 49 410 77 410 128 c 2
 410 515 l 0
 410 543 408 561 396 588 c 16
 385 613 366 634 326 634 c 0
 268 634 221 551 223 475 c 2
 224 434 l 2
 224 432 227 429 229 429 c 2
 340 429 l 2
 345 429 345 428 345 422 c 0
 345 413 340 386 333 372 c 1
 230 372 l 2
 227 372 224 369 224 366 c 0
 224 276 224 149 224 149 c 2
 224 115 224 85 231 58 c 0
 234 47 286 33 294 33 c 0
 299 33 298 2 296 -4 c 1
 255 -2 198 4 159 4 c 0
 117 4 64 -2 22 -4 c 1
 17 1 17 33 22 33 c 0
 34 33 84 47 87 58 c 0
 93 84 94 127 94 134 c 2x6f
540 308 m 2
 540 113 l 2
 540 82 558 47 627 47 c 0
 686 47 708 115 708 197 c 0
 708 297 676 377 625 377 c 0x9f
 573 377 540 352 540 308 c 2
EndSplineSet
LCarets2: 1 0 
EndChar

StartChar: f_f_b
Encoding: 61702 61702 252
Width: 1190
Flags: W
HStem: -8 55<867.837 983.157> -4 37<20.7256 79.3777 238.119 296.448 330.726 389.378 548.119 606.448> 370 60<38.625 94 224 404 534 650.231> 377 72<877.29 975.48> 620 62<261.999 377.029> 634 62<586.69 691.102>
VStem: 94 130<46.8035 369.997 430.002 538> 404 130<46.8035 369.997 430.055 527.766> 413 120<430.055 571.145> 720 130<65.375 357.882 410.779 602.315> 1018 142<128.381 324.312>
LayerCount: 2
Fore
SplineSet
404 134 m 2x6760
 404 134 404 274 404 363 c 0
 404 366 402 370 399 370 c 2
 229 370 l 2
 225 370 224 367 224 364 c 0
 224 274 224 149 224 149 c 2
 224 115 224 85 231 58 c 0
 234 47 286 33 294 33 c 0
 299 33 298 2 296 -4 c 1
 255 -2 198 4 159 4 c 0
 117 4 64 -2 22 -4 c 1
 17 1 17 33 22 33 c 0
 34 33 84 47 87 58 c 0
 93 84 94 127 94 134 c 2
 94 134 94 274 94 363 c 0
 94 366 92 370 89 370 c 2
 36 370 l 2
 34 370 33 372 33 376 c 0
 33 389 43 430 48 430 c 2
 89 430 l 2
 92 430 94 433 94 436 c 2
 94 443 l 0
 94 580 220 681 330 682 c 0x6b60
 391 682 461 675 494 642 c 1
 528 676 579 696 674 696 c 0
 698 696 723 678 739 678 c 0
 780 678 839 695 848 695 c 0
 854 695 860 683 861 678 c 1
 861 678 850 633 850 577 c 2
 850 424 l 2
 850 419 850 406 856 411 c 0
 871 423 902 449 952 449 c 0
 1072 449 1160 370 1160 232 c 0
 1160 94 1058 -8 928 -8 c 0
 842 -8 857 10 799 10 c 0
 781 10 753 -9 747 -9 c 2
 741 -9 l 1
 734 -4 709 6 712 17 c 0
 720 49 720 77 720 128 c 2
 720 515 l 0
 720 543 718 561 706 588 c 16
 695 613 676 634 636 634 c 0
 578 634 531 551 533 475 c 2x96e0
 534 434 l 2
 534 432 537 429 539 429 c 2
 650 429 l 2
 655 429 655 428 655 422 c 0
 655 413 650 384 643 370 c 1
 540 370 l 2
 537 370 534 367 534 364 c 0
 534 274 534 149 534 149 c 2
 534 115 534 85 541 58 c 0
 544 47 596 33 604 33 c 0
 609 33 608 2 606 -4 c 1
 565 -2 508 4 469 4 c 0
 427 4 374 -2 332 -4 c 1
 327 1 327 33 332 33 c 0
 344 33 394 47 397 58 c 0
 403 84 404 127 404 134 c 2x6760
850 308 m 2
 850 113 l 2
 850 82 868 47 937 47 c 0
 996 47 1018 115 1018 197 c 0
 1018 297 986 377 935 377 c 0x9260
 883 377 850 352 850 308 c 2
329 620 m 0x2b60
 244 619 221 551 223 475 c 2
 224 434 l 2
 224 432 224 430 229 430 c 2
 399 430 l 2
 402 430 404 432 404 435 c 2
 404 437 l 0x2b60
 404 456 410 501 412 516 c 0
 412 519 413 523 413 528 c 0x2ae0
 413 536 407 557 404 562 c 0
 394 578 371 620 329 620 c 0x2b60
EndSplineSet
LCarets2: 2 0 0 
EndChar

StartChar: f_k
Encoding: 61703 61703 253
Width: 911
Flags: W
HStem: -4 37<19.572 77.1588 240.389 296.987 335.437 395.378 554.119 612.906 659.437 697.982 865.507 922.994> 372 57<38.0468 94 224 340.454> 405 35<645.036 691.971 807.137 869.596> 634 62<276.921 381.102>
VStem: 94 130<47.8035 371.997 430.055 534.844> 410 130<46.8035 213 259 602.315>
LayerCount: 2
Fore
SplineSet
224 150 m 2xdc
 224 116 224 86 231 59 c 0
 234 48 286 34 294 34 c 0
 299 34 298 3 296 -3 c 1
 255 -1 198 5 159 5 c 0
 117 5 64 -1 22 -3 c 1
 17 2 17 34 22 34 c 0
 34 34 84 48 87 59 c 0
 93 85 94 128 94 135 c 2
 94 135 94 276 94 365 c 0
 94 368 92 372 89 372 c 2
 36 372 l 2xdc
 34 372 33 374 33 378 c 0
 33 391 43 430 48 430 c 2
 89 430 l 2
 92 430 94 433 94 436 c 2
 94 440 l 0
 94 570 216 696 364 696 c 0
 388 696 413 678 429 678 c 0
 470 678 529 695 538 695 c 0
 544 695 550 683 551 678 c 1
 551 678 540 633 540 577 c 2
 540 259 l 1
 548 261 566 265 574 272 c 0
 663 349 692 368 692 388 c 0
 692 408 652 401 646 405 c 1
 643 414 643 439 648 441 c 1
 648 441 720 440 762 440 c 0
 798 440 821 440 866 442 c 1
 874 437 870 405 867 405 c 0xbc
 838 405 809 389 797 382 c 0
 776 370 715 330 660 273 c 1
 735 192 827 79 854 59 c 1
 874 42 910 33 918 33 c 0
 921 33 923 21 923 14 c 0
 923 9 922 -1 921 -3 c 1
 881 -1 833 3 795 3 c 0
 754 3 703 -2 662 -4 c 1
 657 1 657 33 662 33 c 0
 673 33 698 39 698 46 c 0
 698 47 698 48 697 49 c 2
 551 216 l 1
 540 213 l 1
 540 149 l 2
 540 115 540 85 547 58 c 0
 550 47 602 33 610 33 c 0
 615 33 614 2 612 -4 c 1
 571 -2 514 4 475 4 c 0
 433 4 380 -2 338 -4 c 1
 333 1 333 33 338 33 c 0
 350 33 400 47 403 58 c 0
 409 84 410 127 410 134 c 2
 410 515 l 2
 410 542 408 561 396 588 c 16
 385 613 366 634 326 634 c 0
 268 634 221 551 223 475 c 2
 224 434 l 2
 224 432 227 429 229 429 c 2
 340 429 l 2
 345 429 345 428 345 422 c 0
 345 413 340 386 333 372 c 1
 230 372 l 2
 227 372 224 369 224 366 c 0
 224 276 224 150 224 150 c 2xdc
EndSplineSet
LCarets2: 1 0 
EndChar

StartChar: f_f_k
Encoding: 61704 61704 254
Width: 1221
Flags: W
HStem: -4 37<19.4365 79.3777 238.119 296.998 329.437 389.378 548.119 606.997 645.437 705.378 864.119 922.997 969.437 1007.98 1175.51 1232.99> 370 60<38.625 94 224 404 534 650.231> 405 35<955.036 1001.97 1117.14 1179.6> 620 62<261.999 377.029> 634 62<586.69 691.102>
VStem: 94 130<46.8035 369.997 430.002 538> 404 130<46.8035 369.997 430.055 527.766> 413 120<430.055 571.145> 720 130<46.8035 213 259 602.315>
LayerCount: 2
Fore
SplineSet
720 515 m 2xae80
 720 542 718 561 706 588 c 16
 695 613 676 634 636 634 c 0
 578 634 531 551 533 475 c 2xad80
 534 434 l 2
 534 432 537 429 539 429 c 2
 650 429 l 2
 655 429 655 428 655 422 c 0
 655 413 650 384 643 370 c 1
 540 370 l 2
 537 370 534 367 534 364 c 0
 534 274 534 149 534 149 c 2
 534 115 534 85 541 58 c 0
 544 47 596 33 604 33 c 0
 609 33 608 2 606 -4 c 1
 565 -2 508 4 469 4 c 0
 427 4 374 -2 332 -4 c 1
 327 1 327 33 332 33 c 0
 344 33 394 47 397 58 c 0
 403 84 404 127 404 134 c 2
 404 134 404 274 404 363 c 0
 404 366 402 370 399 370 c 2
 229 370 l 2
 225 370 224 367 224 364 c 0
 224 274 224 149 224 149 c 2
 224 115 224 85 231 58 c 0
 234 47 286 33 294 33 c 0
 299 33 298 2 296 -4 c 1
 255 -2 198 4 159 4 c 0
 117 4 64 -2 22 -4 c 1
 17 1 17 33 22 33 c 0
 34 33 84 47 87 58 c 0
 93 84 94 127 94 133 c 2
 94 133 94 274 94 363 c 0
 94 366 92 370 89 370 c 2
 36 370 l 2
 34 370 33 372 33 376 c 0
 33 389 43 430 48 430 c 2
 89 430 l 2
 92 430 94 433 94 436 c 2
 94 443 l 0
 94 580 220 681 330 682 c 0xd680
 391 682 461 675 494 642 c 1
 528 676 579 696 674 696 c 0
 698 696 723 678 739 678 c 0
 780 678 839 695 848 695 c 0
 854 695 860 683 861 678 c 1
 861 678 850 633 850 577 c 2
 850 259 l 1
 858 261 876 265 884 272 c 0
 973 349 1002 368 1002 388 c 0
 1002 408 962 401 956 405 c 1
 953 414 953 439 958 441 c 1
 958 441 1030 440 1072 440 c 0
 1108 440 1131 440 1176 442 c 1
 1184 437 1180 405 1177 405 c 0
 1148 405 1119 389 1107 382 c 0
 1086 370 1025 330 970 273 c 1
 1045 192 1137 79 1164 59 c 1
 1184 42 1220 33 1228 33 c 0
 1231 33 1233 21 1233 14 c 0
 1233 9 1232 -1 1231 -3 c 1
 1191 -1 1143 3 1105 3 c 0
 1064 3 1013 -2 972 -4 c 1
 967 1 967 33 972 33 c 0
 983 33 1008 39 1008 46 c 0
 1008 47 1008 48 1007 49 c 2
 861 216 l 1
 850 213 l 1
 850 149 l 2
 850 115 850 85 857 58 c 0
 860 47 912 33 920 33 c 0
 925 33 924 2 922 -4 c 1
 881 -2 824 4 785 4 c 0
 743 4 690 -2 648 -4 c 1
 643 1 643 33 648 33 c 0
 660 33 710 47 713 58 c 0
 719 84 720 127 720 134 c 2
 720 515 l 2xae80
329 620 m 0xd680
 244 619 221 551 223 475 c 2
 224 434 l 2
 224 432 224 430 229 430 c 2
 399 430 l 2
 402 430 404 432 404 435 c 2
 404 437 l 0xd680
 404 456 410 501 412 516 c 0
 412 519 413 523 413 528 c 0xd580
 413 536 407 557 404 562 c 0
 394 578 371 620 329 620 c 0xd680
EndSplineSet
LCarets2: 2 0 0 
EndChar

StartChar: f_h
Encoding: 61705 61705 255
Width: 901
Flags: W
HStem: -4 37<19.4365 79.3777 238.119 296.998 335.437 395.378 553.833 608.997 624.437 680.715 839.119 897.997> 372 57<38.0468 94 224 340.454> 634 62<276.921 381.102>
VStem: 94 130<46.8035 371.997 430.055 534.844> 410 130<46.8035 348.197 388.003 602.315> 695 130<46.8035 346.244>
LayerCount: 2
Fore
SplineSet
410 133 m 6
 410 514 l 2
 410 542 408 561 396 588 c 16
 385 613 366 634 326 634 c 0
 268 634 221 551 223 475 c 2
 224 434 l 2
 224 432 227 429 229 429 c 2
 340 429 l 2
 345 429 345 428 345 422 c 0
 345 413 340 386 333 372 c 1
 230 372 l 2
 227 372 224 369 224 366 c 0
 224 276 224 149 224 149 c 2
 224 115 224 85 231 58 c 0
 234 47 286 33 294 33 c 0
 299 33 298 2 296 -4 c 1
 255 -2 198 4 159 4 c 0
 117 4 64 -2 22 -4 c 1
 17 1 17 33 22 33 c 0
 34 33 84 47 87 58 c 0
 93 84 94 127 94 134 c 2
 94 134 94 276 94 365 c 0
 94 368 92 372 89 372 c 2
 36 372 l 2
 34 372 33 374 33 378 c 0
 33 391 43 430 48 430 c 2
 89 430 l 2
 92 430 94 433 94 436 c 2
 94 440 l 0
 94 570 216 696 364 696 c 0
 388 696 413 678 429 678 c 0
 470 678 529 695 538 695 c 0
 544 695 550 683 551 678 c 1
 551 678 540 633 540 577 c 2
 540 396 l 2
 540 392 542 388 545 388 c 0
 547 388 549 392 551 394 c 0
 568 411 620 447 671 447 c 27
 754 447 825 388 825 300 c 2
 825 149 l 6
 825 115 825 85 832 58 c 4
 835 47 887 33 895 33 c 4
 900 33 899 2 897 -4 c 5
 856 -2 799 4 760 4 c 4
 718 4 669 -2 627 -4 c 5
 622 1 622 33 627 33 c 4
 639 33 685 47 688 58 c 4
 694 84 695 127 695 134 c 6
 695 224 l 2
 695 330 678 371 617 371 c 0
 582 371 554 343 544 328 c 0
 541 324 540 320 540 317 c 2
 540 149 l 6
 540 115 540 85 547 58 c 4
 550 47 598 33 606 33 c 4
 611 33 610 2 608 -4 c 5
 567 -2 514 4 475 4 c 4
 433 4 380 -2 338 -4 c 5
 333 1 333 33 338 33 c 4
 350 33 400 47 403 58 c 4
 409 84 410 127 410 133 c 6
EndSplineSet
LCarets2: 1 354 
EndChar

StartChar: f_f_h
Encoding: 61706 61706 256
Width: 1211
Flags: W
HStem: -4 37<19.4365 79.3777 238.119 296.998 329.437 389.378 548.119 606.997 645.437 705.378 863.833 918.997 934.437 990.715 1149.12 1208> 370 60<38.625 94 224 404 534 650.231> 371 17<855 927> 620 62<261.999 377.029> 634 62<586.69 691.102>
VStem: 94 130<46.8035 369.997 430 538> 404 130<46.8035 369.997 430.055 527.766> 413 120<430.055 571.145> 720 130<46.8035 348.197 388.003 602.315> 1005 130<46.8035 346.244>
LayerCount: 2
Fore
SplineSet
720 133 m 2xaec0
 720 514 l 2
 720 542 718 561 706 588 c 16
 695 613 676 634 636 634 c 0
 578 634 531 551 533 475 c 2xadc0
 534 434 l 2
 534 432 537 429 539 429 c 2
 650 429 l 2
 655 429 655 428 655 422 c 0
 655 413 650 384 643 370 c 1
 540 370 l 2
 537 370 534 367 534 364 c 0
 534 274 534 149 534 149 c 2
 534 115 534 85 541 58 c 0
 544 47 596 33 604 33 c 0
 609 33 608 2 606 -4 c 1
 565 -2 508 4 469 4 c 0
 427 4 374 -2 332 -4 c 1
 327 1 327 33 332 33 c 0
 344 33 394 47 397 58 c 0
 403 84 404 127 404 134 c 2
 404 134 404 274 404 363 c 0
 404 366 402 370 399 370 c 2
 229 370 l 2
 225 370 224 367 224 364 c 0
 224 274 224 149 224 149 c 2
 224 115 224 85 231 58 c 0
 234 47 286 33 294 33 c 0
 299 33 298 2 296 -4 c 1
 255 -2 198 4 159 4 c 0
 117 4 64 -2 22 -4 c 1
 17 1 17 33 22 33 c 0
 34 33 84 47 87 58 c 0
 93 84 94 127 94 134 c 2
 94 134 94 274 94 363 c 0
 94 366 92 370 89 370 c 2
 36 370 l 2
 34 370 33 372 33 376 c 0
 33 389 43 430 48 430 c 2
 89 430 l 2
 92 430 94 433 94 436 c 2
 94 443 l 0
 94 580 220 681 330 682 c 0xd6c0
 391 682 461 675 494 642 c 1
 528 676 579 696 674 696 c 0
 698 696 723 678 739 678 c 0
 780 678 839 695 848 695 c 0
 854 695 860 683 861 678 c 1
 861 678 850 633 850 577 c 2
 850 396 l 2
 850 392 852 388 855 388 c 0
 857 388 859 392 861 394 c 0
 878 411 930 447 981 447 c 27
 1064 447 1135 388 1135 300 c 2
 1135 149 l 2
 1136 115 1135 85 1142 58 c 0
 1145 47 1197 33 1205 33 c 0
 1210 33 1209 2 1207 -4 c 1
 1166 -2 1109 4 1070 4 c 0
 1028 4 979 -2 937 -4 c 1
 932 1 932 33 937 33 c 0
 949 33 995 47 998 58 c 0
 1004 84 1005 127 1005 134 c 2
 1005 224 l 2
 1005 330 988 371 927 371 c 0
 892 371 864 343 854 328 c 0
 851 324 850 320 850 317 c 2
 850 149 l 2
 851 115 850 85 857 58 c 0
 860 47 908 33 916 33 c 0
 921 33 920 2 918 -4 c 1
 877 -2 824 4 785 4 c 0
 743 4 690 -2 648 -4 c 1
 643 1 643 33 648 33 c 0
 660 33 710 47 713 58 c 0
 719 84 720 127 720 133 c 2xaec0
329 620 m 0xd6c0
 244 619 221 551 223 475 c 2
 224 434 l 2
 224 432 224 430 229 430 c 2
 399 430 l 2
 402 430 404 432 404 435 c 2
 404 437 l 0xd6c0
 404 456 410 501 412 516 c 0
 412 519 413 523 413 528 c 0xd5c0
 413 536 407 557 404 562 c 0
 394 578 371 620 329 620 c 0xd6c0
EndSplineSet
LCarets2: 2 0 0 
EndChar

StartChar: f_j
Encoding: 61707 61707 257
Width: 602
Flags: W
HStem: -218 34<305.177 328.393> -4 34<21.0272 75.9115 237.816 288.082> 372 57<35.0468 91 221 391.159> 424 20G<532.5 537> 542 154<409.104 504.871> 634 62<273.921 377.761>
VStem: 91 130<43.8035 371.997 430.055 534.844> 393 144<563.625 617.911> 407 130<-40.2156 356.881>
LayerCount: 2
Fore
SplineSet
407 277 m 2xd280
 407 288 405 336 389 353 c 0
 373 371 358 372 330 372 c 0
 227 372 l 2
 224 372 221 369 221 366 c 0
 221 276 221 146 221 146 c 2
 221 112 222 83 229 55 c 0
 232 44 277 30 285 30 c 0
 290 30 289 2 287 -4 c 1
 246 -2 195 4 156 4 c 0
 114 4 67 -2 25 -4 c 1
 22 -1 21 7 21 15 c 3
 21 23 23 30 25 30 c 0
 37 30 81 44 84 55 c 0
 90 81 91 124 91 131 c 2
 91 131 91 276 91 365 c 0
 91 368 89 372 86 372 c 2
 33 372 l 2
 31 372 30 374 30 378 c 0
 30 391 40 430 45 430 c 2
 86 430 l 2
 89 430 91 433 91 436 c 2
 91 440 l 0
 91 570 213 696 361 696 c 0xe680
 422 696 447 693 463 690 c 0
 505 683 537 657 537 616 c 0
 537 575 504 542 463 542 c 0xcb
 429 542 404 562 393 588 c 0
 382 613 363 634 323 634 c 0
 265 634 218 551 220 475 c 2
 221 434 l 2
 221 432 224 429 226 429 c 2
 435 429 l 2xe7
 440 429 489 430 521 441 c 0
 522 441 532 444 533 444 c 0
 541 444 547 432 547 427 c 0
 543 395 537 361 537 326 c 2
 537 120 l 2
 537 36 524 -47 489 -102 c 0
 455 -156 348 -218 320 -218 c 1
 313 -214 304 -206 304 -194 c 0
 304 -192 304 -185 305 -184 c 0
 309 -182 407 -145 407 100 c 2
 407 277 l 2xd280
EndSplineSet
LCarets2: 1 0 
EndChar

StartChar: f_f_j
Encoding: 61708 61708 258
Width: 915
Flags: W
HStem: -218 34<617.177 641.393> -4 37<19.4365 79.3777 238.119 296.998 329.437 389.378 548.119 606.997> 370 60<38.625 94 224 404 534 705.499> 424 20G<845.5 850> 542 154<722.104 817.871> 620 62<261.999 377.029> 634 62<585.892 691.189>
VStem: 94 130<46.8035 369.997 430.002 538.141> 404 130<46.8035 369.881 430.055 527.766> 413 120<430.055 571.145> 706 144<563.625 617.911> 720 130<-40.2156 356.881>
LayerCount: 2
Fore
SplineSet
404 134 m 2xd390
 404 134 404 274 404 363 c 0
 404 366 402 370 399 370 c 2
 230 370 l 2
 227 370 224 367 224 364 c 0
 224 274 224 149 224 149 c 2
 224 115 224 85 231 58 c 0
 234 47 286 33 294 33 c 0
 299 33 298 2 296 -4 c 1
 255 -2 198 4 159 4 c 0
 117 4 64 -2 22 -4 c 1
 17 1 17 33 22 33 c 0
 34 33 84 47 87 58 c 0
 93 84 94 127 94 134 c 2
 94 134 94 274 94 363 c 0
 94 366 92 370 89 370 c 2
 36 370 l 2
 34 370 33 372 33 376 c 0
 33 389 43 430 48 430 c 2
 89 430 l 2
 92 430 94 433 94 436 c 2
 94 443 l 0
 94 580 220 682 330 682 c 0xe590
 391 682 461 675 494 642 c 1
 528 676 628 696 672 696 c 0xc390
 734 696 760 693 776 690 c 0
 818 683 850 657 850 616 c 0
 850 575 817 542 776 542 c 0xc9a0
 742 542 717 562 706 588 c 0
 695 613 676 634 636 634 c 0
 578 634 531 551 533 475 c 2xc360
 534 434 l 2
 534 432 537 429 539 429 c 2
 748 429 l 2
 753 429 802 430 834 441 c 0
 835 441 845 444 846 444 c 0
 854 444 860 432 860 427 c 0
 856 395 850 361 850 326 c 2
 850 120 l 2
 850 36 837 -47 802 -102 c 0
 768 -156 660 -218 632 -218 c 1
 625 -214 616 -206 616 -194 c 0
 616 -192 617 -185 618 -184 c 0
 622 -182 720 -145 720 100 c 2
 720 277 l 2
 720 288 718 336 702 353 c 0
 686 371 671 372 643 372 c 0
 540 372 l 2
 537 372 534 369 534 365 c 0
 534 275 534 149 534 149 c 2
 534 115 534 85 541 58 c 0
 544 47 596 33 604 33 c 0
 609 33 608 2 606 -4 c 1
 565 -2 508 4 469 4 c 0
 427 4 374 -2 332 -4 c 1
 327 1 327 33 332 33 c 0
 344 33 394 47 397 58 c 0
 403 84 404 127 404 134 c 2xd390
412 516 m 0
 412 519 413 523 413 528 c 0xe540
 413 536 407 557 404 562 c 0
 394 578 371 620 329 620 c 0
 244 620 221 551 223 475 c 2
 224 434 l 2
 224 432 226 430 228 430 c 2
 399 430 l 2
 402 430 404 433 404 436 c 2
 404 437 l 0
 404 456 410 501 412 516 c 0
EndSplineSet
LCarets2: 2 0 0 
EndChar

StartChar: T_h
Encoding: 61709 61709 259
Width: 1113
Flags: W
HStem: -4 37<170.721 236.999 393.001 459.279 546.721 612.998 759.002 818.279 843.721 897.998 1044 1110.28> 365 1<752 839> 613 44<100.634 152 481 612.414>
VStem: 6 39<482.931 537.849> 245 140<41.2661 145> 621 130<41.2661 145 309 338.951 366.048 372 550 606.465> 906 130<41.2661 145 210 334.749>
LayerCount: 2
Fore
SplineSet
481 657 m 1
 392 657 238 657 149 657 c 0
 77 657 63 676 45 676 c 0
 37 676 37 675 33 673 c 1
 6 489 l 1
 9 486 26 482 35 482 c 0
 40 482 44 483 45 487 c 0
 55 552 101 613 152 613 c 2
 245 613 l 1
 245 145 l 2
 245 102 245 71 237 51 c 0
 232 38 186 34 173 33 c 1
 168 26 169 2 173 -4 c 1
 212 0 272 3 314 3 c 0
 356 3 418 0 457 -4 c 1
 461 2 462 26 457 33 c 1
 444 34 398 38 393 51 c 0
 385 71 385 102 385 145 c 2
 385 613 l 1
 531 613 l 2
 559 613 609 610 614 598 c 0
 621 581 621 567 621 550 c 2
 621 145 l 2
 621 102 621 71 613 51 c 0
 608 38 562 34 549 33 c 1
 544 26 545 2 549 -4 c 1
 588 0 644 3 686 3 c 0
 728 3 777 0 816 -4 c 1
 820 2 821 26 816 33 c 1
 803 34 764 38 759 51 c 0
 751 71 751 108 751 145 c 2
 751 309 l 2
 751 329 799 365 839 365 c 0
 892 365 906 296 906 224 c 2
 906 145 l 2
 906 102 906 71 898 51 c 0
 893 38 859 34 846 33 c 1
 841 26 842 2 846 -4 c 1
 885 0 929 3 971 3 c 0
 1013 3 1069 0 1108 -4 c 1
 1112 2 1113 26 1108 33 c 1
 1095 34 1049 38 1044 51 c 0
 1036 71 1036 102 1036 145 c 2
 1036 210 l 2
 1036 368 1014 446 900 446 c 0
 854 446 787 403 759 371 c 0
 757 369 754 366 752 366 c 1
 751 367 751 369 751 372 c 0
 751 576 l 0
 751 616 762 678 762 678 c 1
 761 683 753 694 747 695 c 1
 744 695 666 657 481 657 c 1
EndSplineSet
LCarets2: 1 0 
EndChar

StartChar: zero.onum
Encoding: 63280 63280 260
Width: 526
Flags: W
HStem: -7 68<219.214 318.354> 381 68<207.802 306.786>
VStem: 28 131<131.158 316.766> 367 131<125.234 310.842>
LayerCount: 2
Fore
SplineSet
257 381 m 0
 198 381 159 309 159 231 c 0
 159 139 210 61 269 61 c 0
 328 61 367 133 367 211 c 0
 367 303 316 381 257 381 c 0
263 449 m 0
 394 449 498 347 498 221 c 0
 498 95 395 -7 263 -7 c 0
 132 -7 28 95 28 221 c 0
 28 347 132 449 263 449 c 0
EndSplineSet
EndChar

StartChar: one.onum
Encoding: 63281 63281 261
Width: 320
Flags: W
HStem: -4 37<30.4365 85.7087 243.687 296.997> 402 37<24.25 88.3886> 425 37<246.294 292.341>
VStem: 99 130<46.8035 396.051>
LayerCount: 2
Fore
SplineSet
157 443 m 0xd0
 197 447 245 456 287 462 c 1
 290 459 293 444 293 435 c 0
 293 430 292 425 290 425 c 0xb0
 278 424 235 406 233 395 c 0
 229 369 229 320 229 313 c 2
 229 149 l 2
 229 115 230 86 237 58 c 0
 240 47 285 33 293 33 c 0
 296 33 297 23 297 15 c 0
 297 7 296 -1 295 -4 c 1
 254 -2 203 4 164 4 c 0
 122 4 75 -2 33 -4 c 1
 28 1 28 33 33 33 c 0
 45 33 89 47 92 58 c 0
 98 84 99 127 99 134 c 2
 99 298 l 2
 99 332 98 354 89 382 c 0
 83 400 60 402 51 402 c 0
 44 402 30 401 30 401 c 0
 26 401 24 417 24 427 c 0
 24 430 24 433 26 439 c 1
 67 441 118 439 157 443 c 0xd0
EndSplineSet
EndChar

StartChar: two.onum
Encoding: 63282 63282 262
Width: 458
Flags: W
HStem: 1 101<169.862 368.875> 380 83<144.051 273.232>
VStem: 247 140<271.713 357.391> 395 40<135.094 180.768>
LayerCount: 2
Fore
SplineSet
225 463 m 4
 321 463 387 404 387 330 c 0
 387 287 354 258 346 251 c 0
 284 197 221 152 170 113 c 0
 167 110 168 102 173 102 c 2
 312 102 l 2
 371 102 377 136 395 175 c 0
 397 180 399 182 405 182 c 0
 409 182 431 179 435 174 c 1
 423 123 402 50 392 0 c 1
 238 1 l 1
 238 1 41 0 34 0 c 1
 26 3 26 14 26 24 c 1
 138 134 247 235 247 303 c 0
 247 343 220 380 166 380 c 0
 94 380 55 295 48 295 c 1
 36 295 26 315 26 324 c 3
 26 332 27 336 28 337 c 0
 49 373 137 463 225 463 c 4
EndSplineSet
EndChar

StartChar: three.onum
Encoding: 63283 63283 263
Width: 448
Flags: W
HStem: -183 51<92.5 223.034> 391 72<164.04 271.5>
VStem: 248 117<284.442 375.079> 290 135<-18.4801 99.7262>
LayerCount: 2
Back
SplineSet
264 460 m 4xf0
 309 460 360 417 360 355 c 4xf0
 360 297 309 221 268 200 c 5
 316 196 388 138 388 53 c 4
 388 -70 220 -182 108 -182 c 4
 94 -182 81 -180 67 -174 c 5
 62 -164 61 -154 61 -148 c 4
 61 -134 81 -112 97 -112 c 4
 128 -112 132 -132 165 -132 c 4
 247 -132 300 -54 300 33 c 4xe8
 300 87 263 145 209 145 c 4
 179 145 152 139 137 134 c 5
 130 135 129 144 129 152 c 4
 129 156 131 165 133 170 c 5
 205 192 285 256 285 324 c 4
 285 369 259 397 219 397 c 4
 163 397 125.946 355.946 112 342 c 4
 110 340 107.853 338 105 338 c 4
 101.862 338 95 349.247 95 354 c 7
 95 355.306 95.5049 360.599 97 363 c 4
 130 416 191 460 264 460 c 4xf0
EndSplineSet
Fore
SplineSet
249 463 m 4xe0
 294 463 365 442 365 360 c 0xe0
 365 289 312 242 263 197 c 1
 302 197 425 168 425 63 c 0
 425 -78 240 -183 112 -183 c 0
 73 -183 47 -173 30 -166 c 1
 26 -159 22 -146 22 -137 c 0
 22 -108 49 -82 73 -82 c 0
 116 -82 115 -132 165 -132 c 0
 228 -132 290 -69 290 21 c 0xd0
 290 96 252 140 185 140 c 0
 171 140 153 134 133 128 c 1
 126 131 123 142 123 150 c 0
 123 154 124 168 126 173 c 1
 187 197 248 236 248 322 c 0
 248 367 215 391 189 391 c 0
 147 391 125 357 112 346 c 0
 108 343 106 342 104 342 c 0
 96 342 89 356 89 365 c 3
 89 367 89 368 90 369 c 0
 127 418 171 463 249 463 c 4xe0
EndSplineSet
EndChar

StartChar: four.onum
Encoding: 63284 63284 264
Width: 492
Flags: W
HStem: 6 70<118.002 288.95 413.002 467.418>
VStem: 289 124<-180.339 4.97714 76.0476 277.996>
LayerCount: 2
Fore
SplineSet
347 -184 m 0
 313 -184 289 -180 289 -171 c 2
 289 0 l 1
 288 5 283 5 280 5 c 2
 40 6 l 1
 32 14 25 26 25 54 c 1
 146 199 262 318 368 450 c 0
 375 458 387 464 395 464 c 0
 401 464 413 462 413 454 c 2
 413 84 l 2
 413 79 416 77 422 76 c 1
 454 76 l 2
 466 76 469 59 469 16 c 0
 469 10 460 6 460 6 c 1
 419 6 l 2
 415 6 413 3 413 -2 c 2
 413 -175 l 1
 413 -175 389 -184 347 -184 c 0
289 82 m 1
 289 269 l 2
 289 272 286 278 284 278 c 1
 284 278 284 277 283 276 c 2
 119 88 l 2
 118 87 118 86 118 85 c 0
 118 81 121 76 125 76 c 2
 280 75 l 1
 283 76 288 76 289 82 c 1
EndSplineSet
EndChar

StartChar: five.onum
Encoding: 63285 63285 265
Width: 380
Flags: W
HStem: -183 31<22.1277 96.1817> 354 108<124.469 349.113>
VStem: 217 135<-41.0775 123.9>
LayerCount: 2
Fore
SplineSet
346 462 m 5
 350 456 354 446 354 428 c 0
 354 411 350 367 343 354 c 1
 209 350 157 352 138 351 c 0
 129 350 127 347 126 342 c 2
 119 294 l 1
 118 287 126 283 134 281 c 0
 247 259 352 165 352 60 c 0
 352 -118 195 -183 26 -183 c 1
 24 -178 22 -174 22 -164 c 0
 22 -153 27 -152 32 -152 c 0
 94 -152 217 -102 217 29 c 0
 217 144 148 194 66 207 c 0
 61 208 55 209 49 218 c 0
 88 451 l 0
 89 454 92 457 95 457 c 0
 166 457 310 454 346 462 c 5
EndSplineSet
EndChar

StartChar: six.onum
Encoding: 63286 63286 266
Width: 462
Flags: W
HStem: -5 53<192.38 280.773> 332 49<196.376 269.047> 619 20G<316 398>
VStem: 28 135<109.972 305.92> 301 134<103.355 284.246>
LayerCount: 2
Fore
SplineSet
263 381 m 0
 369 381 435 286 435 188 c 0
 435 86 342 -5 236 -5 c 0
 132 -5 28 77 28 205 c 0
 28 416 240 569 392 639 c 1
 404 635 412 617 412 605 c 1
 319 559 239 474 196 365 c 1
 211 374 238 381 263 381 c 0
228 332 m 0
 200 332 181 311 177 305 c 1
 168 269 163 230 163 190 c 0
 163 100 187 48 240 48 c 0
 273 48 301 67 301 178 c 0
 301 263 278 332 228 332 c 0
EndSplineSet
EndChar

StartChar: seven.onum
Encoding: 63287 63287 267
Width: 485
Flags: W
HStem: 355 102<93.1259 357>
LayerCount: 2
Fore
SplineSet
389 457 m 2
 415 457 450 460 456 460 c 0
 462 460 463 456 463 451 c 0
 463 438 454 415 436 384 c 2
 126 -182 l 1
 123 -183 121 -183 119 -183 c 0
 101 -183 84 -167 84 -154 c 0
 84 -151 84 -147 86 -144 c 2
 357 355 l 1
 139 355 l 1
 89 355 69 296 62 276 c 1
 54 275 32 274 24 282 c 1
 32 328 58 414 65 445 c 0
 67 453 75 457 84 457 c 2
 389 457 l 2
EndSplineSet
EndChar

StartChar: eight.onum
Encoding: 63288 63288 268
Width: 465
Flags: W
HStem: -6 52<188.349 282.911> 580 53<189.007 275.47>
VStem: 25 134<77.7063 233.967> 44 130<429.082 556.078> 295 130<419.078 558.174> 307 134<91.6968 196.429>
LayerCount: 2
Fore
SplineSet
159 159 m 27xe4
 159 106 182 46 235 46 c 27
 279 46 307 86 307 134 c 3
 307 198 236 248 206 270 c 0
 201 274 194 276 192 276 c 0
 190 276 189 276 187 275 c 0
 167 264 159 206 159 159 c 27xe4
174 494 m 3xd8
 174 436 211 412 244 388 c 0
 247 386 253 384 257 384 c 0
 260 384 262 385 263 386 c 0
 287 409 295 443 295 483 c 3
 295 542 277 580 232 580 c 3
 191 580 174 549 174 494 c 3xd8
44 486 m 3
 44 574 137 633 229 633 c 27
 324 633 425 584 425 489 c 3xd8
 425 412 348 361 315 341 c 0
 313 340 313 335 315 334 c 0
 340 315 441 251 441 170 c 27
 441 62 335 -6 227 -6 c 27
 125 -6 25 39 25 159 c 3xe4
 25 253 110 298 142 315 c 0
 144 316 145 320 141 323 c 0
 106 353 44 392 44 486 c 3
EndSplineSet
EndChar

StartChar: nine.onum
Encoding: 63289 63289 269
Width: 463
Flags: W
HStem: 75 49<193.953 266.624> 408 53<182.227 270.62>
VStem: 28 134<171.754 352.645> 300 135<150.08 346.028>
LayerCount: 2
Fore
SplineSet
227 461 m 0
 331 461 435 379 435 251 c 0
 435 40 223 -113 71 -183 c 1
 59 -179 51 -161 51 -149 c 1
 144 -103 224 -18 267 91 c 1
 252 82 225 75 200 75 c 0
 94 75 28 170 28 268 c 0
 28 370 121 461 227 461 c 0
223 408 m 0
 190 408 162 389 162 278 c 0
 162 193 185 124 235 124 c 0
 263 124 282 145 286 151 c 1
 295 187 300 226 300 266 c 0
 300 356 276 408 223 408 c 0
EndSplineSet
EndChar

StartChar: uni0304
Encoding: 772 772 270
Width: 431
Flags: W
HStem: 560 48<54.5141 335.053>
VStem: 53 284<560.009 608>
LayerCount: 2
Fore
SplineSet
53 571 m 0
 53 596 65 608 68 608 c 2
 331 608 l 2
 333 608 337 606 337 598 c 0
 337 572 323 560 323 560 c 1
 59 560 l 1
 59 560 53 559 53 571 c 0
EndSplineSet
EndChar

StartChar: gravecomb.cap
Encoding: 63632 63632 271
Width: 246
Flags: W
HStem: 744 141
VStem: 29 194
LayerCount: 2
Fore
SplineSet
223 764 m 0
 223 758 216 744 209 744 c 0
 195 744 29 810 29 847 c 0
 29 875 67 885 85 885 c 0
 93 885 99 883 103 881 c 0
 149 846 223 771 223 764 c 0
EndSplineSet
EndChar

StartChar: acutecomb.cap
Encoding: 63633 63633 272
Width: 246
Flags: W
HStem: 744 141
VStem: 29 194
LayerCount: 2
Fore
SplineSet
29 764 m 0
 29 771 103 846 149 881 c 0
 153 883 159 885 167 885 c 0
 185 885 223 875 223 847 c 0
 223 810 57 744 43 744 c 0
 36 744 29 758 29 764 c 0
EndSplineSet
EndChar

StartChar: uni0302.cap
Encoding: 63634 63634 273
Width: 349
Flags: W
HStem: 702 141
VStem: 46 260
LayerCount: 2
Fore
SplineSet
296 702 m 0
 284 702 207 744 176 764 c 1
 145 744 68 702 56 702 c 0
 49 702 46 713 46 721 c 1
 54 727 73 741 119 786 c 0
 143 810 153 823 162 834 c 0
 167 840 171 843 175 843 c 0
 179 843 185 839 190 834 c 0
 202 821 210 810 230 790 c 0
 276 744 298 727 306 721 c 1
 306 713 303 702 296 702 c 0
EndSplineSet
EndChar

StartChar: uni030A.cap
Encoding: 63635 63635 274
Width: 314
Flags: W
HStem: 660 45<129.345 214.559> 813 44<129.345 214.559>
VStem: 73 46<715.644 802.26> 225 45<715.644 802.26>
LayerCount: 2
Fore
SplineSet
119 759 m 0
 119 729 142 705 172 705 c 0
 202 705 225 729 225 759 c 0
 225 789 202 813 172 813 c 0
 142 813 119 789 119 759 c 0
73 759 m 0
 73 813 118 857 172 857 c 0
 226 857 270 813 270 759 c 0
 270 705 226 660 172 660 c 0
 118 660 73 705 73 759 c 0
EndSplineSet
EndChar

StartChar: uni030A
Encoding: 778 778 275
Width: 474
Flags: W
HStem: 510 45<177.929 263.143> 663 44<177.929 263.143>
VStem: 121 46<566.025 651.879> 273 45<564.202 653.692>
LayerCount: 2
Fore
SplineSet
167 609 m 0
 167 579 191 555 221 555 c 0
 251 555 273 579 273 609 c 0
 273 639 251 663 221 663 c 0
 191 663 167 639 167 609 c 0
121 609 m 0
 121 663 167 707 221 707 c 0
 275 707 318 663 318 609 c 0
 318 555 275 510 221 510 c 0
 167 510 121 555 121 609 c 0
EndSplineSet
EndChar

StartChar: tildecomb.cap
Encoding: 63636 63636 276
Width: 675
Flags: W
HStem: 733 60<382.323 495.24> 795 59<208.072 319.965>
LayerCount: 2
Fore
SplineSet
274 854 m 4
 311 854 337 840 364 825 c 4
 393 809 426 793 447 793 c 4
 501 793 524 839 534 844 c 5
 539 844 542 835 542 830 c 4
 542 813 532 794 523 782 c 4
 498 751 466 733 430 733 c 4
 393 733 367 747 340 762 c 4
 311 778 284 795 257 795 c 4
 203 795 180 748 170 743 c 5
 165 743 162 753 162 758 c 4
 162 775 172 794 181 806 c 4
 206 837 238 854 274 854 c 4
EndSplineSet
EndChar

StartChar: uni0304.cap
Encoding: 63637 63637 277
Width: 430
Flags: W
HStem: 746 48<60.5141 365.053>
VStem: 59 308<746.009 794>
LayerCount: 2
Fore
SplineSet
59 757 m 4
 59 782 71 794 74 794 c 6
 361 794 l 6
 363 794 367 792 367 784 c 4
 367 758 353 746 353 746 c 5
 65 746 l 5
 65 746 59 745 59 757 c 4
EndSplineSet
EndChar

StartChar: uni0306.cap
Encoding: 63638 63638 278
Width: 253
Flags: W
HStem: 705 54<63.4426 190.028>
VStem: 16 220<782 791>
LayerCount: 2
Fore
SplineSet
213 804 m 1
 219 802 236 791 236 784 c 0
 236 781 235 779 234 777 c 0
 206 730 166 705 126 705 c 0
 86 705 46 730 18 777 c 0
 17 779 16 782 16 784 c 0
 16 791 33 802 39 804 c 1
 54 785 87 759 126 759 c 0
 168 759 199 781 213 804 c 1
EndSplineSet
EndChar

StartChar: uni0306
Encoding: 774 774 279
Width: 253
Flags: W
HStem: 521 55<70.4353 184.502> 622 20G<27.5 35 212.5 220.5>
VStem: 12 19<626.811 633.625> 217 21<624.168 632.748>
LayerCount: 2
Fore
SplineSet
217 642 m 1
 224 642 238 627 238 620 c 3
 238 618 238 615 237 613 c 0
 222 560 183 521 129 521 c 0
 75 521 28 560 13 613 c 0
 12 615 12 618 12 620 c 3
 12 627 24 642 31 642 c 1
 39 621 82 576 129 576 c 0
 179 576 208 621 217 642 c 1
EndSplineSet
EndChar

StartChar: uni0327.cap
Encoding: 63639 63639 280
Width: 1044
Flags: W
HStem: -167 30<174.41 263.29> -70 68<220.155 249.807>
VStem: 270 58<-132.846 -70.5135>
LayerCount: 2
Fore
SplineSet
250 -27 m 5
 259 -26 264 -25 274 -25 c 31
 303 -25 328 -49 328 -77 c 4
 328 -127 289 -167 224 -167 c 4
 200 -167 180 -158 172 -150 c 5
 170 -147 168 -133 168 -129 c 4
 168 -123 169 -121 171 -121 c 5
 175 -123 199 -137 222 -137 c 4
 258 -137 270 -120 270 -105 c 4
 270 -90 265 -70 242 -70 c 4
 236 -70 225 -73 214 -77 c 5
 211 -77 200 -67 200 -61 c 5
 210 -45 224 -18 230 -2 c 5
 264 -2 l 5
 264 -2 255 -17 250 -27 c 5
EndSplineSet
EndChar

StartChar: uni0327
Encoding: 807 807 281
Width: 454
Flags: W
HStem: -156 32<162.792 249.563> -73 71<202.649 231.565> -67 40<227 252.732>
VStem: 254 51<-121.755 -67.099>
LayerCount: 2
Fore
SplineSet
232 -28 m 5xd0
 232 -28 244 -27 251 -27 c 31
 280 -27 305 -52 305 -78 c 4
 305 -125 269 -156 208 -156 c 4
 186 -156 167 -147 160 -140 c 5
 159 -137 158 -127 158 -123 c 4
 158 -116 162 -109 165 -109 c 4
 170 -109 193 -124 215 -124 c 4
 243 -124 254 -109 254 -95 c 4
 254 -81 247 -67 230 -67 c 4xb0
 224 -67 210 -69 200 -73 c 4
 198 -73 184 -61 186 -57 c 4
 195 -42 206 -16 214 -2 c 5
 246 -2 l 5
 232 -28 l 5xd0
EndSplineSet
EndChar

StartChar: uni0307.cap
Encoding: 63640 63640 282
Width: 317
Flags: W
HStem: 720 136<130.406 229.594>
VStem: 113 134<737.86 838.14>
LayerCount: 2
Fore
SplineSet
113 788 m 4
 113 825 143 856 180 856 c 4
 217 856 247 825 247 788 c 4
 247 751 217 720 180 720 c 4
 143 720 113 751 113 788 c 4
EndSplineSet
EndChar

StartChar: uni0323.cap
Encoding: 63641 63641 283
Width: 316
Flags: W
HStem: -180 148<102.625 207.375>
VStem: 81 148<-158.375 -53.625>
LayerCount: 2
Fore
SplineSet
81 -106 m 0
 81 -65 114 -32 155 -32 c 0
 196 -32 229 -65 229 -106 c 0
 229 -147 196 -180 155 -180 c 0
 114 -180 81 -147 81 -106 c 0
EndSplineSet
EndChar

StartChar: uni0305.cap
Encoding: 63642 63642 284
Width: 563
Flags: W
HStem: 734 72<-11.7805 577.903>
LayerCount: 2
Fore
SplineSet
-16 744 m 0
 -16 746 -13 806 -2 806 c 2
 580 806 l 2
 582 806 586 805 586 797 c 0
 586 779 579 745 578 741 c 0
 576 735 570 734 570 734 c 1
 -10 734 l 1
 -10 734 -16 734 -16 744 c 0
EndSplineSet
EndChar

StartChar: uni0305
Encoding: 773 773 285
Width: 563
Flags: W
HStem: 734 72<-11.7805 577.903>
LayerCount: 2
Fore
SplineSet
-16 744 m 0
 -16 746 -13 806 -2 806 c 2
 580 806 l 2
 582 806 586 805 586 797 c 0
 586 779 579 745 578 741 c 0
 576 735 570 734 570 734 c 1
 -10 734 l 1
 -10 734 -16 734 -16 744 c 0
EndSplineSet
EndChar

StartChar: hookabovecomb.cap
Encoding: 63643 63643 286
Width: 180
Flags: W
HStem: 636 38<81.3663 134.234>
VStem: 17 61<580.057 634.21> 55 48<499.696 536.177> 136 54<571.328 635.43>
LayerCount: 2
Fore
SplineSet
121 674 m 0xd0
 161 674 190 649 190 616 c 0
 190 579 166 553 139 542 c 0
 118 533 103 528 103 515 c 3
 103 513 103 510 104 507 c 1
 104 504 79 498 65 498 c 1
 60 501 55 512 55 515 c 3xb0
 55 543 83 556 100 564 c 0
 123 574 136 587 136 606 c 0
 136 618 132 636 111 636 c 0
 88 636 78 619 78 600 c 0
 78 583 53 578 39 578 c 0
 31 578 17 583 17 595 c 0
 17 646 71 674 121 674 c 0xd0
EndSplineSet
EndChar

